G04*
G04 #@! TF.GenerationSoftware,Altium Limited,Altium Designer,19.0.10 (269)*
G04*
G04 Layer_Color=8421504*
%FSLAX25Y25*%
%MOIN*%
G70*
G01*
G75*
%ADD21C,0.11000*%
%ADD22R,0.03543X0.03150*%
%ADD23R,0.03150X0.03543*%
%ADD24R,0.02559X0.07677*%
%ADD25R,0.02756X0.03543*%
%ADD26R,0.07874X0.05906*%
%ADD27R,0.06181X0.07402*%
%ADD28R,0.05512X0.01181*%
%ADD29C,0.01181*%
%ADD30R,0.03543X0.02756*%
%ADD31R,0.04331X0.02362*%
%ADD32R,0.05118X0.07087*%
%ADD33R,0.02756X0.03740*%
%ADD34R,0.03740X0.02756*%
%ADD35R,0.03347X0.03937*%
G04:AMPARAMS|DCode=36|XSize=35.43mil|YSize=27.56mil|CornerRadius=0mil|HoleSize=0mil|Usage=FLASHONLY|Rotation=135.000|XOffset=0mil|YOffset=0mil|HoleType=Round|Shape=Rectangle|*
%AMROTATEDRECTD36*
4,1,4,0.02227,-0.00278,0.00278,-0.02227,-0.02227,0.00278,-0.00278,0.02227,0.02227,-0.00278,0.0*
%
%ADD36ROTATEDRECTD36*%

G04:AMPARAMS|DCode=37|XSize=31.5mil|YSize=11.81mil|CornerRadius=0mil|HoleSize=0mil|Usage=FLASHONLY|Rotation=225.000|XOffset=0mil|YOffset=0mil|HoleType=Round|Shape=Rectangle|*
%AMROTATEDRECTD37*
4,1,4,0.00696,0.01531,0.01531,0.00696,-0.00696,-0.01531,-0.01531,-0.00696,0.00696,0.01531,0.0*
%
%ADD37ROTATEDRECTD37*%

G04:AMPARAMS|DCode=38|XSize=31.5mil|YSize=11.81mil|CornerRadius=0mil|HoleSize=0mil|Usage=FLASHONLY|Rotation=315.000|XOffset=0mil|YOffset=0mil|HoleType=Round|Shape=Rectangle|*
%AMROTATEDRECTD38*
4,1,4,-0.01531,0.00696,-0.00696,0.01531,0.01531,-0.00696,0.00696,-0.01531,-0.01531,0.00696,0.0*
%
%ADD38ROTATEDRECTD38*%

%ADD39P,0.08352X4X360.0*%
%ADD40R,0.04134X0.02362*%
%ADD41R,0.02362X0.04134*%
%ADD42R,0.01772X0.05433*%
%ADD43R,0.05807X0.08268*%
%ADD44R,0.09350X0.07480*%
%ADD45R,0.06008X0.01713*%
%ADD46R,0.09843X0.04724*%
%ADD47R,0.07874X0.03543*%
%ADD48R,0.03543X0.07874*%
%ADD49R,0.05236X0.05236*%
%ADD50R,0.02362X0.05118*%
%ADD51R,0.01772X0.07087*%
G04:AMPARAMS|DCode=52|XSize=35.43mil|YSize=27.56mil|CornerRadius=0mil|HoleSize=0mil|Usage=FLASHONLY|Rotation=225.000|XOffset=0mil|YOffset=0mil|HoleType=Round|Shape=Rectangle|*
%AMROTATEDRECTD52*
4,1,4,0.00278,0.02227,0.02227,0.00278,-0.00278,-0.02227,-0.02227,-0.00278,0.00278,0.02227,0.0*
%
%ADD52ROTATEDRECTD52*%

%ADD53R,0.06496X0.03740*%
%ADD54R,0.06496X0.12795*%
D21*
X-201000Y68500D02*
D03*
X-154500Y69500D02*
D03*
X-246500Y68500D02*
D03*
D22*
X185500Y47756D02*
D03*
Y42244D02*
D03*
X168500Y108500D02*
D03*
Y114012D02*
D03*
X-43000Y109370D02*
D03*
Y103858D02*
D03*
X-43000Y83346D02*
D03*
Y88858D02*
D03*
X-136500Y88894D02*
D03*
Y83382D02*
D03*
X-134500Y113244D02*
D03*
Y118756D02*
D03*
X-187248Y80177D02*
D03*
Y85689D02*
D03*
X-179915Y80177D02*
D03*
Y85689D02*
D03*
X-179797Y100256D02*
D03*
Y94744D02*
D03*
X-187130Y100256D02*
D03*
Y94744D02*
D03*
D23*
X197256Y33412D02*
D03*
X191744D02*
D03*
X173500Y108500D02*
D03*
X179012D02*
D03*
X163756D02*
D03*
X158244D02*
D03*
X153500D02*
D03*
X147988D02*
D03*
X173468Y54630D02*
D03*
X178979D02*
D03*
X-58268Y133858D02*
D03*
X-63779D02*
D03*
X-140244Y107500D02*
D03*
X-145756D02*
D03*
X-126772Y139000D02*
D03*
X-121260D02*
D03*
X-90244D02*
D03*
X-95756D02*
D03*
X124279Y-9642D02*
D03*
X129791D02*
D03*
X124279Y-16203D02*
D03*
X129791D02*
D03*
X124279Y-22765D02*
D03*
X129791D02*
D03*
X124279Y-29327D02*
D03*
X129791D02*
D03*
X-17453D02*
D03*
X-11941D02*
D03*
X-17453Y-22765D02*
D03*
X-11941D02*
D03*
X-17453Y-16203D02*
D03*
X-11941D02*
D03*
X-17453Y-9642D02*
D03*
X-11941D02*
D03*
X53413D02*
D03*
X58925D02*
D03*
X53413Y-16203D02*
D03*
X58925D02*
D03*
X53413Y-22765D02*
D03*
X58925D02*
D03*
X53413Y-29327D02*
D03*
X58925D02*
D03*
X-88319D02*
D03*
X-82807D02*
D03*
X-88319Y-22765D02*
D03*
X-82807D02*
D03*
X-88319Y-16203D02*
D03*
X-82807D02*
D03*
X-88319Y-9642D02*
D03*
X-82807D02*
D03*
X213256Y-9642D02*
D03*
X218768D02*
D03*
X213256Y-16203D02*
D03*
X218768D02*
D03*
X213256Y-22765D02*
D03*
X218768D02*
D03*
X213256Y-29327D02*
D03*
X218768D02*
D03*
X-177295Y-29327D02*
D03*
X-171783D02*
D03*
X-177295Y-16203D02*
D03*
X-171783D02*
D03*
X-177295Y-22765D02*
D03*
X-171783D02*
D03*
X-177295Y-9642D02*
D03*
X-171783D02*
D03*
D24*
X178500Y99705D02*
D03*
X173500D02*
D03*
X168500D02*
D03*
X163500D02*
D03*
X158500D02*
D03*
X153500D02*
D03*
X148500D02*
D03*
X143500D02*
D03*
Y62500D02*
D03*
X148500D02*
D03*
X153500D02*
D03*
X158500D02*
D03*
X163500D02*
D03*
X168500D02*
D03*
X173500D02*
D03*
X178500D02*
D03*
D25*
X173271Y43640D02*
D03*
X179176D02*
D03*
X173047Y35766D02*
D03*
X178953D02*
D03*
X173271Y48500D02*
D03*
X179176D02*
D03*
X178953Y30796D02*
D03*
X173047D02*
D03*
X-58071Y128858D02*
D03*
X-63976D02*
D03*
X61764Y81000D02*
D03*
X55858D02*
D03*
X88142D02*
D03*
X82236D02*
D03*
X32342Y53500D02*
D03*
X26437D02*
D03*
X-78260Y107500D02*
D03*
X-72354D02*
D03*
X-111406Y74500D02*
D03*
X-105500D02*
D03*
X29035Y-41339D02*
D03*
X23130D02*
D03*
X10717Y-19484D02*
D03*
X16622D02*
D03*
X16622Y-25390D02*
D03*
X10717D02*
D03*
X34618Y-41339D02*
D03*
X40524D02*
D03*
X51524Y-41339D02*
D03*
X45618D02*
D03*
X-60150Y-19484D02*
D03*
X-54244D02*
D03*
X-41831Y-41339D02*
D03*
X-47736D02*
D03*
X-54244Y-25390D02*
D03*
X-60150D02*
D03*
X-19342Y-41339D02*
D03*
X-25248D02*
D03*
X-36248Y-41339D02*
D03*
X-30343D02*
D03*
X-131016Y-19484D02*
D03*
X-125110D02*
D03*
X-125110Y-25390D02*
D03*
X-131016D02*
D03*
X81583Y-19484D02*
D03*
X87488D02*
D03*
X87488Y-25390D02*
D03*
X81583D02*
D03*
X99902Y-41339D02*
D03*
X93996D02*
D03*
X105484Y-41339D02*
D03*
X111390D02*
D03*
X122390Y-41339D02*
D03*
X116484D02*
D03*
X-90209D02*
D03*
X-96114D02*
D03*
X-107114Y-41339D02*
D03*
X-101209D02*
D03*
X-112697Y-41339D02*
D03*
X-118602D02*
D03*
X211366D02*
D03*
X205461D02*
D03*
X170559Y-19484D02*
D03*
X176465D02*
D03*
X176465Y-25390D02*
D03*
X170559D02*
D03*
X188878Y-41339D02*
D03*
X182973D02*
D03*
X194461Y-41339D02*
D03*
X200366D02*
D03*
X-219992Y-19484D02*
D03*
X-214087D02*
D03*
X-214087Y-25390D02*
D03*
X-219992D02*
D03*
X-201673Y-41339D02*
D03*
X-207579D02*
D03*
X-179185D02*
D03*
X-185091D02*
D03*
X-196091Y-41339D02*
D03*
X-190185D02*
D03*
D26*
X-18563Y41677D02*
D03*
X-50846D02*
D03*
X88142Y68858D02*
D03*
X55858D02*
D03*
D27*
X158339Y39703D02*
D03*
D28*
X149677Y35766D02*
D03*
Y37734D02*
D03*
Y39703D02*
D03*
Y41671D02*
D03*
Y43640D02*
D03*
X167000D02*
D03*
Y41671D02*
D03*
Y39703D02*
D03*
Y37734D02*
D03*
Y35766D02*
D03*
D29*
X208500Y36500D02*
D03*
Y39500D02*
D03*
X-245000Y90000D02*
D03*
Y87000D02*
D03*
Y97870D02*
D03*
Y100870D02*
D03*
X119500Y135000D02*
D03*
Y132000D02*
D03*
X97823Y114379D02*
D03*
Y111379D02*
D03*
Y125000D02*
D03*
Y122000D02*
D03*
X86988Y125000D02*
D03*
Y122000D02*
D03*
X87000Y114500D02*
D03*
Y111500D02*
D03*
X45570Y68858D02*
D03*
X48570D02*
D03*
X23669Y14449D02*
D03*
Y17449D02*
D03*
X-47197Y14449D02*
D03*
Y17449D02*
D03*
X94535Y14449D02*
D03*
Y17449D02*
D03*
X-118063Y14449D02*
D03*
Y17449D02*
D03*
X-207039Y14449D02*
D03*
Y17449D02*
D03*
X183512D02*
D03*
Y14449D02*
D03*
D30*
X49000Y108953D02*
D03*
Y103047D02*
D03*
Y123858D02*
D03*
Y129764D02*
D03*
X-82500Y113047D02*
D03*
Y118953D02*
D03*
X-88500Y113000D02*
D03*
Y118905D02*
D03*
X-120177Y95953D02*
D03*
Y90047D02*
D03*
X-85500Y82547D02*
D03*
Y88453D02*
D03*
X-91260Y93953D02*
D03*
Y88047D02*
D03*
X-128000Y118953D02*
D03*
Y113047D02*
D03*
X-111634Y139000D02*
D03*
Y133095D02*
D03*
X-106516Y139000D02*
D03*
Y133095D02*
D03*
X-25197Y22051D02*
D03*
Y16146D02*
D03*
X99902Y3153D02*
D03*
Y9059D02*
D03*
X29035Y3153D02*
D03*
Y9059D02*
D03*
X45669Y22051D02*
D03*
Y16146D02*
D03*
X-96114Y22051D02*
D03*
Y16146D02*
D03*
X40524Y9059D02*
D03*
Y3153D02*
D03*
X45618Y9059D02*
D03*
Y3153D02*
D03*
X-41831Y3153D02*
D03*
Y9059D02*
D03*
X-30343Y9059D02*
D03*
Y3153D02*
D03*
X-25248Y9059D02*
D03*
Y3153D02*
D03*
X-112697Y3153D02*
D03*
Y9059D02*
D03*
X116535Y22051D02*
D03*
Y16146D02*
D03*
X116484Y9059D02*
D03*
Y3153D02*
D03*
X111390Y9059D02*
D03*
Y3153D02*
D03*
X-96114Y9059D02*
D03*
Y3153D02*
D03*
X-101209Y9059D02*
D03*
Y3153D02*
D03*
X205512Y22051D02*
D03*
Y16146D02*
D03*
X205461Y9059D02*
D03*
Y3153D02*
D03*
X200366Y9059D02*
D03*
Y3153D02*
D03*
X188878Y3153D02*
D03*
Y9059D02*
D03*
X-185039Y22051D02*
D03*
Y16146D02*
D03*
X-201673Y3153D02*
D03*
Y9059D02*
D03*
X-185091Y9059D02*
D03*
Y3153D02*
D03*
X-190185Y9059D02*
D03*
Y3153D02*
D03*
D31*
X-43000Y93494D02*
D03*
Y99006D02*
D03*
D32*
X-128850Y83382D02*
D03*
Y93618D02*
D03*
X-194500Y89382D02*
D03*
Y99618D02*
D03*
D33*
X44488Y53500D02*
D03*
X37402D02*
D03*
D34*
X-88500Y130587D02*
D03*
Y123500D02*
D03*
X-82500Y130587D02*
D03*
Y123500D02*
D03*
D35*
X-135150Y107500D02*
D03*
X-128850D02*
D03*
D36*
X-1912Y45088D02*
D03*
X-6088Y40912D02*
D03*
X-13588Y33412D02*
D03*
X-9412Y37588D02*
D03*
D37*
X6073Y32824D02*
D03*
X4681Y34216D02*
D03*
X3289Y35608D02*
D03*
X1897Y37000D02*
D03*
X-6176Y28927D02*
D03*
X-4784Y27535D02*
D03*
X-3392Y26143D02*
D03*
X-2000Y24751D02*
D03*
D38*
Y37000D02*
D03*
X-3392Y35608D02*
D03*
X-4784Y34216D02*
D03*
X-6176Y32824D02*
D03*
X1897Y24751D02*
D03*
X3289Y26143D02*
D03*
X4681Y27535D02*
D03*
X6073Y28927D02*
D03*
D39*
X-51Y30876D02*
D03*
D40*
X-105500Y80520D02*
D03*
Y88000D02*
D03*
X-114161Y84260D02*
D03*
D41*
X-91260Y83161D02*
D03*
X-98740D02*
D03*
X-95000Y74500D02*
D03*
X-78260Y102252D02*
D03*
X-85740D02*
D03*
X-82000Y93590D02*
D03*
D42*
X-105118Y148028D02*
D03*
X-107677D02*
D03*
X-110236D02*
D03*
X-112795D02*
D03*
X-115354D02*
D03*
D43*
X-121260Y149445D02*
D03*
X-99213D02*
D03*
D44*
X-98770Y158500D02*
D03*
X-121703D02*
D03*
D45*
X-98823Y99748D02*
D03*
Y102252D02*
D03*
Y104748D02*
D03*
Y107252D02*
D03*
Y109748D02*
D03*
Y112252D02*
D03*
Y114748D02*
D03*
Y117252D02*
D03*
Y119748D02*
D03*
Y122252D02*
D03*
X-120177D02*
D03*
Y119748D02*
D03*
Y117252D02*
D03*
Y114748D02*
D03*
Y112252D02*
D03*
Y109748D02*
D03*
Y107252D02*
D03*
Y104748D02*
D03*
Y102252D02*
D03*
Y99748D02*
D03*
D46*
X-208173Y103842D02*
D03*
Y94000D02*
D03*
Y84158D02*
D03*
X-229827D02*
D03*
Y94000D02*
D03*
Y103842D02*
D03*
D47*
X-29528Y133858D02*
D03*
Y128858D02*
D03*
Y123858D02*
D03*
Y118858D02*
D03*
Y113858D02*
D03*
Y108858D02*
D03*
Y103858D02*
D03*
Y98858D02*
D03*
Y93858D02*
D03*
Y88858D02*
D03*
Y83858D02*
D03*
Y78858D02*
D03*
Y73858D02*
D03*
Y68858D02*
D03*
X37402D02*
D03*
Y73858D02*
D03*
Y78858D02*
D03*
Y83858D02*
D03*
Y88858D02*
D03*
Y93858D02*
D03*
Y98858D02*
D03*
Y103858D02*
D03*
Y108858D02*
D03*
Y113858D02*
D03*
Y118858D02*
D03*
Y123858D02*
D03*
Y128858D02*
D03*
Y133858D02*
D03*
D48*
X-18563Y64921D02*
D03*
X-13563D02*
D03*
X-8563D02*
D03*
X-3563D02*
D03*
X1437D02*
D03*
X6437D02*
D03*
X11437D02*
D03*
X16437D02*
D03*
X21437D02*
D03*
X26437D02*
D03*
D49*
X-7224Y111555D02*
D03*
X0D02*
D03*
X7224D02*
D03*
X-7224Y104331D02*
D03*
X0D02*
D03*
X7224D02*
D03*
X-7224Y97106D02*
D03*
X0D02*
D03*
X7224D02*
D03*
D50*
X35433Y13783D02*
D03*
X31693Y22051D02*
D03*
X39173D02*
D03*
X-35433Y13783D02*
D03*
X-39173Y22051D02*
D03*
X-31693D02*
D03*
X106299Y13783D02*
D03*
X102559Y22051D02*
D03*
X110039D02*
D03*
X-106299Y13783D02*
D03*
X-110039Y22051D02*
D03*
X-102559D02*
D03*
X-195276Y13783D02*
D03*
X-199016Y22051D02*
D03*
X-191535D02*
D03*
X199016D02*
D03*
X191535D02*
D03*
X195276Y13783D02*
D03*
D51*
X46949Y-5413D02*
D03*
X44390D02*
D03*
X41831D02*
D03*
X39272D02*
D03*
X36713D02*
D03*
X34154D02*
D03*
X31594D02*
D03*
X29035D02*
D03*
X26476D02*
D03*
X23917D02*
D03*
Y-33366D02*
D03*
X26476D02*
D03*
X29035D02*
D03*
X31594D02*
D03*
X34154D02*
D03*
X36713D02*
D03*
X39272D02*
D03*
X41831D02*
D03*
X44390D02*
D03*
X46949D02*
D03*
X-23917Y-5413D02*
D03*
X-26476D02*
D03*
X-29035D02*
D03*
X-31594D02*
D03*
X-34154D02*
D03*
X-36713D02*
D03*
X-39272D02*
D03*
X-41831D02*
D03*
X-44390D02*
D03*
X-46949D02*
D03*
Y-33366D02*
D03*
X-44390D02*
D03*
X-41831D02*
D03*
X-39272D02*
D03*
X-36713D02*
D03*
X-34154D02*
D03*
X-31594D02*
D03*
X-29035D02*
D03*
X-26476D02*
D03*
X-23917D02*
D03*
X117815Y-5413D02*
D03*
X115256D02*
D03*
X112697D02*
D03*
X110138D02*
D03*
X107579D02*
D03*
X105020D02*
D03*
X102461D02*
D03*
X99902D02*
D03*
X97342D02*
D03*
X94784D02*
D03*
Y-33366D02*
D03*
X97342D02*
D03*
X99902D02*
D03*
X102461D02*
D03*
X105020D02*
D03*
X107579D02*
D03*
X110138D02*
D03*
X112697D02*
D03*
X115256D02*
D03*
X117815D02*
D03*
X-94784Y-5413D02*
D03*
X-97342D02*
D03*
X-99902D02*
D03*
X-102461D02*
D03*
X-105020D02*
D03*
X-107579D02*
D03*
X-110138D02*
D03*
X-112697D02*
D03*
X-115256D02*
D03*
X-117815D02*
D03*
Y-33366D02*
D03*
X-115256D02*
D03*
X-112697D02*
D03*
X-110138D02*
D03*
X-107579D02*
D03*
X-105020D02*
D03*
X-102461D02*
D03*
X-99902D02*
D03*
X-97342D02*
D03*
X-94784D02*
D03*
X-183760Y-5413D02*
D03*
X-186319D02*
D03*
X-188878D02*
D03*
X-191437D02*
D03*
X-193996D02*
D03*
X-196555D02*
D03*
X-199114D02*
D03*
X-201673D02*
D03*
X-204232D02*
D03*
X-206791D02*
D03*
Y-33366D02*
D03*
X-204232D02*
D03*
X-201673D02*
D03*
X-199114D02*
D03*
X-196555D02*
D03*
X-193996D02*
D03*
X-191437D02*
D03*
X-188878D02*
D03*
X-186319D02*
D03*
X-183760D02*
D03*
X206791D02*
D03*
X204232D02*
D03*
X201673D02*
D03*
X199114D02*
D03*
X196555D02*
D03*
X193996D02*
D03*
X191437D02*
D03*
X188878D02*
D03*
X186319D02*
D03*
X183760D02*
D03*
Y-5413D02*
D03*
X186319D02*
D03*
X188878D02*
D03*
X191437D02*
D03*
X193996D02*
D03*
X196555D02*
D03*
X199114D02*
D03*
X201673D02*
D03*
X204232D02*
D03*
X206791D02*
D03*
D52*
X8525Y40912D02*
D03*
X4349Y45088D02*
D03*
D53*
X-169158Y103799D02*
D03*
Y94744D02*
D03*
Y85689D02*
D03*
D54*
X-144354Y94744D02*
D03*
M02*
