M48
;Layer_Color=9474304
;FILE_FORMAT=2:5
INCH,TZ
;TYPE=PLATED
T1F00S00C0.01575
T2F00S00C0.02992
T3F00S00C0.03000
T4F00S00C0.03543
T5F00S00C0.03937
T6F00S00C0.04331
T7F00S00C0.05118
T8F00S00C0.05906
T9F00S00C0.06299
T10F00S00C0.07480
T11F00S00C0.11811
T12F00S00C0.27559
;TYPE=NON_PLATED
T13F00S00C0.12795
%
T01
X-146780Y-156205
X148496
X256764Y-18409
X246921Y1276
X227236
X205461Y3153
X200366
X192440Y500
X197709Y-18409
X213256Y-16203
Y-9642
Y-22765
Y-29327
X237079Y-18409
X205486Y16120
X168181Y1276
X162429Y-2535
X161461Y5000
X148496Y1276
X128811
X116484Y3153
X111390
X103464Y500
X89441Y1276
X99283Y-18409
X124404Y-16203
Y-22765
Y-29327
Y-9642
X138654Y-18409
X148496Y-38094
X138654Y-57780
X148496Y-77465
X138654Y-97150
Y-136520
X116484Y16094
X75500Y746
X69756Y1276
X50071
X45618Y3153
X40524
X32598Y500
X11201Y746
X1905Y972
X-2000Y5335
X-8984Y1276
X-25248Y3153
X-30343
X-38269Y500
X-48354Y1276
X-64500Y500
X-68039Y1276
X-38512Y-18409
X-17390Y-16203
Y-22765
Y-29327
Y-9642
X858Y-18409
X53476Y-16203
Y-22765
Y-29327
Y-9642
X45644Y16120
X-25223
X-96114Y16094
Y3153
X-101209
X-109135Y500
X-127094Y1276
X-146780
X-166465
X-185091Y3153
X-190185
X-198111Y500
X-205835Y1276
X-195992Y-18409
X-177295Y-16203
Y-22765
Y-29327
Y-9642
X-156622Y-18409
X-136937
X-146780Y-38094
X-136937Y-57780
X-146780Y-77465
X-136937Y-97150
Y-136520
X-88194Y-29327
Y-22765
Y-16203
Y-9642
X-87724Y1276
X-185065Y16120
X-235362Y60331
X-245205Y119386
X-225520
X-215677Y139071
X-195992
X-176307
X-156622
X-136937
X-135150Y107500
X-136937Y99701
X-156622
X-146780Y80016
X-166465
X-187130Y94744
X-166465Y119386
X-113445Y117283
X-107409Y119386
X-104614Y104748
X-93933Y99500
X-88500Y113000
X-77882Y139071
X-102000Y142500
X-95000Y71000
X-117252Y60331
X-136937
X-127094Y40646
X-107409
X-87724
X-77882Y20961
X-117252
X-136937
X-156622
X-176307
X-166465Y40646
X-146780
X-205835
X-215677Y60331
Y20961
X-58197
X-68039Y40646
X-28669
X-32268Y52558
X-33883Y73500
X-48354Y80016
X-58197Y99701
X-58071Y128858
X-58197Y139071
X-48354Y119386
X-68039
X-29528Y128858
X-8984Y119386
X-7224Y111555
X0
X7224
Y104331
Y97106
X0
X-7224
Y104331
X0
X-18827Y99701
X-8984Y80016
X10701
X31000Y71347
X61764Y81000
X69756Y80016
X79598Y60331
X69756Y40646
X79598Y20961
X59913
X21621Y34500
X8500Y41000
X1809Y38000
X-1912
X-13588Y33412
X-2000Y20000
X1905
X10701Y119386
X49000Y122500
X49000Y129764
X49000Y110500
X49000Y103047
X42988Y106358
X87000Y118000
X97823
X109126Y119386
X128811
X138654Y99701
X118968
X128811Y80016
X148496
X168181
X178720Y58500
X155798Y48000
X139000Y37121
X128811Y40646
X124779Y30876
X89441Y40646
X99283Y60331
X178024Y20961
X198500Y23945
X217394Y20961
X237079
X227236Y40646
X237079Y99701
X217394
X197709
X187866Y119386
X168181
X197709Y139071
X217394
X227236Y119386
X246921
X256764Y99701
X246921Y80016
X256764Y60331
X246921Y40646
X256764Y20961
T02
X194000Y60780
Y70780
Y80779
Y90780
X204000Y85780
Y75779
Y65780
Y55779
T03
X100956Y44387
X108830
X116704
X124578
Y68500
X116704
X108830
X100956
Y95000
X108830
X116704
X124578
X185866Y146643
X193740
X201614
X209488
T04
X57500Y135000
X67500
X77500
X87500
X97500
X107500
T05
X-69882Y154134
X-52165
T06
X-160850Y-145374
X-150850
X-140850
X140850
X150850
X160850
X185276Y-118723
X195276
X205276
Y-49826
X195276
X185276
X116424
X106424
X96424
Y-118723
X106424
X116424
X45496
X35495
X25495
X-25371
X-35371
X-45371
Y-49826
X-35371
X-25371
X25495
X35495
X45496
X-96174
X-106174
X-116174
Y-118723
X-106174
X-96174
X-185276
X-195276
X-205276
Y-49826
X-195276
X-185276
T07
X-74823Y144331
X-47224
T08
X-205090Y124016
X-185405
T09
X-195276Y-145374
X-106299
X-35433
X35433
X106299
X195276
T10
X-205413Y-155512
X-185138
X-116437
X-96161
X-45571
X-25295
X25295
X45571
X96161
X116437
X185138
X205413
Y-135236
X185138
X116437
X96161
X45571
X25295
X-25295
X-45571
X-96161
X-116437
X-185138
X-205413
T11
X146555Y-121653
X-146555
Y121653
X146555
T12
X-242717Y-145472
X242717
X-242717Y145472
X242717
T13
X229000Y50779
Y95780
M30
