G04*
G04 #@! TF.GenerationSoftware,Altium Limited,Altium Designer,19.0.10 (269)*
G04*
G04 Layer_Physical_Order=2*
G04 Layer_Color=16711680*
%FSLAX25Y25*%
%MOIN*%
G70*
G01*
G75*
%ADD12C,0.01000*%
%ADD25R,0.02756X0.03543*%
%ADD103C,0.03000*%
%ADD104C,0.01500*%
%ADD107C,0.06000*%
%ADD108C,0.07874*%
%ADD109C,0.06102*%
%ADD110C,0.05130*%
%ADD111C,0.06398*%
%ADD112C,0.10630*%
%ADD113C,0.06496*%
%ADD114C,0.11221*%
%ADD115C,0.09449*%
%ADD116R,0.06000X0.06000*%
%ADD117C,0.15748*%
%ADD118C,0.31496*%
%ADD119C,0.03937*%
%ADD120C,0.05118*%
%ADD121C,0.02362*%
G36*
X258823Y150128D02*
X258323Y150045D01*
X257760Y151704D01*
X256818Y153614D01*
X255635Y155385D01*
X254230Y156986D01*
X252629Y158390D01*
X250858Y159574D01*
X248948Y160516D01*
X246931Y161200D01*
X244842Y161616D01*
X242717Y161755D01*
X240591Y161616D01*
X238502Y161200D01*
X236485Y160516D01*
X234575Y159574D01*
X232804Y158390D01*
X231203Y156986D01*
X229799Y155385D01*
X228615Y153614D01*
X227673Y151704D01*
X226989Y149687D01*
X226573Y147598D01*
X226434Y145472D01*
X226573Y143347D01*
X226989Y141258D01*
X227673Y139241D01*
X228615Y137331D01*
X229799Y135560D01*
X231203Y133959D01*
X232804Y132554D01*
X234575Y131371D01*
X236485Y130429D01*
X238502Y129744D01*
X240591Y129329D01*
X242717Y129190D01*
X244842Y129329D01*
X246931Y129744D01*
X248948Y130429D01*
X250858Y131371D01*
X252629Y132554D01*
X254230Y133959D01*
X255635Y135560D01*
X256818Y137331D01*
X257760Y139241D01*
X258323Y140900D01*
X258823Y140817D01*
Y101445D01*
X258406Y101298D01*
X258323Y101282D01*
X257615Y101755D01*
X257264Y101825D01*
Y99701D01*
Y97576D01*
X257615Y97646D01*
X258323Y98119D01*
X258406Y98104D01*
X258823Y97957D01*
Y62075D01*
X258406Y61928D01*
X258323Y61912D01*
X257615Y62385D01*
X257264Y62455D01*
Y60331D01*
Y58206D01*
X257615Y58276D01*
X258323Y58749D01*
X258406Y58734D01*
X258823Y58587D01*
Y22705D01*
X258406Y22558D01*
X258323Y22542D01*
X257615Y23015D01*
X257264Y23085D01*
Y20961D01*
Y18836D01*
X257615Y18906D01*
X258323Y19379D01*
X258406Y19364D01*
X258823Y19217D01*
Y-16665D01*
X258406Y-16812D01*
X258323Y-16828D01*
X257615Y-16355D01*
X257264Y-16285D01*
Y-18409D01*
Y-20534D01*
X257615Y-20464D01*
X258323Y-19991D01*
X258406Y-20007D01*
X258823Y-20154D01*
Y-29827D01*
X225041Y-29827D01*
Y-5000D01*
X224883Y-4617D01*
X224500Y-4459D01*
X209500D01*
X209117Y-4617D01*
X208959Y-5000D01*
Y-9276D01*
X200290Y-17945D01*
X199811Y-17800D01*
X199763Y-17558D01*
X199281Y-16837D01*
X198560Y-16355D01*
X198209Y-16285D01*
Y-18409D01*
X197709D01*
Y-18909D01*
X195584D01*
X195654Y-19261D01*
X196136Y-19982D01*
X196858Y-20464D01*
X197111Y-20514D01*
X197125Y-20552D01*
X197182Y-20779D01*
X197194Y-21041D01*
X193776Y-24459D01*
X185884D01*
X185693Y-23997D01*
X210084Y394D01*
X210526Y1056D01*
X210681Y1836D01*
Y8500D01*
Y11114D01*
X210526Y11895D01*
X210084Y12556D01*
X207525Y15114D01*
Y15275D01*
X211064Y18814D01*
X211506Y19476D01*
X211661Y20256D01*
Y27598D01*
Y143899D01*
X211984Y144147D01*
X212545Y144878D01*
X212898Y145730D01*
X213018Y146643D01*
X212898Y147557D01*
X212545Y148408D01*
X211984Y149140D01*
X211253Y149701D01*
X210402Y150053D01*
X209488Y150174D01*
X208575Y150053D01*
X207723Y149701D01*
X206992Y149140D01*
X206431Y148408D01*
X206078Y147557D01*
X205958Y146643D01*
X206078Y145730D01*
X206431Y144878D01*
X206992Y144147D01*
X207583Y143694D01*
Y85877D01*
X207083Y85844D01*
X206986Y86580D01*
X206677Y87325D01*
X206186Y87966D01*
X205546Y88457D01*
X204800Y88766D01*
X204000Y88871D01*
X203200Y88766D01*
X202454Y88457D01*
X201814Y87966D01*
X201323Y87325D01*
X201014Y86580D01*
X200909Y85780D01*
X201014Y84979D01*
X201323Y84234D01*
X201814Y83594D01*
X202454Y83102D01*
X203200Y82793D01*
X204000Y82688D01*
X204800Y82793D01*
X205546Y83102D01*
X206186Y83594D01*
X206677Y84234D01*
X206986Y84979D01*
X207083Y85715D01*
X207583Y85682D01*
Y75877D01*
X207083Y75845D01*
X206986Y76580D01*
X206677Y77325D01*
X206186Y77965D01*
X205546Y78457D01*
X204800Y78766D01*
X204000Y78871D01*
X203200Y78766D01*
X202454Y78457D01*
X201814Y77965D01*
X201323Y77325D01*
X201014Y76580D01*
X200909Y75779D01*
X201014Y74979D01*
X201323Y74234D01*
X201814Y73594D01*
X202454Y73102D01*
X203200Y72794D01*
X204000Y72688D01*
X204800Y72794D01*
X205546Y73102D01*
X206186Y73594D01*
X206677Y74234D01*
X206986Y74979D01*
X207083Y75715D01*
X207583Y75682D01*
Y65877D01*
X207083Y65845D01*
X206986Y66580D01*
X206677Y67325D01*
X206186Y67966D01*
X205546Y68457D01*
X204800Y68766D01*
X204000Y68871D01*
X203200Y68766D01*
X202454Y68457D01*
X201814Y67966D01*
X201323Y67325D01*
X201014Y66580D01*
X200909Y65780D01*
X201014Y64979D01*
X201323Y64234D01*
X201814Y63594D01*
X202454Y63102D01*
X203200Y62793D01*
X204000Y62688D01*
X204800Y62793D01*
X205546Y63102D01*
X206186Y63594D01*
X206677Y64234D01*
X206986Y64979D01*
X207083Y65715D01*
X207583Y65682D01*
Y55877D01*
X207083Y55844D01*
X206986Y56580D01*
X206677Y57325D01*
X206186Y57965D01*
X205546Y58457D01*
X204800Y58766D01*
X204000Y58871D01*
X203200Y58766D01*
X202454Y58457D01*
X201814Y57965D01*
X201323Y57325D01*
X201014Y56580D01*
X200909Y55779D01*
X201014Y54979D01*
X201323Y54234D01*
X201814Y53594D01*
X202454Y53102D01*
X203200Y52794D01*
X204000Y52688D01*
X204800Y52794D01*
X205546Y53102D01*
X206186Y53594D01*
X206677Y54234D01*
X206986Y54979D01*
X207083Y55715D01*
X207583Y55682D01*
Y33175D01*
X207121Y32983D01*
X180162Y59942D01*
X179501Y60384D01*
X178720Y60539D01*
X177940Y60384D01*
X177278Y59942D01*
X167376Y50039D01*
X155798D01*
X155018Y49884D01*
X154356Y49442D01*
X151340Y46426D01*
X127425D01*
X127074Y46883D01*
X126617Y47234D01*
Y65653D01*
X127074Y66004D01*
X127635Y66735D01*
X127988Y67586D01*
X128108Y68500D01*
X127988Y69414D01*
X127635Y70265D01*
X127074Y70996D01*
X126343Y71557D01*
X125491Y71910D01*
X124578Y72030D01*
X123664Y71910D01*
X122813Y71557D01*
X122081Y70996D01*
X121520Y70265D01*
X121168Y69414D01*
X121047Y68500D01*
X121168Y67586D01*
X121520Y66735D01*
X122081Y66004D01*
X122538Y65653D01*
Y47234D01*
X122081Y46883D01*
X121520Y46152D01*
X121168Y45300D01*
X121047Y44387D01*
X121168Y43473D01*
X121520Y42622D01*
X122081Y41891D01*
X122813Y41330D01*
X123664Y40977D01*
X124578Y40857D01*
X125491Y40977D01*
X126202Y41271D01*
X126404Y41146D01*
X130935D01*
X130866Y41497D01*
X130631Y41848D01*
X130898Y42348D01*
X152185D01*
X152965Y42503D01*
X153627Y42945D01*
X156643Y45961D01*
X168220D01*
X169001Y46116D01*
X169662Y46558D01*
X178720Y55616D01*
X207583Y26754D01*
Y21101D01*
X204616Y18134D01*
X45772D01*
X45644Y18159D01*
X10076D01*
X9885Y18621D01*
X9942Y18678D01*
X10384Y19340D01*
X10539Y20120D01*
Y38961D01*
X49500D01*
X50280Y39116D01*
X50942Y39558D01*
X63206Y51822D01*
X63648Y52483D01*
X63803Y53264D01*
Y81000D01*
Y97831D01*
X63648Y98611D01*
X63206Y99273D01*
X59431Y103047D01*
X60942Y104558D01*
X61384Y105220D01*
X61539Y106000D01*
Y119264D01*
X61539Y119264D01*
X61384Y120044D01*
X60942Y120706D01*
X56149Y125499D01*
X56340Y125961D01*
X70366D01*
X71146Y126116D01*
X71808Y126558D01*
X76810Y131561D01*
X77500Y131470D01*
X78414Y131590D01*
X79265Y131943D01*
X79996Y132504D01*
X80557Y133235D01*
X80910Y134086D01*
X81030Y135000D01*
X80910Y135914D01*
X80557Y136765D01*
X79996Y137496D01*
X79265Y138057D01*
X78414Y138410D01*
X77500Y138530D01*
X76586Y138410D01*
X75735Y138057D01*
X75004Y137496D01*
X74443Y136765D01*
X74090Y135914D01*
X73970Y135000D01*
X74029Y134547D01*
X69521Y130039D01*
X51609D01*
X50442Y131206D01*
X49780Y131648D01*
X49000Y131803D01*
X48220Y131648D01*
X47558Y131206D01*
X47558Y131206D01*
X47250Y130897D01*
X-58071D01*
X-58851Y130742D01*
X-59513Y130300D01*
X-59955Y129639D01*
X-60110Y128858D01*
X-59955Y128078D01*
X-59513Y127416D01*
X-58851Y126974D01*
X-58071Y126819D01*
X48094D01*
X48875Y126974D01*
X48893Y126987D01*
X49322Y126558D01*
X57461Y118419D01*
Y106845D01*
X55703Y105086D01*
X49071D01*
X48945Y105254D01*
X48842Y105565D01*
X51902Y108625D01*
X52123Y108956D01*
X52201Y109346D01*
Y120319D01*
X52123Y120709D01*
X51902Y121040D01*
X50669Y122273D01*
X50714Y122500D01*
X50584Y123156D01*
X50212Y123712D01*
X49656Y124084D01*
X49000Y124214D01*
X48344Y124084D01*
X47788Y123712D01*
X47416Y123156D01*
X47286Y122500D01*
X47416Y121844D01*
X47788Y121288D01*
X48344Y120916D01*
X49000Y120786D01*
X49227Y120831D01*
X50161Y119897D01*
Y112276D01*
X49720Y112040D01*
X49656Y112084D01*
X49000Y112214D01*
X48344Y112084D01*
X47788Y111712D01*
X47416Y111156D01*
X47286Y110500D01*
X47331Y110273D01*
X45899Y108841D01*
X45678Y108510D01*
X45600Y108120D01*
Y107328D01*
X45065Y106793D01*
X44586Y106938D01*
X44571Y107014D01*
X44200Y107570D01*
X43644Y107942D01*
X43098Y108050D01*
X34747Y116401D01*
X34334Y116677D01*
X33846Y116774D01*
X11315D01*
X11266Y117274D01*
X11552Y117331D01*
X12273Y117813D01*
X12755Y118535D01*
X12825Y118886D01*
X8576D01*
X8646Y118535D01*
X9128Y117813D01*
X9850Y117331D01*
X10135Y117274D01*
X10086Y116774D01*
X-8370D01*
X-8419Y117274D01*
X-8133Y117331D01*
X-7412Y117813D01*
X-6930Y118535D01*
X-6860Y118886D01*
X-11109D01*
X-11039Y118535D01*
X-10557Y117813D01*
X-9835Y117331D01*
X-9550Y117274D01*
X-9599Y116774D01*
X-47740D01*
X-47789Y117274D01*
X-47503Y117331D01*
X-46782Y117813D01*
X-46300Y118535D01*
X-46230Y118886D01*
X-50479D01*
X-50409Y118535D01*
X-49927Y117813D01*
X-49205Y117331D01*
X-48920Y117274D01*
X-48969Y116774D01*
X-67425D01*
X-67474Y117274D01*
X-67188Y117331D01*
X-66467Y117813D01*
X-65985Y118535D01*
X-65915Y118886D01*
X-70164D01*
X-70094Y118535D01*
X-69612Y117813D01*
X-68890Y117331D01*
X-68605Y117274D01*
X-68654Y116774D01*
X-77933D01*
X-78421Y116677D01*
X-78834Y116401D01*
X-94043Y101192D01*
X-94589Y101084D01*
X-95145Y100712D01*
X-95517Y100156D01*
X-95647Y99500D01*
X-95517Y98844D01*
X-95145Y98288D01*
X-94589Y97916D01*
X-93933Y97786D01*
X-93277Y97916D01*
X-92721Y98288D01*
X-92349Y98844D01*
X-92241Y99390D01*
X-77405Y114225D01*
X-7542D01*
X-7493Y113725D01*
X-8075Y113610D01*
X-8797Y113128D01*
X-9279Y112406D01*
X-9349Y112055D01*
X-5100D01*
X-5170Y112406D01*
X-5652Y113128D01*
X-6373Y113610D01*
X-6956Y113725D01*
X-6906Y114225D01*
X-318D01*
X-269Y113725D01*
X-851Y113610D01*
X-1572Y113128D01*
X-2055Y112406D01*
X-2124Y112055D01*
X2124D01*
X2055Y112406D01*
X1572Y113128D01*
X851Y113610D01*
X269Y113725D01*
X318Y114225D01*
X6906D01*
X6956Y113725D01*
X6373Y113610D01*
X5652Y113128D01*
X5170Y112406D01*
X5100Y112055D01*
X9349D01*
X9279Y112406D01*
X8797Y113128D01*
X8075Y113610D01*
X7493Y113725D01*
X7542Y114225D01*
X33318D01*
X41296Y106248D01*
X41404Y105702D01*
X41776Y105146D01*
X42332Y104775D01*
X42988Y104644D01*
X43094Y104665D01*
X43480Y104348D01*
Y95379D01*
X43558Y94989D01*
X43779Y94658D01*
X48480Y89956D01*
Y81422D01*
X20578Y53520D01*
X12588D01*
X12198Y53442D01*
X11867Y53221D01*
X-1685Y39669D01*
X-1912Y39714D01*
X-2568Y39584D01*
X-3124Y39212D01*
X-3496Y38656D01*
X-3626Y38000D01*
X-3496Y37344D01*
X-3124Y36788D01*
X-2976Y36689D01*
Y21370D01*
X-3212Y21212D01*
X-3584Y20656D01*
X-3714Y20000D01*
X-3584Y19344D01*
X-3212Y18788D01*
X-3019Y18659D01*
X-3171Y18159D01*
X-23183D01*
Y20933D01*
X-12146Y31970D01*
X-11704Y32632D01*
X-11549Y33412D01*
X-11704Y34192D01*
X-12146Y34854D01*
X-12808Y35296D01*
X-13588Y35451D01*
X-14368Y35296D01*
X-15030Y34854D01*
X-26664Y23220D01*
X-27106Y22558D01*
X-27262Y21778D01*
Y18159D01*
X-183026D01*
Y92679D01*
X-183181Y93459D01*
X-183623Y94121D01*
X-185688Y96186D01*
X-186350Y96628D01*
X-187130Y96783D01*
X-187910Y96628D01*
X-188572Y96186D01*
X-189014Y95525D01*
X-189169Y94744D01*
X-189014Y93964D01*
X-188572Y93302D01*
X-187104Y91834D01*
Y18159D01*
X-190380D01*
X-191160Y18004D01*
X-191822Y17562D01*
X-195804Y13580D01*
X-196246Y12918D01*
X-196401Y12138D01*
Y2582D01*
X-196901Y2315D01*
X-197260Y2555D01*
X-197611Y2624D01*
Y500D01*
Y-1624D01*
X-197260Y-1555D01*
X-196539Y-1072D01*
X-196056Y-351D01*
X-196006Y-96D01*
X-195463Y69D01*
X-187492Y-7903D01*
X-186830Y-8345D01*
X-186050Y-8500D01*
X-181592D01*
Y-9276D01*
X-196775Y-24459D01*
X-212500D01*
X-212883Y-24617D01*
X-213041Y-25000D01*
Y-29827D01*
X-258823D01*
Y140817D01*
X-258323Y140900D01*
X-257760Y139241D01*
X-256818Y137331D01*
X-255635Y135560D01*
X-254230Y133959D01*
X-252629Y132554D01*
X-250858Y131371D01*
X-248948Y130429D01*
X-246931Y129744D01*
X-244842Y129329D01*
X-242717Y129190D01*
X-240591Y129329D01*
X-238502Y129744D01*
X-236485Y130429D01*
X-234575Y131371D01*
X-232804Y132554D01*
X-231203Y133959D01*
X-229799Y135560D01*
X-228615Y137331D01*
X-227673Y139241D01*
X-226989Y141258D01*
X-226573Y143347D01*
X-226434Y145472D01*
X-226573Y147598D01*
X-226989Y149687D01*
X-227673Y151704D01*
X-228615Y153614D01*
X-229799Y155385D01*
X-231203Y156986D01*
X-232804Y158390D01*
X-234575Y159574D01*
X-236485Y160516D01*
X-238502Y161200D01*
X-240591Y161616D01*
X-242717Y161755D01*
X-244842Y161616D01*
X-246931Y161200D01*
X-248948Y160516D01*
X-250858Y159574D01*
X-252629Y158390D01*
X-254230Y156986D01*
X-255635Y155385D01*
X-256818Y153614D01*
X-257760Y151704D01*
X-258323Y150045D01*
X-258823Y150128D01*
Y163350D01*
X-46949D01*
Y149048D01*
X-47224Y148806D01*
X-48383Y148653D01*
X-49462Y148206D01*
X-50389Y147495D01*
X-51100Y146568D01*
X-51547Y145489D01*
X-51700Y144331D01*
X-51547Y143172D01*
X-51100Y142093D01*
X-50389Y141166D01*
X-49462Y140455D01*
X-48383Y140008D01*
X-47224Y139855D01*
X-46949Y139614D01*
Y139500D01*
X57205D01*
X57238Y139000D01*
X56456Y138897D01*
X55483Y138494D01*
X54647Y137853D01*
X54006Y137017D01*
X53603Y136044D01*
X53531Y135500D01*
X57500D01*
X61469D01*
X61397Y136044D01*
X60994Y137017D01*
X60353Y137853D01*
X59517Y138494D01*
X58544Y138897D01*
X57762Y139000D01*
X57795Y139500D01*
X178000D01*
Y163350D01*
X258823D01*
Y150128D01*
D02*
G37*
G36*
X47558Y101605D02*
X48220Y101163D01*
X49000Y101008D01*
X55703D01*
X59725Y96986D01*
Y81000D01*
Y54108D01*
X48655Y43039D01*
X8998D01*
X8791Y43539D01*
X15232Y49980D01*
X21621D01*
X22012Y50058D01*
X22342Y50279D01*
X51721Y79658D01*
X51942Y79988D01*
X52020Y80379D01*
Y91000D01*
X51942Y91390D01*
X51721Y91721D01*
X47020Y96422D01*
Y101511D01*
X47520Y101663D01*
X47558Y101605D01*
D02*
G37*
G36*
X6461Y40502D02*
Y20965D01*
X3655Y18159D01*
X3076D01*
X2924Y18659D01*
X3117Y18788D01*
X3488Y19344D01*
X3619Y20000D01*
X3488Y20656D01*
X3117Y21212D01*
X2924Y21341D01*
Y36723D01*
X3022Y36788D01*
X3393Y37344D01*
X3524Y38000D01*
X3478Y38227D01*
X5961Y40709D01*
X6461Y40502D01*
D02*
G37*
G36*
X226Y37344D02*
X598Y36788D01*
X885Y36596D01*
Y21341D01*
X693Y21212D01*
X321Y20656D01*
X191Y20000D01*
X321Y19344D01*
X693Y18788D01*
X885Y18659D01*
X734Y18159D01*
X-829D01*
X-981Y18659D01*
X-788Y18788D01*
X-416Y19344D01*
X-286Y20000D01*
X-416Y20656D01*
X-788Y21212D01*
X-936Y21311D01*
Y36630D01*
X-700Y36788D01*
X-329Y37344D01*
X-306Y37456D01*
X204D01*
X226Y37344D01*
D02*
G37*
G36*
X45669Y14055D02*
X203490D01*
X203602Y13489D01*
X204044Y12828D01*
X206603Y10270D01*
Y5008D01*
X206192Y4726D01*
X206103Y4740D01*
X205461Y4868D01*
X204805Y4737D01*
X204249Y4366D01*
X203877Y3810D01*
X203747Y3153D01*
X203792Y2927D01*
X199350Y-1515D01*
X194182D01*
X194051Y-1015D01*
X194495Y-351D01*
X194564Y0D01*
X190316D01*
X190386Y-351D01*
X190829Y-1015D01*
X190698Y-1515D01*
X163770D01*
X163641Y-1323D01*
X163085Y-951D01*
X162429Y-821D01*
X161773Y-951D01*
X161217Y-1323D01*
X161089Y-1515D01*
X113911D01*
X113720Y-1053D01*
X116257Y1485D01*
X116484Y1440D01*
X117140Y1570D01*
X117696Y1942D01*
X118068Y2498D01*
X118198Y3153D01*
X118068Y3810D01*
X118025Y3874D01*
X118260Y4315D01*
X134561D01*
X134597Y4279D01*
X134928Y4058D01*
X135318Y3980D01*
X148351D01*
X148400Y3480D01*
X148126Y3426D01*
X147645Y3330D01*
X146924Y2848D01*
X146441Y2127D01*
X146372Y1776D01*
X150620D01*
X150551Y2127D01*
X150069Y2848D01*
X149347Y3330D01*
X148867Y3426D01*
X148592Y3480D01*
X148641Y3980D01*
X160120D01*
X160249Y3788D01*
X160805Y3416D01*
X161461Y3286D01*
X162117Y3416D01*
X162673Y3788D01*
X162801Y3980D01*
X168036D01*
X168086Y3480D01*
X167811Y3426D01*
X167330Y3330D01*
X166609Y2848D01*
X166127Y2127D01*
X166057Y1776D01*
X170306D01*
X170236Y2127D01*
X169754Y2848D01*
X169032Y3330D01*
X168552Y3426D01*
X168277Y3480D01*
X168326Y3980D01*
X197999D01*
X198681Y3298D01*
X198652Y3153D01*
X198783Y2498D01*
X199154Y1942D01*
X199710Y1570D01*
X200366Y1440D01*
X201022Y1570D01*
X201578Y1942D01*
X201950Y2498D01*
X202080Y3153D01*
X201950Y3810D01*
X201578Y4366D01*
X201022Y4737D01*
X200366Y4868D01*
X200057Y4806D01*
X199142Y5721D01*
X198811Y5942D01*
X198421Y6020D01*
X162801D01*
X162673Y6212D01*
X162117Y6584D01*
X161461Y6714D01*
X160805Y6584D01*
X160249Y6212D01*
X160120Y6020D01*
X135740D01*
X135704Y6056D01*
X135373Y6277D01*
X134983Y6354D01*
X-659D01*
X-788Y6547D01*
X-1344Y6918D01*
X-2000Y7049D01*
X-2656Y6918D01*
X-3212Y6547D01*
X-3341Y6354D01*
X-99028D01*
X-99028Y6354D01*
X-188004D01*
X-188394Y6277D01*
X-188725Y6056D01*
X-189958Y4822D01*
X-190185Y4868D01*
X-190841Y4737D01*
X-191397Y4366D01*
X-191769Y3810D01*
X-191823Y3537D01*
X-192323Y3587D01*
Y11293D01*
X-189535Y14081D01*
X45541D01*
X45669Y14055D01*
D02*
G37*
G36*
X-186631Y3874D02*
X-186674Y3810D01*
X-186805Y3153D01*
X-186674Y2498D01*
X-186302Y1942D01*
X-185747Y1570D01*
X-185091Y1440D01*
X-184864Y1485D01*
X-180158Y-3221D01*
X-179827Y-3442D01*
X-179437Y-3520D01*
X-1568D01*
X-1178Y-3442D01*
X-847Y-3221D01*
X1678Y-697D01*
X1905Y-742D01*
X2132Y-697D01*
X4656Y-3221D01*
X4987Y-3442D01*
X5377Y-3520D01*
X110691D01*
X110865Y-3554D01*
X161089D01*
X161217Y-3747D01*
X161773Y-4118D01*
X162429Y-4249D01*
X163085Y-4118D01*
X163641Y-3747D01*
X163770Y-3554D01*
X199661D01*
X199831Y-3823D01*
X199879Y-4043D01*
X174095Y-29827D01*
X166000D01*
Y-37922D01*
X154987Y-48935D01*
X154545Y-49596D01*
X154390Y-50377D01*
Y-117487D01*
X153890Y-117612D01*
X153551Y-116979D01*
X152505Y-115704D01*
X151230Y-114657D01*
X149775Y-113880D01*
X148197Y-113401D01*
X146555Y-113239D01*
X144913Y-113401D01*
X143335Y-113880D01*
X141880Y-114657D01*
X140605Y-115704D01*
X139559Y-116979D01*
X138781Y-118433D01*
X138302Y-120012D01*
X138141Y-121653D01*
X138302Y-123295D01*
X138781Y-124874D01*
X139559Y-126328D01*
X140605Y-127603D01*
X141880Y-128650D01*
X143335Y-129428D01*
X144913Y-129906D01*
X145079Y-129923D01*
X145120Y-130429D01*
X145000Y-130461D01*
X144220Y-130616D01*
X143558Y-131058D01*
X143558Y-131058D01*
X141605Y-133011D01*
X141163Y-133672D01*
X141008Y-134453D01*
Y-135218D01*
X140508Y-135369D01*
X140226Y-134947D01*
X139505Y-134465D01*
X139154Y-134395D01*
Y-136520D01*
X138154D01*
Y-134395D01*
X137803Y-134465D01*
X137520Y-134654D01*
X137020Y-134387D01*
Y-107000D01*
X136942Y-106610D01*
X136721Y-106279D01*
X135500Y-105058D01*
X135500Y-55541D01*
X135648D01*
X136031Y-55383D01*
X136190Y-55000D01*
Y-19548D01*
X136690Y-19396D01*
X137081Y-19982D01*
X137803Y-20464D01*
X138154Y-20534D01*
Y-18409D01*
Y-16285D01*
X137803Y-16355D01*
X137081Y-16837D01*
X136690Y-17423D01*
X136190Y-17271D01*
Y-5000D01*
X136031Y-4617D01*
X135648Y-4459D01*
X120648D01*
X120266Y-4617D01*
X120107Y-5000D01*
Y-9276D01*
X104924Y-24459D01*
X89200D01*
X88817Y-24617D01*
X88658Y-25000D01*
Y-29827D01*
X65261Y-29827D01*
Y-5000D01*
X65103Y-4617D01*
X64720Y-4459D01*
X49720D01*
X49337Y-4617D01*
X49179Y-5000D01*
Y-9276D01*
X33996Y-24459D01*
X18271D01*
X17888Y-24617D01*
X17730Y-25000D01*
Y-29827D01*
X-5605D01*
Y-5000D01*
X-5764Y-4617D01*
X-6146Y-4459D01*
X-21146D01*
X-21529Y-4617D01*
X-21688Y-5000D01*
Y-9276D01*
X-36871Y-24459D01*
X-52595D01*
X-52978Y-24617D01*
X-53136Y-25000D01*
Y-29827D01*
X-76409D01*
Y-5000D01*
X-76567Y-4617D01*
X-76950Y-4459D01*
X-91950D01*
X-92333Y-4617D01*
X-92491Y-5000D01*
Y-9276D01*
X-107674Y-24459D01*
X-123399D01*
X-123782Y-24617D01*
X-123940Y-25000D01*
Y-29827D01*
X-135500D01*
Y-55586D01*
X-135941Y-55822D01*
X-136086Y-55725D01*
X-136437Y-55655D01*
Y-57780D01*
Y-59904D01*
X-136086Y-59834D01*
X-135941Y-59737D01*
X-135500Y-59973D01*
Y-94956D01*
X-135941Y-95192D01*
X-136086Y-95095D01*
X-136437Y-95025D01*
Y-97150D01*
X-136937D01*
Y-97650D01*
X-139061D01*
X-138996Y-97980D01*
X-138987Y-98069D01*
X-139250Y-98480D01*
X-145500D01*
X-145890Y-98558D01*
X-146221Y-98779D01*
X-156461Y-109019D01*
X-156961Y-108812D01*
Y-23438D01*
X-157116Y-22658D01*
X-157558Y-21996D01*
X-165819Y-13736D01*
X-165668Y-13233D01*
X-165627Y-13133D01*
X-165551Y-13057D01*
Y-12949D01*
X-165510Y-12850D01*
Y-5000D01*
X-165668Y-4617D01*
X-166051Y-4459D01*
X-173847D01*
X-173947Y-4500D01*
X-174055D01*
X-174131Y-4576D01*
X-174230Y-4617D01*
X-174237Y-4634D01*
X-174543Y-4790D01*
X-174885Y-4785D01*
X-175197Y-4577D01*
X-175978Y-4422D01*
X-185205D01*
X-190649Y1022D01*
X-190402Y1483D01*
X-190185Y1440D01*
X-189529Y1570D01*
X-188973Y1942D01*
X-188602Y2498D01*
X-188471Y3153D01*
X-188516Y3381D01*
X-187582Y4315D01*
X-186867D01*
X-186631Y3874D01*
D02*
G37*
G36*
X114944Y3874D02*
X114901Y3810D01*
X114770Y3153D01*
X114815Y2927D01*
X110408Y-1480D01*
X105257D01*
X105098Y-980D01*
X105518Y-351D01*
X105588Y0D01*
X101339D01*
X101409Y-351D01*
X101830Y-980D01*
X101670Y-1480D01*
X76995D01*
X76843Y-980D01*
X77073Y-827D01*
X77555Y-106D01*
X77624Y246D01*
X73376D01*
X73445Y-106D01*
X73927Y-827D01*
X74157Y-980D01*
X74005Y-1480D01*
X43079D01*
X42888Y-1018D01*
X45391Y1485D01*
X45618Y1440D01*
X46274Y1570D01*
X46830Y1942D01*
X47202Y2498D01*
X47332Y3153D01*
X47202Y3810D01*
X47159Y3874D01*
X47394Y4315D01*
X108786D01*
X109721Y3381D01*
X109676Y3153D01*
X109806Y2498D01*
X110178Y1942D01*
X110734Y1570D01*
X111390Y1440D01*
X112046Y1570D01*
X112602Y1942D01*
X112973Y2498D01*
X113104Y3153D01*
X112973Y3810D01*
X112930Y3874D01*
X113166Y4315D01*
X114708D01*
X114944Y3874D01*
D02*
G37*
G36*
X44078D02*
X44035Y3810D01*
X43904Y3153D01*
X43949Y2927D01*
X39542Y-1480D01*
X34391D01*
X34232Y-980D01*
X34652Y-351D01*
X34722Y0D01*
X30473D01*
X30543Y-351D01*
X30964Y-980D01*
X30804Y-1480D01*
X12695D01*
X12544Y-980D01*
X12773Y-827D01*
X13255Y-106D01*
X13325Y246D01*
X9076D01*
X9146Y-106D01*
X9628Y-827D01*
X9858Y-980D01*
X9706Y-1480D01*
X5799D01*
X3574Y746D01*
X3619Y972D01*
X3488Y1628D01*
X3117Y2184D01*
X2561Y2556D01*
X1905Y2686D01*
X1249Y2556D01*
X693Y2184D01*
X321Y1628D01*
X191Y972D01*
X236Y746D01*
X-1990Y-1480D01*
X-27492D01*
X-27684Y-1018D01*
X-25220Y1445D01*
X-24592Y1570D01*
X-24036Y1942D01*
X-23664Y2498D01*
X-23534Y3153D01*
X-23664Y3810D01*
X-23708Y3874D01*
X-23472Y4315D01*
X-3341D01*
X-3212Y4123D01*
X-2656Y3751D01*
X-2000Y3621D01*
X-1344Y3751D01*
X-788Y4123D01*
X-659Y4315D01*
X37920D01*
X38855Y3381D01*
X38810Y3153D01*
X38940Y2498D01*
X39312Y1942D01*
X39868Y1570D01*
X40524Y1440D01*
X41180Y1570D01*
X41736Y1942D01*
X42107Y2498D01*
X42238Y3153D01*
X42107Y3810D01*
X42064Y3874D01*
X42300Y4315D01*
X43842D01*
X44078Y3874D01*
D02*
G37*
G36*
X-26788D02*
X-26832Y3810D01*
X-26962Y3153D01*
X-26868Y2681D01*
X-31029Y-1480D01*
X-36475D01*
X-36634Y-980D01*
X-36214Y-351D01*
X-36144Y0D01*
X-40393D01*
X-40323Y-351D01*
X-39902Y-980D01*
X-40062Y-1480D01*
X-62707D01*
X-62866Y-980D01*
X-62445Y-351D01*
X-62376Y0D01*
X-64500D01*
Y500D01*
X-65000D01*
Y2624D01*
X-65351Y2555D01*
X-65987Y2130D01*
X-66467Y2848D01*
X-67188Y3330D01*
X-67539Y3400D01*
Y1276D01*
Y-849D01*
X-67188Y-779D01*
X-66553Y-354D01*
X-66134Y-980D01*
X-66294Y-1480D01*
X-98653D01*
X-98844Y-1018D01*
X-96341Y1485D01*
X-96114Y1440D01*
X-95458Y1570D01*
X-94902Y1942D01*
X-94531Y2498D01*
X-94400Y3153D01*
X-94531Y3810D01*
X-94574Y3874D01*
X-94338Y4315D01*
X-32119D01*
X-31883Y3874D01*
X-31926Y3810D01*
X-32057Y3153D01*
X-31926Y2498D01*
X-31554Y1942D01*
X-30999Y1570D01*
X-30343Y1440D01*
X-29687Y1570D01*
X-29131Y1942D01*
X-28759Y2498D01*
X-28629Y3153D01*
X-28674Y3381D01*
X-27739Y4315D01*
X-27024D01*
X-26788Y3874D01*
D02*
G37*
G36*
X-102749Y3874D02*
X-102792Y3810D01*
X-102923Y3153D01*
X-102792Y2498D01*
X-102421Y1942D01*
X-101865Y1570D01*
X-101209Y1440D01*
X-100553Y1570D01*
X-99997Y1942D01*
X-99625Y2498D01*
X-99495Y3153D01*
X-99540Y3381D01*
X-98605Y4315D01*
X-97890D01*
X-97655Y3874D01*
X-97698Y3810D01*
X-97828Y3153D01*
X-97783Y2927D01*
X-102190Y-1480D01*
X-107341D01*
X-107501Y-980D01*
X-107080Y-351D01*
X-107010Y0D01*
X-111259D01*
X-111189Y-351D01*
X-110769Y-980D01*
X-110928Y-1480D01*
X-179015D01*
X-183422Y2927D01*
X-183377Y3153D01*
X-183507Y3810D01*
X-183550Y3874D01*
X-183315Y4315D01*
X-102985D01*
X-102749Y3874D01*
D02*
G37*
G36*
X-166051Y-12850D02*
X-166513Y-13041D01*
X-174055Y-5500D01*
X-173847Y-5000D01*
X-166051D01*
Y-12850D01*
D02*
G37*
G36*
X224500Y-55000D02*
X178051D01*
Y-31639D01*
X184690Y-25000D01*
X194000D01*
X197619Y-21381D01*
X197709Y-21399D01*
X198365Y-21269D01*
X198921Y-20897D01*
X199292Y-20341D01*
X199423Y-19685D01*
X199405Y-19595D01*
X209500Y-9500D01*
Y-5000D01*
X224500D01*
Y-55000D01*
D02*
G37*
G36*
X135648D02*
X89200D01*
Y-25000D01*
X105148D01*
X120648Y-9500D01*
Y-5000D01*
X135648D01*
Y-55000D01*
D02*
G37*
G36*
X64720D02*
X18271D01*
Y-25000D01*
X34220D01*
X49720Y-9500D01*
Y-5000D01*
X64720D01*
Y-55000D01*
D02*
G37*
G36*
X-6146D02*
X-52595D01*
Y-25000D01*
X-36646D01*
X-21146Y-9500D01*
Y-5000D01*
X-6146D01*
Y-55000D01*
D02*
G37*
G36*
X-76950D02*
X-123399D01*
Y-25000D01*
X-107450D01*
X-91950Y-9500D01*
Y-5000D01*
X-76950D01*
Y-55000D01*
D02*
G37*
G36*
X-179391Y-9000D02*
X-179420Y-9142D01*
X-177295D01*
Y-9642D01*
X-176795D01*
Y-11766D01*
X-176444Y-11696D01*
X-175723Y-11214D01*
X-175359Y-10670D01*
X-174780Y-10543D01*
X-166051Y-19271D01*
Y-55000D01*
X-212500D01*
Y-25000D01*
X-196551D01*
X-181051Y-9500D01*
Y-8500D01*
X-179711D01*
X-179391Y-9000D01*
D02*
G37*
G36*
X-161039Y-24283D02*
Y-138000D01*
Y-141619D01*
X-161829Y-141723D01*
X-162741Y-142100D01*
X-163523Y-142701D01*
X-164124Y-143484D01*
X-164502Y-144396D01*
X-164631Y-145374D01*
X-164502Y-146352D01*
X-164124Y-147264D01*
X-163523Y-148047D01*
X-162741Y-148648D01*
X-161829Y-149026D01*
X-160850Y-149154D01*
X-159872Y-149026D01*
X-158960Y-148648D01*
X-158177Y-148047D01*
X-157577Y-147264D01*
X-157199Y-146352D01*
X-157070Y-145374D01*
X-157199Y-144396D01*
X-157432Y-143832D01*
X-157116Y-143358D01*
X-156961Y-142578D01*
X-156961Y-142578D01*
Y-138000D01*
Y-135889D01*
X-156461Y-135682D01*
X-154972Y-137170D01*
Y-140272D01*
X-154114D01*
Y-141643D01*
X-154036Y-142033D01*
X-153815Y-142364D01*
X-153521Y-142658D01*
X-153524Y-142701D01*
X-154124Y-143484D01*
X-154502Y-144396D01*
X-154631Y-145374D01*
X-154502Y-146352D01*
X-154124Y-147264D01*
X-153524Y-148047D01*
X-152741Y-148648D01*
X-151829Y-149026D01*
X-150850Y-149154D01*
X-149872Y-149026D01*
X-148960Y-148648D01*
X-148177Y-148047D01*
X-147576Y-147264D01*
X-147199Y-146352D01*
X-147070Y-145374D01*
X-147199Y-144396D01*
X-147576Y-143484D01*
X-148177Y-142701D01*
X-148960Y-142100D01*
X-149872Y-141723D01*
X-150850Y-141594D01*
X-151603Y-141693D01*
X-152075Y-141220D01*
Y-140272D01*
X-151216D01*
Y-135728D01*
X-153531D01*
X-154980Y-134279D01*
Y-124449D01*
X-154480Y-124375D01*
X-154329Y-124874D01*
X-153551Y-126328D01*
X-152505Y-127603D01*
X-151230Y-128650D01*
X-149775Y-129428D01*
X-148197Y-129906D01*
X-146555Y-130068D01*
X-144913Y-129906D01*
X-143335Y-129428D01*
X-141880Y-128650D01*
X-140605Y-127603D01*
X-139559Y-126328D01*
X-138781Y-124874D01*
X-138302Y-123295D01*
X-138141Y-121653D01*
X-138302Y-120012D01*
X-138781Y-118433D01*
X-139559Y-116979D01*
X-140605Y-115704D01*
X-141880Y-114657D01*
X-143335Y-113880D01*
X-144913Y-113401D01*
X-146555Y-113239D01*
X-148197Y-113401D01*
X-149775Y-113880D01*
X-151230Y-114657D01*
X-152505Y-115704D01*
X-153551Y-116979D01*
X-154329Y-118433D01*
X-154480Y-118932D01*
X-154980Y-118858D01*
Y-110422D01*
X-145078Y-100520D01*
X-135500D01*
Y-134326D01*
X-135941Y-134562D01*
X-136086Y-134465D01*
X-136437Y-134395D01*
Y-136520D01*
Y-138644D01*
X-136086Y-138574D01*
X-135941Y-138477D01*
X-135500Y-138713D01*
Y-163350D01*
X-166051D01*
Y-55541D01*
X-165668Y-55383D01*
X-165510Y-55000D01*
Y-20465D01*
X-165048Y-20274D01*
X-161039Y-24283D01*
D02*
G37*
G36*
X166000Y-44343D02*
Y-163350D01*
X135500D01*
Y-149595D01*
X135962Y-149404D01*
X139279Y-152721D01*
X139610Y-152942D01*
X140000Y-153020D01*
X147914D01*
X148304Y-152942D01*
X148635Y-152721D01*
X150520Y-150836D01*
X150741Y-150506D01*
X150818Y-150115D01*
Y-149182D01*
X150850Y-149154D01*
X151829Y-149026D01*
X152741Y-148648D01*
X153524Y-148047D01*
X154124Y-147264D01*
X154502Y-146352D01*
X154631Y-145374D01*
X154502Y-144396D01*
X154124Y-143484D01*
X153524Y-142701D01*
X152741Y-142100D01*
X151829Y-141723D01*
X150850Y-141594D01*
X150850Y-141594D01*
Y-138878D01*
X150831Y-138779D01*
Y-137099D01*
X150850Y-137000D01*
X150831Y-136901D01*
Y-135728D01*
X147075D01*
Y-140272D01*
X148811D01*
Y-142215D01*
X148177Y-142701D01*
X147576Y-143484D01*
X147199Y-144396D01*
X147070Y-145374D01*
X147199Y-146352D01*
X147576Y-147264D01*
X148177Y-148047D01*
X148779Y-148509D01*
Y-149693D01*
X147492Y-150980D01*
X140422D01*
X137928Y-148486D01*
X138259Y-148109D01*
X138960Y-148648D01*
X139872Y-149026D01*
X140850Y-149154D01*
X141829Y-149026D01*
X142741Y-148648D01*
X143524Y-148047D01*
X144124Y-147264D01*
X144502Y-146352D01*
X144631Y-145374D01*
X144502Y-144396D01*
X144287Y-143876D01*
X144489Y-143673D01*
X144931Y-143011D01*
X145086Y-142231D01*
Y-138000D01*
Y-135297D01*
X145845Y-134539D01*
X152000D01*
X152780Y-134384D01*
X153442Y-133942D01*
X157871Y-129513D01*
X158313Y-128851D01*
X158468Y-128071D01*
Y-51221D01*
X165538Y-44152D01*
X166000Y-44343D01*
D02*
G37*
G36*
X222852Y-163350D02*
X167852D01*
Y-106000D01*
X222852D01*
Y-163350D01*
D02*
G37*
G36*
X134000Y-106442D02*
Y-163350D01*
X79000D01*
Y-106000D01*
X133558D01*
X134000Y-106442D01*
D02*
G37*
G36*
X63072Y-163350D02*
X8072D01*
Y-106000D01*
X63072D01*
Y-163350D01*
D02*
G37*
G36*
X-7795D02*
X-62795D01*
Y-106000D01*
X-7795D01*
Y-163350D01*
D02*
G37*
G36*
X-78598D02*
X-133598D01*
Y-106000D01*
X-78598D01*
Y-163350D01*
D02*
G37*
G36*
X-167700D02*
X-222700D01*
Y-106000D01*
X-167700D01*
Y-163350D01*
D02*
G37*
%LPC*%
G36*
X-51665Y158154D02*
Y154634D01*
X-48145D01*
X-48218Y155191D01*
X-48627Y156177D01*
X-49276Y157023D01*
X-50122Y157673D01*
X-51108Y158081D01*
X-51665Y158154D01*
D02*
G37*
G36*
X-52665Y158154D02*
X-53223Y158081D01*
X-54208Y157673D01*
X-55055Y157023D01*
X-55704Y156177D01*
X-56112Y155191D01*
X-56186Y154634D01*
X-52665D01*
Y158154D01*
D02*
G37*
G36*
X-69882Y157716D02*
X-70809Y157594D01*
X-71673Y157236D01*
X-72415Y156667D01*
X-72984Y155925D01*
X-73342Y155061D01*
X-73464Y154134D01*
X-73342Y153207D01*
X-72984Y152343D01*
X-72415Y151601D01*
X-71673Y151032D01*
X-70809Y150674D01*
X-69882Y150552D01*
X-68955Y150674D01*
X-68091Y151032D01*
X-67349Y151601D01*
X-66780Y152343D01*
X-66422Y153207D01*
X-66300Y154134D01*
X-66422Y155061D01*
X-66780Y155925D01*
X-67349Y156667D01*
X-68091Y157236D01*
X-68955Y157594D01*
X-69882Y157716D01*
D02*
G37*
G36*
X-52665Y153634D02*
X-56186D01*
X-56112Y153076D01*
X-55704Y152091D01*
X-55055Y151244D01*
X-54208Y150595D01*
X-53223Y150187D01*
X-52665Y150113D01*
Y153634D01*
D02*
G37*
G36*
X-48145D02*
X-51665D01*
Y150113D01*
X-51108Y150187D01*
X-50122Y150595D01*
X-49276Y151244D01*
X-48627Y152091D01*
X-48218Y153076D01*
X-48145Y153634D01*
D02*
G37*
G36*
X185366Y150612D02*
X184822Y150540D01*
X183849Y150137D01*
X183013Y149496D01*
X182372Y148661D01*
X181969Y147688D01*
X181897Y147143D01*
X185366D01*
Y150612D01*
D02*
G37*
G36*
X201614Y150174D02*
X200700Y150053D01*
X199849Y149701D01*
X199118Y149140D01*
X198557Y148408D01*
X198204Y147557D01*
X198084Y146643D01*
X198204Y145730D01*
X198557Y144878D01*
X199118Y144147D01*
X199849Y143586D01*
X200700Y143234D01*
X201614Y143113D01*
X202528Y143234D01*
X203379Y143586D01*
X204110Y144147D01*
X204671Y144878D01*
X205024Y145730D01*
X205144Y146643D01*
X205024Y147557D01*
X204671Y148408D01*
X204110Y149140D01*
X203379Y149701D01*
X202528Y150053D01*
X201614Y150174D01*
D02*
G37*
G36*
X186366Y150612D02*
Y146643D01*
Y142675D01*
X186910Y142746D01*
X187883Y143149D01*
X188719Y143790D01*
X189360Y144626D01*
X189763Y145599D01*
X189803Y145903D01*
X190307D01*
X190330Y145730D01*
X190683Y144878D01*
X191244Y144147D01*
X191975Y143586D01*
X192826Y143234D01*
X193740Y143113D01*
X194654Y143234D01*
X195505Y143586D01*
X196236Y144147D01*
X196797Y144878D01*
X197150Y145730D01*
X197270Y146643D01*
X197150Y147557D01*
X196797Y148408D01*
X196236Y149140D01*
X195505Y149701D01*
X194654Y150053D01*
X193740Y150174D01*
X192826Y150053D01*
X191975Y149701D01*
X191244Y149140D01*
X190683Y148408D01*
X190330Y147557D01*
X190307Y147384D01*
X189803D01*
X189763Y147688D01*
X189360Y148661D01*
X188719Y149496D01*
X187883Y150137D01*
X186910Y150540D01*
X186366Y150612D01*
D02*
G37*
G36*
X185366Y146143D02*
X181897D01*
X181969Y145599D01*
X182372Y144626D01*
X183013Y143790D01*
X183849Y143149D01*
X184822Y142746D01*
X185366Y142675D01*
Y146143D01*
D02*
G37*
G36*
X-74823Y148806D02*
X-75981Y148653D01*
X-77061Y148206D01*
X-77987Y147495D01*
X-78699Y146568D01*
X-79146Y145489D01*
X-79298Y144331D01*
X-79146Y143172D01*
X-78699Y142093D01*
X-78347Y141635D01*
X-78523Y141167D01*
X-78733Y141125D01*
X-79454Y140643D01*
X-79936Y139922D01*
X-80006Y139571D01*
X-75645D01*
X-75317Y139920D01*
X-74823Y139855D01*
X-73664Y140008D01*
X-72585Y140455D01*
X-71658Y141166D01*
X-70947Y142093D01*
X-70500Y143172D01*
X-70347Y144331D01*
X-70500Y145489D01*
X-70947Y146568D01*
X-71658Y147495D01*
X-72585Y148206D01*
X-73664Y148653D01*
X-74823Y148806D01*
D02*
G37*
G36*
X217894Y141195D02*
Y139571D01*
X219518D01*
X219448Y139922D01*
X218966Y140643D01*
X218245Y141125D01*
X217894Y141195D01*
D02*
G37*
G36*
X216894D02*
X216543Y141125D01*
X215821Y140643D01*
X215339Y139922D01*
X215269Y139571D01*
X216894D01*
Y141195D01*
D02*
G37*
G36*
X198209D02*
Y139571D01*
X199833D01*
X199763Y139922D01*
X199281Y140643D01*
X198560Y141125D01*
X198209Y141195D01*
D02*
G37*
G36*
X197209D02*
X196858Y141125D01*
X196136Y140643D01*
X195654Y139922D01*
X195584Y139571D01*
X197209D01*
Y141195D01*
D02*
G37*
G36*
X-57697D02*
Y139571D01*
X-56072D01*
X-56142Y139922D01*
X-56624Y140643D01*
X-57346Y141125D01*
X-57697Y141195D01*
D02*
G37*
G36*
X-58697D02*
X-59048Y141125D01*
X-59769Y140643D01*
X-60251Y139922D01*
X-60321Y139571D01*
X-58697D01*
Y141195D01*
D02*
G37*
G36*
X-136437D02*
Y139571D01*
X-134813D01*
X-134882Y139922D01*
X-135364Y140643D01*
X-136086Y141125D01*
X-136437Y141195D01*
D02*
G37*
G36*
X-137437D02*
X-137788Y141125D01*
X-138510Y140643D01*
X-138992Y139922D01*
X-139061Y139571D01*
X-137437D01*
Y141195D01*
D02*
G37*
G36*
X-156122D02*
Y139571D01*
X-154498D01*
X-154568Y139922D01*
X-155050Y140643D01*
X-155771Y141125D01*
X-156122Y141195D01*
D02*
G37*
G36*
X-157122D02*
X-157473Y141125D01*
X-158194Y140643D01*
X-158677Y139922D01*
X-158746Y139571D01*
X-157122D01*
Y141195D01*
D02*
G37*
G36*
X-175807D02*
Y139571D01*
X-174183D01*
X-174252Y139922D01*
X-174735Y140643D01*
X-175456Y141125D01*
X-175807Y141195D01*
D02*
G37*
G36*
X-176807D02*
X-177158Y141125D01*
X-177880Y140643D01*
X-178362Y139922D01*
X-178431Y139571D01*
X-176807D01*
Y141195D01*
D02*
G37*
G36*
X-195492D02*
Y139571D01*
X-193868D01*
X-193938Y139922D01*
X-194420Y140643D01*
X-195141Y141125D01*
X-195492Y141195D01*
D02*
G37*
G36*
X-196492D02*
X-196843Y141125D01*
X-197565Y140643D01*
X-198047Y139922D01*
X-198117Y139571D01*
X-196492D01*
Y141195D01*
D02*
G37*
G36*
X-215177D02*
Y139571D01*
X-213553D01*
X-213623Y139922D01*
X-214105Y140643D01*
X-214826Y141125D01*
X-215177Y141195D01*
D02*
G37*
G36*
X-216177D02*
X-216528Y141125D01*
X-217250Y140643D01*
X-217732Y139922D01*
X-217801Y139571D01*
X-216177D01*
Y141195D01*
D02*
G37*
G36*
X219518Y138571D02*
X217894D01*
Y136946D01*
X218245Y137016D01*
X218966Y137498D01*
X219448Y138220D01*
X219518Y138571D01*
D02*
G37*
G36*
X216894D02*
X215269D01*
X215339Y138220D01*
X215821Y137498D01*
X216543Y137016D01*
X216894Y136946D01*
Y138571D01*
D02*
G37*
G36*
X199833D02*
X198209D01*
Y136946D01*
X198560Y137016D01*
X199281Y137498D01*
X199763Y138220D01*
X199833Y138571D01*
D02*
G37*
G36*
X197209D02*
X195584D01*
X195654Y138220D01*
X196136Y137498D01*
X196858Y137016D01*
X197209Y136946D01*
Y138571D01*
D02*
G37*
G36*
X-56072D02*
X-57697D01*
Y136946D01*
X-57346Y137016D01*
X-56624Y137498D01*
X-56142Y138220D01*
X-56072Y138571D01*
D02*
G37*
G36*
X-58697D02*
X-60321D01*
X-60251Y138220D01*
X-59769Y137498D01*
X-59048Y137016D01*
X-58697Y136946D01*
Y138571D01*
D02*
G37*
G36*
X-75757D02*
X-77382D01*
Y136946D01*
X-77031Y137016D01*
X-76309Y137498D01*
X-75827Y138220D01*
X-75757Y138571D01*
D02*
G37*
G36*
X-78382D02*
X-80006D01*
X-79936Y138220D01*
X-79454Y137498D01*
X-78733Y137016D01*
X-78382Y136946D01*
Y138571D01*
D02*
G37*
G36*
X-134813D02*
X-136437D01*
Y136946D01*
X-136086Y137016D01*
X-135364Y137498D01*
X-134882Y138220D01*
X-134813Y138571D01*
D02*
G37*
G36*
X-137437D02*
X-139061D01*
X-138992Y138220D01*
X-138510Y137498D01*
X-137788Y137016D01*
X-137437Y136946D01*
Y138571D01*
D02*
G37*
G36*
X-154498D02*
X-156122D01*
Y136946D01*
X-155771Y137016D01*
X-155050Y137498D01*
X-154568Y138220D01*
X-154498Y138571D01*
D02*
G37*
G36*
X-157122D02*
X-158746D01*
X-158677Y138220D01*
X-158194Y137498D01*
X-157473Y137016D01*
X-157122Y136946D01*
Y138571D01*
D02*
G37*
G36*
X-174183D02*
X-175807D01*
Y136946D01*
X-175456Y137016D01*
X-174735Y137498D01*
X-174252Y138220D01*
X-174183Y138571D01*
D02*
G37*
G36*
X-176807D02*
X-178431D01*
X-178362Y138220D01*
X-177880Y137498D01*
X-177158Y137016D01*
X-176807Y136946D01*
Y138571D01*
D02*
G37*
G36*
X-193868D02*
X-195492D01*
Y136946D01*
X-195141Y137016D01*
X-194420Y137498D01*
X-193938Y138220D01*
X-193868Y138571D01*
D02*
G37*
G36*
X-196492D02*
X-198117D01*
X-198047Y138220D01*
X-197565Y137498D01*
X-196843Y137016D01*
X-196492Y136946D01*
Y138571D01*
D02*
G37*
G36*
X-213553D02*
X-215177D01*
Y136946D01*
X-214826Y137016D01*
X-214105Y137498D01*
X-213623Y138220D01*
X-213553Y138571D01*
D02*
G37*
G36*
X-216177D02*
X-217801D01*
X-217732Y138220D01*
X-217250Y137498D01*
X-216528Y137016D01*
X-216177Y136946D01*
Y138571D01*
D02*
G37*
G36*
X111000Y138500D02*
X104000D01*
Y131500D01*
X111000D01*
Y138500D01*
D02*
G37*
G36*
X67500Y138530D02*
X66586Y138410D01*
X65735Y138057D01*
X65004Y137496D01*
X64443Y136765D01*
X64090Y135914D01*
X63970Y135000D01*
X64090Y134086D01*
X64443Y133235D01*
X65004Y132504D01*
X65735Y131943D01*
X66586Y131590D01*
X67500Y131470D01*
X68414Y131590D01*
X69265Y131943D01*
X69996Y132504D01*
X70557Y133235D01*
X70910Y134086D01*
X71030Y135000D01*
X70910Y135914D01*
X70557Y136765D01*
X69996Y137496D01*
X69265Y138057D01*
X68414Y138410D01*
X67500Y138530D01*
D02*
G37*
G36*
X61469Y134500D02*
X58000D01*
Y131031D01*
X58544Y131103D01*
X59517Y131506D01*
X60353Y132147D01*
X60994Y132983D01*
X61397Y133956D01*
X61469Y134500D01*
D02*
G37*
G36*
X57000D02*
X53531D01*
X53603Y133956D01*
X54006Y132983D01*
X54647Y132147D01*
X55483Y131506D01*
X56456Y131103D01*
X57000Y131031D01*
Y134500D01*
D02*
G37*
G36*
X-204590Y130312D02*
Y124516D01*
X-198794D01*
X-198867Y125254D01*
X-199228Y126444D01*
X-199814Y127541D01*
X-200603Y128503D01*
X-201565Y129292D01*
X-202662Y129878D01*
X-203852Y130239D01*
X-204590Y130312D01*
D02*
G37*
G36*
X-205590D02*
X-206328Y130239D01*
X-207519Y129878D01*
X-208616Y129292D01*
X-209577Y128503D01*
X-210366Y127541D01*
X-210953Y126444D01*
X-211314Y125254D01*
X-211386Y124516D01*
X-205590D01*
Y130312D01*
D02*
G37*
G36*
X247421Y121510D02*
Y119886D01*
X249046D01*
X248976Y120237D01*
X248494Y120958D01*
X247772Y121440D01*
X247421Y121510D01*
D02*
G37*
G36*
X246421D02*
X246070Y121440D01*
X245349Y120958D01*
X244867Y120237D01*
X244797Y119886D01*
X246421D01*
Y121510D01*
D02*
G37*
G36*
X227736D02*
Y119886D01*
X229361D01*
X229291Y120237D01*
X228809Y120958D01*
X228087Y121440D01*
X227736Y121510D01*
D02*
G37*
G36*
X226736D02*
X226385Y121440D01*
X225664Y120958D01*
X225182Y120237D01*
X225112Y119886D01*
X226736D01*
Y121510D01*
D02*
G37*
G36*
X188366D02*
Y119886D01*
X189990D01*
X189921Y120237D01*
X189439Y120958D01*
X188717Y121440D01*
X188366Y121510D01*
D02*
G37*
G36*
X187366D02*
X187015Y121440D01*
X186294Y120958D01*
X185812Y120237D01*
X185742Y119886D01*
X187366D01*
Y121510D01*
D02*
G37*
G36*
X168681D02*
Y119886D01*
X170306D01*
X170236Y120237D01*
X169754Y120958D01*
X169032Y121440D01*
X168681Y121510D01*
D02*
G37*
G36*
X167681D02*
X167330Y121440D01*
X166609Y120958D01*
X166127Y120237D01*
X166057Y119886D01*
X167681D01*
Y121510D01*
D02*
G37*
G36*
X129311D02*
Y119886D01*
X130935D01*
X130866Y120237D01*
X130384Y120958D01*
X129662Y121440D01*
X129311Y121510D01*
D02*
G37*
G36*
X128311D02*
X127960Y121440D01*
X127239Y120958D01*
X126757Y120237D01*
X126687Y119886D01*
X128311D01*
Y121510D01*
D02*
G37*
G36*
X109626D02*
Y119886D01*
X111250D01*
X111180Y120237D01*
X110698Y120958D01*
X109977Y121440D01*
X109626Y121510D01*
D02*
G37*
G36*
X108626D02*
X108275Y121440D01*
X107554Y120958D01*
X107071Y120237D01*
X107002Y119886D01*
X108626D01*
Y121510D01*
D02*
G37*
G36*
X11201D02*
Y119886D01*
X12825D01*
X12755Y120237D01*
X12273Y120958D01*
X11552Y121440D01*
X11201Y121510D01*
D02*
G37*
G36*
X10201D02*
X9850Y121440D01*
X9128Y120958D01*
X8646Y120237D01*
X8576Y119886D01*
X10201D01*
Y121510D01*
D02*
G37*
G36*
X-8484D02*
Y119886D01*
X-6860D01*
X-6930Y120237D01*
X-7412Y120958D01*
X-8133Y121440D01*
X-8484Y121510D01*
D02*
G37*
G36*
X-9484D02*
X-9835Y121440D01*
X-10557Y120958D01*
X-11039Y120237D01*
X-11109Y119886D01*
X-9484D01*
Y121510D01*
D02*
G37*
G36*
X-47854D02*
Y119886D01*
X-46230D01*
X-46300Y120237D01*
X-46782Y120958D01*
X-47503Y121440D01*
X-47854Y121510D01*
D02*
G37*
G36*
X-48854D02*
X-49205Y121440D01*
X-49927Y120958D01*
X-50409Y120237D01*
X-50479Y119886D01*
X-48854D01*
Y121510D01*
D02*
G37*
G36*
X-67539D02*
Y119886D01*
X-65915D01*
X-65985Y120237D01*
X-66467Y120958D01*
X-67188Y121440D01*
X-67539Y121510D01*
D02*
G37*
G36*
X-68539D02*
X-68890Y121440D01*
X-69612Y120958D01*
X-70094Y120237D01*
X-70164Y119886D01*
X-68539D01*
Y121510D01*
D02*
G37*
G36*
X-106909D02*
Y119886D01*
X-105285D01*
X-105355Y120237D01*
X-105837Y120958D01*
X-106558Y121440D01*
X-106909Y121510D01*
D02*
G37*
G36*
X-107909D02*
X-108261Y121440D01*
X-108982Y120958D01*
X-109464Y120237D01*
X-109534Y119886D01*
X-107909D01*
Y121510D01*
D02*
G37*
G36*
X-165965D02*
Y119886D01*
X-164340D01*
X-164410Y120237D01*
X-164892Y120958D01*
X-165613Y121440D01*
X-165965Y121510D01*
D02*
G37*
G36*
X-166965D02*
X-167316Y121440D01*
X-168037Y120958D01*
X-168519Y120237D01*
X-168589Y119886D01*
X-166965D01*
Y121510D01*
D02*
G37*
G36*
X-225020D02*
Y119886D01*
X-223395D01*
X-223465Y120237D01*
X-223947Y120958D01*
X-224669Y121440D01*
X-225020Y121510D01*
D02*
G37*
G36*
X-226020D02*
X-226371Y121440D01*
X-227092Y120958D01*
X-227574Y120237D01*
X-227644Y119886D01*
X-226020D01*
Y121510D01*
D02*
G37*
G36*
X-244705D02*
Y119886D01*
X-243080D01*
X-243150Y120237D01*
X-243632Y120958D01*
X-244354Y121440D01*
X-244705Y121510D01*
D02*
G37*
G36*
X-245705D02*
X-246056Y121440D01*
X-246777Y120958D01*
X-247259Y120237D01*
X-247329Y119886D01*
X-245705D01*
Y121510D01*
D02*
G37*
G36*
X-185405Y129859D02*
X-186545Y129747D01*
X-187641Y129414D01*
X-188651Y128874D01*
X-189537Y128147D01*
X-190263Y127262D01*
X-190804Y126252D01*
X-191136Y125156D01*
X-191248Y124016D01*
X-191136Y122876D01*
X-190804Y121780D01*
X-190263Y120770D01*
X-189537Y119884D01*
X-188651Y119157D01*
X-187641Y118617D01*
X-186545Y118285D01*
X-185405Y118173D01*
X-184265Y118285D01*
X-183169Y118617D01*
X-182159Y119157D01*
X-181273Y119884D01*
X-180547Y120770D01*
X-180007Y121780D01*
X-179674Y122876D01*
X-179562Y124016D01*
X-179674Y125156D01*
X-180007Y126252D01*
X-180547Y127262D01*
X-181273Y128147D01*
X-182159Y128874D01*
X-183169Y129414D01*
X-184265Y129747D01*
X-185405Y129859D01*
D02*
G37*
G36*
X-198794Y123516D02*
X-204590D01*
Y117719D01*
X-203852Y117792D01*
X-202662Y118153D01*
X-201565Y118740D01*
X-200603Y119529D01*
X-199814Y120490D01*
X-199228Y121587D01*
X-198867Y122778D01*
X-198794Y123516D01*
D02*
G37*
G36*
X-205590D02*
X-211386D01*
X-211314Y122778D01*
X-210953Y121587D01*
X-210366Y120490D01*
X-209577Y119529D01*
X-208616Y118740D01*
X-207519Y118153D01*
X-206328Y117792D01*
X-205590Y117719D01*
Y123516D01*
D02*
G37*
G36*
X249046Y118886D02*
X247421D01*
Y117262D01*
X247772Y117331D01*
X248494Y117813D01*
X248976Y118535D01*
X249046Y118886D01*
D02*
G37*
G36*
X246421D02*
X244797D01*
X244867Y118535D01*
X245349Y117813D01*
X246070Y117331D01*
X246421Y117262D01*
Y118886D01*
D02*
G37*
G36*
X229361D02*
X227736D01*
Y117262D01*
X228087Y117331D01*
X228809Y117813D01*
X229291Y118535D01*
X229361Y118886D01*
D02*
G37*
G36*
X226736D02*
X225112D01*
X225182Y118535D01*
X225664Y117813D01*
X226385Y117331D01*
X226736Y117262D01*
Y118886D01*
D02*
G37*
G36*
X189990D02*
X188366D01*
Y117262D01*
X188717Y117331D01*
X189439Y117813D01*
X189921Y118535D01*
X189990Y118886D01*
D02*
G37*
G36*
X187366D02*
X185742D01*
X185812Y118535D01*
X186294Y117813D01*
X187015Y117331D01*
X187366Y117262D01*
Y118886D01*
D02*
G37*
G36*
X170306D02*
X168681D01*
Y117262D01*
X169032Y117331D01*
X169754Y117813D01*
X170236Y118535D01*
X170306Y118886D01*
D02*
G37*
G36*
X167681D02*
X166057D01*
X166127Y118535D01*
X166609Y117813D01*
X167330Y117331D01*
X167681Y117262D01*
Y118886D01*
D02*
G37*
G36*
X130935D02*
X129311D01*
Y117262D01*
X129662Y117331D01*
X130384Y117813D01*
X130866Y118535D01*
X130935Y118886D01*
D02*
G37*
G36*
X128311D02*
X126687D01*
X126757Y118535D01*
X127239Y117813D01*
X127960Y117331D01*
X128311Y117262D01*
Y118886D01*
D02*
G37*
G36*
X111250D02*
X109626D01*
Y117262D01*
X109977Y117331D01*
X110698Y117813D01*
X111180Y118535D01*
X111250Y118886D01*
D02*
G37*
G36*
X108626D02*
X107002D01*
X107071Y118535D01*
X107554Y117813D01*
X108275Y117331D01*
X108626Y117262D01*
Y118886D01*
D02*
G37*
G36*
X-105285D02*
X-106909D01*
Y117262D01*
X-106558Y117331D01*
X-105837Y117813D01*
X-105355Y118535D01*
X-105285Y118886D01*
D02*
G37*
G36*
X-107909D02*
X-109534D01*
X-109464Y118535D01*
X-108982Y117813D01*
X-108261Y117331D01*
X-107909Y117262D01*
Y118886D01*
D02*
G37*
G36*
X-164340D02*
X-165965D01*
Y117262D01*
X-165613Y117331D01*
X-164892Y117813D01*
X-164410Y118535D01*
X-164340Y118886D01*
D02*
G37*
G36*
X-166965D02*
X-168589D01*
X-168519Y118535D01*
X-168037Y117813D01*
X-167316Y117331D01*
X-166965Y117262D01*
Y118886D01*
D02*
G37*
G36*
X-223395D02*
X-225020D01*
Y117262D01*
X-224669Y117331D01*
X-223947Y117813D01*
X-223465Y118535D01*
X-223395Y118886D01*
D02*
G37*
G36*
X-226020D02*
X-227644D01*
X-227574Y118535D01*
X-227092Y117813D01*
X-226371Y117331D01*
X-226020Y117262D01*
Y118886D01*
D02*
G37*
G36*
X-243080D02*
X-244705D01*
Y117262D01*
X-244354Y117331D01*
X-243632Y117813D01*
X-243150Y118535D01*
X-243080Y118886D01*
D02*
G37*
G36*
X-245705D02*
X-247329D01*
X-247259Y118535D01*
X-246777Y117813D01*
X-246056Y117331D01*
X-245705Y117262D01*
Y118886D01*
D02*
G37*
G36*
X97500Y138530D02*
X96586Y138410D01*
X95735Y138057D01*
X95004Y137496D01*
X94443Y136765D01*
X94090Y135914D01*
X93970Y135000D01*
X94090Y134086D01*
X94443Y133235D01*
X95004Y132504D01*
X95735Y131943D01*
X96586Y131590D01*
X96803Y131562D01*
Y119341D01*
X96611Y119212D01*
X96239Y118656D01*
X96109Y118000D01*
X96239Y117344D01*
X96611Y116788D01*
X97167Y116416D01*
X97823Y116286D01*
X98479Y116416D01*
X99035Y116788D01*
X99406Y117344D01*
X99537Y118000D01*
X99406Y118656D01*
X99035Y119212D01*
X98843Y119341D01*
Y131768D01*
X99265Y131943D01*
X99996Y132504D01*
X100557Y133235D01*
X100910Y134086D01*
X101030Y135000D01*
X100910Y135914D01*
X100557Y136765D01*
X99996Y137496D01*
X99265Y138057D01*
X98414Y138410D01*
X97500Y138530D01*
D02*
G37*
G36*
X87500D02*
X86586Y138410D01*
X85735Y138057D01*
X85004Y137496D01*
X84443Y136765D01*
X84090Y135914D01*
X83970Y135000D01*
X84090Y134086D01*
X84443Y133235D01*
X85004Y132504D01*
X85735Y131943D01*
X85980Y131841D01*
Y119341D01*
X85788Y119212D01*
X85416Y118656D01*
X85286Y118000D01*
X85416Y117344D01*
X85788Y116788D01*
X86344Y116416D01*
X87000Y116286D01*
X87656Y116416D01*
X88212Y116788D01*
X88584Y117344D01*
X88714Y118000D01*
X88584Y118656D01*
X88212Y119212D01*
X88020Y119341D01*
Y131538D01*
X88414Y131590D01*
X89265Y131943D01*
X89996Y132504D01*
X90557Y133235D01*
X90910Y134086D01*
X91030Y135000D01*
X90910Y135914D01*
X90557Y136765D01*
X89996Y137496D01*
X89265Y138057D01*
X88414Y138410D01*
X87500Y138530D01*
D02*
G37*
G36*
X146555Y130068D02*
X144913Y129906D01*
X143335Y129428D01*
X141880Y128650D01*
X140605Y127603D01*
X139559Y126328D01*
X138781Y124874D01*
X138302Y123295D01*
X138141Y121653D01*
X138302Y120012D01*
X138781Y118433D01*
X139559Y116979D01*
X140605Y115704D01*
X141880Y114657D01*
X143335Y113880D01*
X144913Y113401D01*
X146555Y113239D01*
X148197Y113401D01*
X149775Y113880D01*
X151230Y114657D01*
X152505Y115704D01*
X153551Y116979D01*
X154329Y118433D01*
X154808Y120012D01*
X154970Y121653D01*
X154808Y123295D01*
X154329Y124874D01*
X153551Y126328D01*
X152505Y127603D01*
X151230Y128650D01*
X149775Y129428D01*
X148197Y129906D01*
X146555Y130068D01*
D02*
G37*
G36*
X-146555D02*
X-148197Y129906D01*
X-149775Y129428D01*
X-151230Y128650D01*
X-152505Y127603D01*
X-153551Y126328D01*
X-154329Y124874D01*
X-154808Y123295D01*
X-154970Y121653D01*
X-154808Y120012D01*
X-154329Y118433D01*
X-153551Y116979D01*
X-152505Y115704D01*
X-151230Y114657D01*
X-149775Y113880D01*
X-148197Y113401D01*
X-146555Y113239D01*
X-144913Y113401D01*
X-143335Y113880D01*
X-141880Y114657D01*
X-140605Y115704D01*
X-139559Y116979D01*
X-138781Y118433D01*
X-138302Y120012D01*
X-138141Y121653D01*
X-138302Y123295D01*
X-138781Y124874D01*
X-139559Y126328D01*
X-140605Y127603D01*
X-141880Y128650D01*
X-143335Y129428D01*
X-144913Y129906D01*
X-146555Y130068D01*
D02*
G37*
G36*
X-113445Y118997D02*
X-114101Y118867D01*
X-114657Y118495D01*
X-115028Y117939D01*
X-115159Y117283D01*
X-115028Y116627D01*
X-114719Y116165D01*
Y113579D01*
X-114622Y113091D01*
X-114346Y112678D01*
X-106306Y104638D01*
X-106198Y104092D01*
X-105826Y103536D01*
X-105270Y103165D01*
X-104614Y103034D01*
X-103958Y103165D01*
X-103496Y103473D01*
X-100252D01*
X-99764Y103571D01*
X-99351Y103847D01*
X-91472Y111725D01*
X-89618D01*
X-89156Y111416D01*
X-88500Y111286D01*
X-87844Y111416D01*
X-87288Y111788D01*
X-86916Y112344D01*
X-86786Y113000D01*
X-86916Y113656D01*
X-87288Y114212D01*
X-87844Y114584D01*
X-88500Y114714D01*
X-89156Y114584D01*
X-89618Y114275D01*
X-92000D01*
X-92488Y114178D01*
X-92901Y113901D01*
X-100780Y106023D01*
X-103496D01*
X-103958Y106332D01*
X-104504Y106440D01*
X-112170Y114107D01*
Y116165D01*
X-111861Y116627D01*
X-111731Y117283D01*
X-111861Y117939D01*
X-112233Y118495D01*
X-112789Y118867D01*
X-113445Y118997D01*
D02*
G37*
G36*
X9349Y111055D02*
X7724D01*
Y109431D01*
X8075Y109501D01*
X8797Y109983D01*
X9279Y110704D01*
X9349Y111055D01*
D02*
G37*
G36*
X6724D02*
X5100D01*
X5170Y110704D01*
X5652Y109983D01*
X6373Y109501D01*
X6724Y109431D01*
Y111055D01*
D02*
G37*
G36*
X2124D02*
X500D01*
Y109431D01*
X851Y109501D01*
X1572Y109983D01*
X2055Y110704D01*
X2124Y111055D01*
D02*
G37*
G36*
X-500D02*
X-2124D01*
X-2055Y110704D01*
X-1572Y109983D01*
X-851Y109501D01*
X-500Y109431D01*
Y111055D01*
D02*
G37*
G36*
X-5100D02*
X-6724D01*
Y109431D01*
X-6373Y109501D01*
X-5652Y109983D01*
X-5170Y110704D01*
X-5100Y111055D01*
D02*
G37*
G36*
X-7724D02*
X-9349D01*
X-9279Y110704D01*
X-8797Y109983D01*
X-8075Y109501D01*
X-7724Y109431D01*
Y111055D01*
D02*
G37*
G36*
X-102000Y144214D02*
X-102656Y144084D01*
X-103212Y143712D01*
X-103584Y143156D01*
X-103692Y142610D01*
X-135886Y110417D01*
X-136162Y110003D01*
X-136259Y109515D01*
Y108781D01*
X-136362Y108712D01*
X-136733Y108156D01*
X-136864Y107500D01*
X-136733Y106844D01*
X-136362Y106288D01*
X-135805Y105916D01*
X-135150Y105786D01*
X-134494Y105916D01*
X-133938Y106288D01*
X-133566Y106844D01*
X-133436Y107500D01*
X-133566Y108156D01*
X-133710Y108372D01*
Y108987D01*
X-101890Y140808D01*
X-101344Y140916D01*
X-100788Y141288D01*
X-100416Y141844D01*
X-100286Y142500D01*
X-100416Y143156D01*
X-100788Y143712D01*
X-101344Y144084D01*
X-102000Y144214D01*
D02*
G37*
G36*
X7724Y106455D02*
Y104831D01*
X9349D01*
X9279Y105182D01*
X8797Y105903D01*
X8075Y106385D01*
X7724Y106455D01*
D02*
G37*
G36*
X6724D02*
X6373Y106385D01*
X5652Y105903D01*
X5170Y105182D01*
X5100Y104831D01*
X6724D01*
Y106455D01*
D02*
G37*
G36*
X500D02*
Y104831D01*
X2124D01*
X2055Y105182D01*
X1572Y105903D01*
X851Y106385D01*
X500Y106455D01*
D02*
G37*
G36*
X-500D02*
X-851Y106385D01*
X-1572Y105903D01*
X-2055Y105182D01*
X-2124Y104831D01*
X-500D01*
Y106455D01*
D02*
G37*
G36*
X-6724D02*
Y104831D01*
X-5100D01*
X-5170Y105182D01*
X-5652Y105903D01*
X-6373Y106385D01*
X-6724Y106455D01*
D02*
G37*
G36*
X-7724D02*
X-8075Y106385D01*
X-8797Y105903D01*
X-9279Y105182D01*
X-9349Y104831D01*
X-7724D01*
Y106455D01*
D02*
G37*
G36*
X9349Y103831D02*
X7724D01*
Y102206D01*
X8075Y102276D01*
X8797Y102758D01*
X9279Y103480D01*
X9349Y103831D01*
D02*
G37*
G36*
X6724D02*
X5100D01*
X5170Y103480D01*
X5652Y102758D01*
X6373Y102276D01*
X6724Y102206D01*
Y103831D01*
D02*
G37*
G36*
X2124D02*
X500D01*
Y102206D01*
X851Y102276D01*
X1572Y102758D01*
X2055Y103480D01*
X2124Y103831D01*
D02*
G37*
G36*
X-500D02*
X-2124D01*
X-2055Y103480D01*
X-1572Y102758D01*
X-851Y102276D01*
X-500Y102206D01*
Y103831D01*
D02*
G37*
G36*
X-5100D02*
X-6724D01*
Y102206D01*
X-6373Y102276D01*
X-5652Y102758D01*
X-5170Y103480D01*
X-5100Y103831D01*
D02*
G37*
G36*
X-7724D02*
X-9349D01*
X-9279Y103480D01*
X-8797Y102758D01*
X-8075Y102276D01*
X-7724Y102206D01*
Y103831D01*
D02*
G37*
G36*
X256264Y101825D02*
X255913Y101755D01*
X255191Y101273D01*
X254709Y100552D01*
X254639Y100201D01*
X256264D01*
Y101825D01*
D02*
G37*
G36*
X237579D02*
Y100201D01*
X239203D01*
X239133Y100552D01*
X238651Y101273D01*
X237930Y101755D01*
X237579Y101825D01*
D02*
G37*
G36*
X217894D02*
Y100201D01*
X219518D01*
X219448Y100552D01*
X218966Y101273D01*
X218245Y101755D01*
X217894Y101825D01*
D02*
G37*
G36*
X216894D02*
X216543Y101755D01*
X215821Y101273D01*
X215339Y100552D01*
X215269Y100201D01*
X216894D01*
Y101825D01*
D02*
G37*
G36*
X198209D02*
Y100201D01*
X199833D01*
X199763Y100552D01*
X199281Y101273D01*
X198560Y101755D01*
X198209Y101825D01*
D02*
G37*
G36*
X197209D02*
X196858Y101755D01*
X196136Y101273D01*
X195654Y100552D01*
X195584Y100201D01*
X197209D01*
Y101825D01*
D02*
G37*
G36*
X139154D02*
Y100201D01*
X140778D01*
X140708Y100552D01*
X140226Y101273D01*
X139505Y101755D01*
X139154Y101825D01*
D02*
G37*
G36*
X138154D02*
X137803Y101755D01*
X137081Y101273D01*
X136599Y100552D01*
X136529Y100201D01*
X138154D01*
Y101825D01*
D02*
G37*
G36*
X119468D02*
Y100201D01*
X121093D01*
X121023Y100552D01*
X120541Y101273D01*
X119819Y101755D01*
X119468Y101825D01*
D02*
G37*
G36*
X118468D02*
X118117Y101755D01*
X117396Y101273D01*
X116914Y100552D01*
X116844Y100201D01*
X118468D01*
Y101825D01*
D02*
G37*
G36*
X-18327D02*
Y100201D01*
X-16702D01*
X-16772Y100552D01*
X-17254Y101273D01*
X-17976Y101755D01*
X-18327Y101825D01*
D02*
G37*
G36*
X-19327D02*
X-19678Y101755D01*
X-20399Y101273D01*
X-20881Y100552D01*
X-20951Y100201D01*
X-19327D01*
Y101825D01*
D02*
G37*
G36*
X-57697D02*
Y100201D01*
X-56072D01*
X-56142Y100552D01*
X-56624Y101273D01*
X-57346Y101755D01*
X-57697Y101825D01*
D02*
G37*
G36*
X-58697D02*
X-59048Y101755D01*
X-59769Y101273D01*
X-60251Y100552D01*
X-60321Y100201D01*
X-58697D01*
Y101825D01*
D02*
G37*
G36*
X-136437D02*
Y100201D01*
X-134813D01*
X-134882Y100552D01*
X-135364Y101273D01*
X-136086Y101755D01*
X-136437Y101825D01*
D02*
G37*
G36*
X-137437D02*
X-137788Y101755D01*
X-138510Y101273D01*
X-138992Y100552D01*
X-139061Y100201D01*
X-137437D01*
Y101825D01*
D02*
G37*
G36*
X-156122D02*
Y100201D01*
X-154498D01*
X-154568Y100552D01*
X-155050Y101273D01*
X-155771Y101755D01*
X-156122Y101825D01*
D02*
G37*
G36*
X-157122D02*
X-157473Y101755D01*
X-158194Y101273D01*
X-158677Y100552D01*
X-158746Y100201D01*
X-157122D01*
Y101825D01*
D02*
G37*
G36*
X7724Y99231D02*
Y97606D01*
X9349D01*
X9279Y97957D01*
X8797Y98679D01*
X8075Y99161D01*
X7724Y99231D01*
D02*
G37*
G36*
X6724D02*
X6373Y99161D01*
X5652Y98679D01*
X5170Y97957D01*
X5100Y97606D01*
X6724D01*
Y99231D01*
D02*
G37*
G36*
X500D02*
Y97606D01*
X2124D01*
X2055Y97957D01*
X1572Y98679D01*
X851Y99161D01*
X500Y99231D01*
D02*
G37*
G36*
X-500D02*
X-851Y99161D01*
X-1572Y98679D01*
X-2055Y97957D01*
X-2124Y97606D01*
X-500D01*
Y99231D01*
D02*
G37*
G36*
X-6724D02*
Y97606D01*
X-5100D01*
X-5170Y97957D01*
X-5652Y98679D01*
X-6373Y99161D01*
X-6724Y99231D01*
D02*
G37*
G36*
X-7724D02*
X-8075Y99161D01*
X-8797Y98679D01*
X-9279Y97957D01*
X-9349Y97606D01*
X-7724D01*
Y99231D01*
D02*
G37*
G36*
X256264Y99201D02*
X254639D01*
X254709Y98850D01*
X255191Y98128D01*
X255913Y97646D01*
X256264Y97576D01*
Y99201D01*
D02*
G37*
G36*
X239203D02*
X237579D01*
Y97576D01*
X237930Y97646D01*
X238651Y98128D01*
X239133Y98850D01*
X239203Y99201D01*
D02*
G37*
G36*
X229000Y102710D02*
X227648Y102577D01*
X226348Y102183D01*
X225149Y101542D01*
X224099Y100680D01*
X223237Y99630D01*
X222597Y98432D01*
X222202Y97132D01*
X222069Y95780D01*
X222202Y94427D01*
X222597Y93127D01*
X223237Y91929D01*
X224099Y90879D01*
X225149Y90017D01*
X226348Y89376D01*
X227648Y88982D01*
X229000Y88849D01*
X230352Y88982D01*
X231652Y89376D01*
X232851Y90017D01*
X233901Y90879D01*
X234763Y91929D01*
X235403Y93127D01*
X235798Y94427D01*
X235931Y95780D01*
X235798Y97132D01*
X235722Y97383D01*
X236148Y97699D01*
X236228Y97646D01*
X236579Y97576D01*
Y99701D01*
Y101825D01*
X236228Y101755D01*
X235506Y101273D01*
X235024Y100552D01*
X234952Y100188D01*
X234415Y100054D01*
X233901Y100680D01*
X232851Y101542D01*
X231652Y102183D01*
X230352Y102577D01*
X229000Y102710D01*
D02*
G37*
G36*
X219518Y99201D02*
X217894D01*
Y97576D01*
X218245Y97646D01*
X218966Y98128D01*
X219448Y98850D01*
X219518Y99201D01*
D02*
G37*
G36*
X216894D02*
X215269D01*
X215339Y98850D01*
X215821Y98128D01*
X216543Y97646D01*
X216894Y97576D01*
Y99201D01*
D02*
G37*
G36*
X199833D02*
X198209D01*
Y97576D01*
X198560Y97646D01*
X199281Y98128D01*
X199763Y98850D01*
X199833Y99201D01*
D02*
G37*
G36*
X197209D02*
X195584D01*
X195654Y98850D01*
X196136Y98128D01*
X196858Y97646D01*
X197209Y97576D01*
Y99201D01*
D02*
G37*
G36*
X140778D02*
X139154D01*
Y97576D01*
X139505Y97646D01*
X140226Y98128D01*
X140708Y98850D01*
X140778Y99201D01*
D02*
G37*
G36*
X138154D02*
X136529D01*
X136599Y98850D01*
X137081Y98128D01*
X137803Y97646D01*
X138154Y97576D01*
Y99201D01*
D02*
G37*
G36*
X-16702D02*
X-18327D01*
Y97576D01*
X-17976Y97646D01*
X-17254Y98128D01*
X-16772Y98850D01*
X-16702Y99201D01*
D02*
G37*
G36*
X-19327D02*
X-20951D01*
X-20881Y98850D01*
X-20399Y98128D01*
X-19678Y97646D01*
X-19327Y97576D01*
Y99201D01*
D02*
G37*
G36*
X-56072D02*
X-57697D01*
Y97576D01*
X-57346Y97646D01*
X-56624Y98128D01*
X-56142Y98850D01*
X-56072Y99201D01*
D02*
G37*
G36*
X-58697D02*
X-60321D01*
X-60251Y98850D01*
X-59769Y98128D01*
X-59048Y97646D01*
X-58697Y97576D01*
Y99201D01*
D02*
G37*
G36*
X-134813D02*
X-136437D01*
Y97576D01*
X-136086Y97646D01*
X-135364Y98128D01*
X-134882Y98850D01*
X-134813Y99201D01*
D02*
G37*
G36*
X-137437D02*
X-139061D01*
X-138992Y98850D01*
X-138510Y98128D01*
X-137788Y97646D01*
X-137437Y97576D01*
Y99201D01*
D02*
G37*
G36*
X-154498D02*
X-156122D01*
Y97576D01*
X-155771Y97646D01*
X-155050Y98128D01*
X-154568Y98850D01*
X-154498Y99201D01*
D02*
G37*
G36*
X-157122D02*
X-158746D01*
X-158677Y98850D01*
X-158194Y98128D01*
X-157473Y97646D01*
X-157122Y97576D01*
Y99201D01*
D02*
G37*
G36*
X100456Y98969D02*
X99911Y98897D01*
X98938Y98494D01*
X98103Y97853D01*
X97462Y97017D01*
X97059Y96044D01*
X96987Y95500D01*
X100456D01*
Y98969D01*
D02*
G37*
G36*
X9349Y96606D02*
X7724D01*
Y94982D01*
X8075Y95052D01*
X8797Y95534D01*
X9279Y96255D01*
X9349Y96606D01*
D02*
G37*
G36*
X6724D02*
X5100D01*
X5170Y96255D01*
X5652Y95534D01*
X6373Y95052D01*
X6724Y94982D01*
Y96606D01*
D02*
G37*
G36*
X2124D02*
X500D01*
Y94982D01*
X851Y95052D01*
X1572Y95534D01*
X2055Y96255D01*
X2124Y96606D01*
D02*
G37*
G36*
X-500D02*
X-2124D01*
X-2055Y96255D01*
X-1572Y95534D01*
X-851Y95052D01*
X-500Y94982D01*
Y96606D01*
D02*
G37*
G36*
X-5100D02*
X-6724D01*
Y94982D01*
X-6373Y95052D01*
X-5652Y95534D01*
X-5170Y96255D01*
X-5100Y96606D01*
D02*
G37*
G36*
X-7724D02*
X-9349D01*
X-9279Y96255D01*
X-8797Y95534D01*
X-8075Y95052D01*
X-7724Y94982D01*
Y96606D01*
D02*
G37*
G36*
X124578Y98530D02*
X123664Y98410D01*
X122813Y98057D01*
X122081Y97496D01*
X121520Y96765D01*
X121168Y95914D01*
X121047Y95000D01*
X121168Y94086D01*
X121520Y93235D01*
X122081Y92504D01*
X122813Y91943D01*
X123664Y91590D01*
X124578Y91470D01*
X125491Y91590D01*
X126343Y91943D01*
X127074Y92504D01*
X127635Y93235D01*
X127988Y94086D01*
X128108Y95000D01*
X127988Y95914D01*
X127635Y96765D01*
X127074Y97496D01*
X126343Y98057D01*
X125491Y98410D01*
X124578Y98530D01*
D02*
G37*
G36*
X121093Y99201D02*
X116844D01*
X116882Y99011D01*
X116828Y98865D01*
X116646Y98605D01*
X116541Y98509D01*
X115790Y98410D01*
X114939Y98057D01*
X114207Y97496D01*
X113646Y96765D01*
X113294Y95914D01*
X113173Y95000D01*
X113294Y94086D01*
X113646Y93235D01*
X114207Y92504D01*
X114939Y91943D01*
X115790Y91590D01*
X116704Y91470D01*
X117617Y91590D01*
X118469Y91943D01*
X119200Y92504D01*
X119761Y93235D01*
X120114Y94086D01*
X120234Y95000D01*
X120114Y95914D01*
X119761Y96765D01*
X119521Y97077D01*
X119729Y97628D01*
X119819Y97646D01*
X120541Y98128D01*
X121023Y98850D01*
X121093Y99201D01*
D02*
G37*
G36*
X101456Y98969D02*
Y95000D01*
Y91031D01*
X102000Y91103D01*
X102973Y91506D01*
X103808Y92147D01*
X104450Y92983D01*
X104853Y93956D01*
X104893Y94259D01*
X105397D01*
X105420Y94086D01*
X105772Y93235D01*
X106333Y92504D01*
X107065Y91943D01*
X107916Y91590D01*
X108830Y91470D01*
X109743Y91590D01*
X110595Y91943D01*
X111326Y92504D01*
X111887Y93235D01*
X112240Y94086D01*
X112360Y95000D01*
X112240Y95914D01*
X111887Y96765D01*
X111326Y97496D01*
X110595Y98057D01*
X109743Y98410D01*
X108830Y98530D01*
X107916Y98410D01*
X107065Y98057D01*
X106333Y97496D01*
X105772Y96765D01*
X105420Y95914D01*
X105397Y95741D01*
X104893D01*
X104853Y96044D01*
X104450Y97017D01*
X103808Y97853D01*
X102973Y98494D01*
X102000Y98897D01*
X101456Y98969D01*
D02*
G37*
G36*
X100456Y94500D02*
X96987D01*
X97059Y93956D01*
X97462Y92983D01*
X98103Y92147D01*
X98938Y91506D01*
X99911Y91103D01*
X100456Y91031D01*
Y94500D01*
D02*
G37*
G36*
X194000Y93871D02*
X193200Y93766D01*
X192454Y93457D01*
X191814Y92966D01*
X191323Y92325D01*
X191014Y91580D01*
X190909Y90780D01*
X191014Y89979D01*
X191323Y89234D01*
X191814Y88594D01*
X192454Y88102D01*
X193200Y87793D01*
X194000Y87688D01*
X194800Y87793D01*
X195546Y88102D01*
X196186Y88594D01*
X196677Y89234D01*
X196986Y89979D01*
X197091Y90780D01*
X196986Y91580D01*
X196677Y92325D01*
X196186Y92966D01*
X195546Y93457D01*
X194800Y93766D01*
X194000Y93871D01*
D02*
G37*
G36*
X247421Y82140D02*
Y80516D01*
X249046D01*
X248976Y80867D01*
X248494Y81588D01*
X247772Y82070D01*
X247421Y82140D01*
D02*
G37*
G36*
X246421D02*
X246070Y82070D01*
X245349Y81588D01*
X244867Y80867D01*
X244797Y80516D01*
X246421D01*
Y82140D01*
D02*
G37*
G36*
X168681D02*
Y80516D01*
X170306D01*
X170236Y80867D01*
X169754Y81588D01*
X169032Y82070D01*
X168681Y82140D01*
D02*
G37*
G36*
X167681D02*
X167330Y82070D01*
X166609Y81588D01*
X166127Y80867D01*
X166057Y80516D01*
X167681D01*
Y82140D01*
D02*
G37*
G36*
X148996D02*
Y80516D01*
X150620D01*
X150551Y80867D01*
X150069Y81588D01*
X149347Y82070D01*
X148996Y82140D01*
D02*
G37*
G36*
X147996D02*
X147645Y82070D01*
X146924Y81588D01*
X146441Y80867D01*
X146372Y80516D01*
X147996D01*
Y82140D01*
D02*
G37*
G36*
X129311D02*
Y80516D01*
X130935D01*
X130866Y80867D01*
X130384Y81588D01*
X129662Y82070D01*
X129311Y82140D01*
D02*
G37*
G36*
X128311D02*
X127960Y82070D01*
X127239Y81588D01*
X126757Y80867D01*
X126687Y80516D01*
X128311D01*
Y82140D01*
D02*
G37*
G36*
X70256D02*
Y80516D01*
X71880D01*
X71811Y80867D01*
X71328Y81588D01*
X70607Y82070D01*
X70256Y82140D01*
D02*
G37*
G36*
X69256D02*
X68905Y82070D01*
X68183Y81588D01*
X67701Y80867D01*
X67632Y80516D01*
X69256D01*
Y82140D01*
D02*
G37*
G36*
X11201D02*
Y80516D01*
X12825D01*
X12755Y80867D01*
X12273Y81588D01*
X11552Y82070D01*
X11201Y82140D01*
D02*
G37*
G36*
X10201D02*
X9850Y82070D01*
X9128Y81588D01*
X8646Y80867D01*
X8576Y80516D01*
X10201D01*
Y82140D01*
D02*
G37*
G36*
X-8484D02*
Y80516D01*
X-6860D01*
X-6930Y80867D01*
X-7412Y81588D01*
X-8133Y82070D01*
X-8484Y82140D01*
D02*
G37*
G36*
X-9484D02*
X-9835Y82070D01*
X-10557Y81588D01*
X-11039Y80867D01*
X-11109Y80516D01*
X-9484D01*
Y82140D01*
D02*
G37*
G36*
X-47854D02*
Y80516D01*
X-46230D01*
X-46300Y80867D01*
X-46782Y81588D01*
X-47503Y82070D01*
X-47854Y82140D01*
D02*
G37*
G36*
X-48854D02*
X-49205Y82070D01*
X-49927Y81588D01*
X-50409Y80867D01*
X-50479Y80516D01*
X-48854D01*
Y82140D01*
D02*
G37*
G36*
X-146280D02*
Y80516D01*
X-144655D01*
X-144725Y80867D01*
X-145207Y81588D01*
X-145929Y82070D01*
X-146280Y82140D01*
D02*
G37*
G36*
X-147280D02*
X-147631Y82070D01*
X-148352Y81588D01*
X-148834Y80867D01*
X-148904Y80516D01*
X-147280D01*
Y82140D01*
D02*
G37*
G36*
X-165965D02*
Y80516D01*
X-164340D01*
X-164410Y80867D01*
X-164892Y81588D01*
X-165613Y82070D01*
X-165965Y82140D01*
D02*
G37*
G36*
X-166965D02*
X-167316Y82070D01*
X-168037Y81588D01*
X-168519Y80867D01*
X-168589Y80516D01*
X-166965D01*
Y82140D01*
D02*
G37*
G36*
X249046Y79516D02*
X247421D01*
Y77891D01*
X247772Y77961D01*
X248494Y78443D01*
X248976Y79165D01*
X249046Y79516D01*
D02*
G37*
G36*
X246421D02*
X244797D01*
X244867Y79165D01*
X245349Y78443D01*
X246070Y77961D01*
X246421Y77891D01*
Y79516D01*
D02*
G37*
G36*
X170306D02*
X168681D01*
Y77891D01*
X169032Y77961D01*
X169754Y78443D01*
X170236Y79165D01*
X170306Y79516D01*
D02*
G37*
G36*
X167681D02*
X166057D01*
X166127Y79165D01*
X166609Y78443D01*
X167330Y77961D01*
X167681Y77891D01*
Y79516D01*
D02*
G37*
G36*
X150620D02*
X148996D01*
Y77891D01*
X149347Y77961D01*
X150069Y78443D01*
X150551Y79165D01*
X150620Y79516D01*
D02*
G37*
G36*
X147996D02*
X146372D01*
X146441Y79165D01*
X146924Y78443D01*
X147645Y77961D01*
X147996Y77891D01*
Y79516D01*
D02*
G37*
G36*
X130935D02*
X129311D01*
Y77891D01*
X129662Y77961D01*
X130384Y78443D01*
X130866Y79165D01*
X130935Y79516D01*
D02*
G37*
G36*
X128311D02*
X126687D01*
X126757Y79165D01*
X127239Y78443D01*
X127960Y77961D01*
X128311Y77891D01*
Y79516D01*
D02*
G37*
G36*
X71880D02*
X70256D01*
Y77891D01*
X70607Y77961D01*
X71328Y78443D01*
X71811Y79165D01*
X71880Y79516D01*
D02*
G37*
G36*
X69256D02*
X67632D01*
X67701Y79165D01*
X68183Y78443D01*
X68905Y77961D01*
X69256Y77891D01*
Y79516D01*
D02*
G37*
G36*
X12825D02*
X11201D01*
Y77891D01*
X11552Y77961D01*
X12273Y78443D01*
X12755Y79165D01*
X12825Y79516D01*
D02*
G37*
G36*
X10201D02*
X8576D01*
X8646Y79165D01*
X9128Y78443D01*
X9850Y77961D01*
X10201Y77891D01*
Y79516D01*
D02*
G37*
G36*
X-6860D02*
X-8484D01*
Y77891D01*
X-8133Y77961D01*
X-7412Y78443D01*
X-6930Y79165D01*
X-6860Y79516D01*
D02*
G37*
G36*
X-9484D02*
X-11109D01*
X-11039Y79165D01*
X-10557Y78443D01*
X-9835Y77961D01*
X-9484Y77891D01*
Y79516D01*
D02*
G37*
G36*
X-46230D02*
X-47854D01*
Y77891D01*
X-47503Y77961D01*
X-46782Y78443D01*
X-46300Y79165D01*
X-46230Y79516D01*
D02*
G37*
G36*
X-48854D02*
X-50479D01*
X-50409Y79165D01*
X-49927Y78443D01*
X-49205Y77961D01*
X-48854Y77891D01*
Y79516D01*
D02*
G37*
G36*
X-144655D02*
X-146280D01*
Y77891D01*
X-145929Y77961D01*
X-145207Y78443D01*
X-144725Y79165D01*
X-144655Y79516D01*
D02*
G37*
G36*
X-147280D02*
X-148904D01*
X-148834Y79165D01*
X-148352Y78443D01*
X-147631Y77961D01*
X-147280Y77891D01*
Y79516D01*
D02*
G37*
G36*
X-164340D02*
X-165965D01*
Y77891D01*
X-165613Y77961D01*
X-164892Y78443D01*
X-164410Y79165D01*
X-164340Y79516D01*
D02*
G37*
G36*
X-166965D02*
X-168589D01*
X-168519Y79165D01*
X-168037Y78443D01*
X-167316Y77961D01*
X-166965Y77891D01*
Y79516D01*
D02*
G37*
G36*
X194000Y83871D02*
X193200Y83766D01*
X192454Y83457D01*
X191814Y82965D01*
X191323Y82325D01*
X191014Y81580D01*
X190909Y80779D01*
X191014Y79979D01*
X191323Y79234D01*
X191814Y78594D01*
X192454Y78102D01*
X193200Y77794D01*
X194000Y77688D01*
X194800Y77794D01*
X195546Y78102D01*
X196186Y78594D01*
X196677Y79234D01*
X196986Y79979D01*
X197091Y80779D01*
X196986Y81580D01*
X196677Y82325D01*
X196186Y82965D01*
X195546Y83457D01*
X194800Y83766D01*
X194000Y83871D01*
D02*
G37*
G36*
X26666Y76701D02*
X-90319D01*
X-90709Y76623D01*
X-91040Y76402D01*
X-94773Y72669D01*
X-95000Y72714D01*
X-95656Y72584D01*
X-96212Y72212D01*
X-96584Y71656D01*
X-96714Y71000D01*
X-96584Y70344D01*
X-96212Y69788D01*
X-95656Y69416D01*
X-95000Y69286D01*
X-94344Y69416D01*
X-93788Y69788D01*
X-93416Y70344D01*
X-93286Y71000D01*
X-93331Y71227D01*
X-89897Y74661D01*
X-35659D01*
X-35423Y74221D01*
X-35467Y74156D01*
X-35597Y73500D01*
X-35467Y72844D01*
X-35095Y72288D01*
X-34903Y72159D01*
Y54173D01*
X-34825Y53783D01*
X-34604Y53452D01*
X-33937Y52785D01*
X-33982Y52558D01*
X-33851Y51902D01*
X-33480Y51346D01*
X-32924Y50975D01*
X-32268Y50844D01*
X-31612Y50975D01*
X-31056Y51346D01*
X-30684Y51902D01*
X-30554Y52558D01*
X-30684Y53214D01*
X-31056Y53770D01*
X-31612Y54142D01*
X-32268Y54272D01*
X-32495Y54227D01*
X-32863Y54596D01*
Y72159D01*
X-32671Y72288D01*
X-32299Y72844D01*
X-32169Y73500D01*
X-32299Y74156D01*
X-32343Y74221D01*
X-32107Y74661D01*
X26243D01*
X29331Y71574D01*
X29286Y71347D01*
X29416Y70691D01*
X29788Y70135D01*
X30344Y69763D01*
X31000Y69633D01*
X31656Y69763D01*
X32212Y70135D01*
X32584Y70691D01*
X32714Y71347D01*
X32584Y72003D01*
X32212Y72559D01*
X31656Y72931D01*
X31000Y73061D01*
X30773Y73016D01*
X27387Y76402D01*
X27056Y76623D01*
X26666Y76701D01*
D02*
G37*
G36*
X100456Y72469D02*
X99911Y72397D01*
X98938Y71994D01*
X98103Y71353D01*
X97462Y70517D01*
X97059Y69544D01*
X96987Y69000D01*
X100456D01*
Y72469D01*
D02*
G37*
G36*
X194000Y73871D02*
X193200Y73766D01*
X192454Y73457D01*
X191814Y72966D01*
X191323Y72325D01*
X191014Y71580D01*
X190909Y70780D01*
X191014Y69979D01*
X191323Y69234D01*
X191814Y68594D01*
X192454Y68102D01*
X193200Y67794D01*
X194000Y67688D01*
X194800Y67794D01*
X195546Y68102D01*
X196186Y68594D01*
X196677Y69234D01*
X196986Y69979D01*
X197091Y70780D01*
X196986Y71580D01*
X196677Y72325D01*
X196186Y72966D01*
X195546Y73457D01*
X194800Y73766D01*
X194000Y73871D01*
D02*
G37*
G36*
X116704Y72030D02*
X115790Y71910D01*
X114939Y71557D01*
X114207Y70996D01*
X113646Y70265D01*
X113294Y69414D01*
X113173Y68500D01*
X113294Y67586D01*
X113646Y66735D01*
X114207Y66004D01*
X114939Y65443D01*
X115790Y65090D01*
X116704Y64970D01*
X117617Y65090D01*
X118469Y65443D01*
X119200Y66004D01*
X119761Y66735D01*
X120114Y67586D01*
X120234Y68500D01*
X120114Y69414D01*
X119761Y70265D01*
X119200Y70996D01*
X118469Y71557D01*
X117617Y71910D01*
X116704Y72030D01*
D02*
G37*
G36*
X101456Y72469D02*
Y68500D01*
Y64531D01*
X102000Y64603D01*
X102973Y65006D01*
X103808Y65647D01*
X104450Y66483D01*
X104853Y67456D01*
X104893Y67759D01*
X105397D01*
X105420Y67586D01*
X105772Y66735D01*
X106333Y66004D01*
X107065Y65443D01*
X107916Y65090D01*
X108830Y64970D01*
X109743Y65090D01*
X110595Y65443D01*
X111326Y66004D01*
X111887Y66735D01*
X112240Y67586D01*
X112360Y68500D01*
X112240Y69414D01*
X111887Y70265D01*
X111326Y70996D01*
X110595Y71557D01*
X109743Y71910D01*
X108830Y72030D01*
X107916Y71910D01*
X107065Y71557D01*
X106333Y70996D01*
X105772Y70265D01*
X105420Y69414D01*
X105397Y69241D01*
X104893D01*
X104853Y69544D01*
X104450Y70517D01*
X103808Y71353D01*
X102973Y71994D01*
X102000Y72397D01*
X101456Y72469D01*
D02*
G37*
G36*
X100456Y68000D02*
X96987D01*
X97059Y67456D01*
X97462Y66483D01*
X98103Y65647D01*
X98938Y65006D01*
X99911Y64603D01*
X100456Y64531D01*
Y68000D01*
D02*
G37*
G36*
X256264Y62455D02*
X255913Y62385D01*
X255191Y61903D01*
X254709Y61182D01*
X254639Y60831D01*
X256264D01*
Y62455D01*
D02*
G37*
G36*
X99783D02*
Y60831D01*
X101408D01*
X101338Y61182D01*
X100856Y61903D01*
X100135Y62385D01*
X99783Y62455D01*
D02*
G37*
G36*
X98783D02*
X98432Y62385D01*
X97711Y61903D01*
X97229Y61182D01*
X97159Y60831D01*
X98783D01*
Y62455D01*
D02*
G37*
G36*
X80098D02*
Y60831D01*
X81723D01*
X81653Y61182D01*
X81171Y61903D01*
X80449Y62385D01*
X80098Y62455D01*
D02*
G37*
G36*
X79098D02*
X78747Y62385D01*
X78026Y61903D01*
X77544Y61182D01*
X77474Y60831D01*
X79098D01*
Y62455D01*
D02*
G37*
G36*
X-116752D02*
Y60831D01*
X-115128D01*
X-115197Y61182D01*
X-115680Y61903D01*
X-116401Y62385D01*
X-116752Y62455D01*
D02*
G37*
G36*
X-117752D02*
X-118103Y62385D01*
X-118825Y61903D01*
X-119307Y61182D01*
X-119376Y60831D01*
X-117752D01*
Y62455D01*
D02*
G37*
G36*
X-136437D02*
Y60831D01*
X-134813D01*
X-134882Y61182D01*
X-135364Y61903D01*
X-136086Y62385D01*
X-136437Y62455D01*
D02*
G37*
G36*
X-137437D02*
X-137788Y62385D01*
X-138510Y61903D01*
X-138992Y61182D01*
X-139061Y60831D01*
X-137437D01*
Y62455D01*
D02*
G37*
G36*
X-215177D02*
Y60831D01*
X-213553D01*
X-213623Y61182D01*
X-214105Y61903D01*
X-214826Y62385D01*
X-215177Y62455D01*
D02*
G37*
G36*
X-216177D02*
X-216528Y62385D01*
X-217250Y61903D01*
X-217732Y61182D01*
X-217801Y60831D01*
X-216177D01*
Y62455D01*
D02*
G37*
G36*
X-234862D02*
Y60831D01*
X-233238D01*
X-233308Y61182D01*
X-233790Y61903D01*
X-234511Y62385D01*
X-234862Y62455D01*
D02*
G37*
G36*
X-235862D02*
X-236213Y62385D01*
X-236935Y61903D01*
X-237417Y61182D01*
X-237487Y60831D01*
X-235862D01*
Y62455D01*
D02*
G37*
G36*
X256264Y59831D02*
X254639D01*
X254709Y59480D01*
X255191Y58758D01*
X255913Y58276D01*
X256264Y58206D01*
Y59831D01*
D02*
G37*
G36*
X101408D02*
X99783D01*
Y58206D01*
X100135Y58276D01*
X100856Y58758D01*
X101338Y59480D01*
X101408Y59831D01*
D02*
G37*
G36*
X98783D02*
X97159D01*
X97229Y59480D01*
X97711Y58758D01*
X98432Y58276D01*
X98783Y58206D01*
Y59831D01*
D02*
G37*
G36*
X81723D02*
X80098D01*
Y58206D01*
X80449Y58276D01*
X81171Y58758D01*
X81653Y59480D01*
X81723Y59831D01*
D02*
G37*
G36*
X79098D02*
X77474D01*
X77544Y59480D01*
X78026Y58758D01*
X78747Y58276D01*
X79098Y58206D01*
Y59831D01*
D02*
G37*
G36*
X-115128D02*
X-116752D01*
Y58206D01*
X-116401Y58276D01*
X-115680Y58758D01*
X-115197Y59480D01*
X-115128Y59831D01*
D02*
G37*
G36*
X-117752D02*
X-119376D01*
X-119307Y59480D01*
X-118825Y58758D01*
X-118103Y58276D01*
X-117752Y58206D01*
Y59831D01*
D02*
G37*
G36*
X-134813D02*
X-136437D01*
Y58206D01*
X-136086Y58276D01*
X-135364Y58758D01*
X-134882Y59480D01*
X-134813Y59831D01*
D02*
G37*
G36*
X-137437D02*
X-139061D01*
X-138992Y59480D01*
X-138510Y58758D01*
X-137788Y58276D01*
X-137437Y58206D01*
Y59831D01*
D02*
G37*
G36*
X-213553D02*
X-215177D01*
Y58206D01*
X-214826Y58276D01*
X-214105Y58758D01*
X-213623Y59480D01*
X-213553Y59831D01*
D02*
G37*
G36*
X-216177D02*
X-217801D01*
X-217732Y59480D01*
X-217250Y58758D01*
X-216528Y58276D01*
X-216177Y58206D01*
Y59831D01*
D02*
G37*
G36*
X-233238D02*
X-234862D01*
Y58206D01*
X-234511Y58276D01*
X-233790Y58758D01*
X-233308Y59480D01*
X-233238Y59831D01*
D02*
G37*
G36*
X-235862D02*
X-237487D01*
X-237417Y59480D01*
X-236935Y58758D01*
X-236213Y58276D01*
X-235862Y58206D01*
Y59831D01*
D02*
G37*
G36*
X194000Y63871D02*
X193200Y63766D01*
X192454Y63457D01*
X191814Y62966D01*
X191323Y62325D01*
X191014Y61580D01*
X190909Y60780D01*
X191014Y59979D01*
X191323Y59234D01*
X191814Y58594D01*
X192454Y58102D01*
X193200Y57793D01*
X194000Y57688D01*
X194800Y57793D01*
X195546Y58102D01*
X196186Y58594D01*
X196677Y59234D01*
X196986Y59979D01*
X197091Y60780D01*
X196986Y61580D01*
X196677Y62325D01*
X196186Y62966D01*
X195546Y63457D01*
X194800Y63766D01*
X194000Y63871D01*
D02*
G37*
G36*
X100456Y48355D02*
X99911Y48284D01*
X98938Y47881D01*
X98103Y47240D01*
X97462Y46404D01*
X97059Y45431D01*
X96987Y44887D01*
X100456D01*
Y48355D01*
D02*
G37*
G36*
X229000Y57710D02*
X227648Y57577D01*
X226348Y57183D01*
X225149Y56542D01*
X224099Y55681D01*
X223237Y54630D01*
X222597Y53432D01*
X222202Y52132D01*
X222069Y50779D01*
X222202Y49427D01*
X222597Y48127D01*
X223237Y46929D01*
X224099Y45879D01*
X225149Y45017D01*
X226348Y44376D01*
X227648Y43982D01*
X229000Y43848D01*
X230352Y43982D01*
X231652Y44376D01*
X232851Y45017D01*
X233901Y45879D01*
X234763Y46929D01*
X235403Y48127D01*
X235798Y49427D01*
X235931Y50779D01*
X235798Y52132D01*
X235403Y53432D01*
X234763Y54630D01*
X233901Y55681D01*
X232851Y56542D01*
X231652Y57183D01*
X230352Y57577D01*
X229000Y57710D01*
D02*
G37*
G36*
X247421Y42770D02*
Y41146D01*
X249046D01*
X248976Y41497D01*
X248494Y42218D01*
X247772Y42700D01*
X247421Y42770D01*
D02*
G37*
G36*
X246421D02*
X246070Y42700D01*
X245349Y42218D01*
X244867Y41497D01*
X244797Y41146D01*
X246421D01*
Y42770D01*
D02*
G37*
G36*
X227736D02*
Y41146D01*
X229361D01*
X229291Y41497D01*
X228809Y42218D01*
X228087Y42700D01*
X227736Y42770D01*
D02*
G37*
G36*
X226736D02*
X226385Y42700D01*
X225664Y42218D01*
X225182Y41497D01*
X225112Y41146D01*
X226736D01*
Y42770D01*
D02*
G37*
G36*
X89941D02*
Y41146D01*
X91565D01*
X91496Y41497D01*
X91013Y42218D01*
X90292Y42700D01*
X89941Y42770D01*
D02*
G37*
G36*
X88941D02*
X88590Y42700D01*
X87868Y42218D01*
X87386Y41497D01*
X87317Y41146D01*
X88941D01*
Y42770D01*
D02*
G37*
G36*
X70256D02*
Y41146D01*
X71880D01*
X71811Y41497D01*
X71328Y42218D01*
X70607Y42700D01*
X70256Y42770D01*
D02*
G37*
G36*
X69256D02*
X68905Y42700D01*
X68183Y42218D01*
X67701Y41497D01*
X67632Y41146D01*
X69256D01*
Y42770D01*
D02*
G37*
G36*
X-28169D02*
Y41146D01*
X-26545D01*
X-26615Y41497D01*
X-27097Y42218D01*
X-27818Y42700D01*
X-28169Y42770D01*
D02*
G37*
G36*
X-29169D02*
X-29520Y42700D01*
X-30242Y42218D01*
X-30724Y41497D01*
X-30794Y41146D01*
X-29169D01*
Y42770D01*
D02*
G37*
G36*
X-67539D02*
Y41146D01*
X-65915D01*
X-65985Y41497D01*
X-66467Y42218D01*
X-67188Y42700D01*
X-67539Y42770D01*
D02*
G37*
G36*
X-68539D02*
X-68890Y42700D01*
X-69612Y42218D01*
X-70094Y41497D01*
X-70164Y41146D01*
X-68539D01*
Y42770D01*
D02*
G37*
G36*
X-87224D02*
Y41146D01*
X-85600D01*
X-85670Y41497D01*
X-86152Y42218D01*
X-86873Y42700D01*
X-87224Y42770D01*
D02*
G37*
G36*
X-88224D02*
X-88575Y42700D01*
X-89297Y42218D01*
X-89779Y41497D01*
X-89849Y41146D01*
X-88224D01*
Y42770D01*
D02*
G37*
G36*
X-106909D02*
Y41146D01*
X-105285D01*
X-105355Y41497D01*
X-105837Y42218D01*
X-106558Y42700D01*
X-106909Y42770D01*
D02*
G37*
G36*
X-107909D02*
X-108261Y42700D01*
X-108982Y42218D01*
X-109464Y41497D01*
X-109534Y41146D01*
X-107909D01*
Y42770D01*
D02*
G37*
G36*
X-126594D02*
Y41146D01*
X-124970D01*
X-125040Y41497D01*
X-125522Y42218D01*
X-126243Y42700D01*
X-126594Y42770D01*
D02*
G37*
G36*
X-127594D02*
X-127945Y42700D01*
X-128667Y42218D01*
X-129149Y41497D01*
X-129219Y41146D01*
X-127594D01*
Y42770D01*
D02*
G37*
G36*
X-146280D02*
Y41146D01*
X-144655D01*
X-144725Y41497D01*
X-145207Y42218D01*
X-145929Y42700D01*
X-146280Y42770D01*
D02*
G37*
G36*
X-147280D02*
X-147631Y42700D01*
X-148352Y42218D01*
X-148834Y41497D01*
X-148904Y41146D01*
X-147280D01*
Y42770D01*
D02*
G37*
G36*
X-165965D02*
Y41146D01*
X-164340D01*
X-164410Y41497D01*
X-164892Y42218D01*
X-165613Y42700D01*
X-165965Y42770D01*
D02*
G37*
G36*
X-166965D02*
X-167316Y42700D01*
X-168037Y42218D01*
X-168519Y41497D01*
X-168589Y41146D01*
X-166965D01*
Y42770D01*
D02*
G37*
G36*
X-205335D02*
Y41146D01*
X-203710D01*
X-203780Y41497D01*
X-204262Y42218D01*
X-204984Y42700D01*
X-205335Y42770D01*
D02*
G37*
G36*
X-206335D02*
X-206686Y42700D01*
X-207407Y42218D01*
X-207889Y41497D01*
X-207959Y41146D01*
X-206335D01*
Y42770D01*
D02*
G37*
G36*
X116704Y47917D02*
X115790Y47797D01*
X114939Y47444D01*
X114207Y46883D01*
X113646Y46152D01*
X113294Y45300D01*
X113173Y44387D01*
X113294Y43473D01*
X113646Y42622D01*
X114207Y41891D01*
X114939Y41330D01*
X115790Y40977D01*
X116704Y40857D01*
X117617Y40977D01*
X118469Y41330D01*
X119200Y41891D01*
X119761Y42622D01*
X120114Y43473D01*
X120234Y44387D01*
X120114Y45300D01*
X119761Y46152D01*
X119200Y46883D01*
X118469Y47444D01*
X117617Y47797D01*
X116704Y47917D01*
D02*
G37*
G36*
X101456Y48355D02*
Y44387D01*
Y40418D01*
X102000Y40490D01*
X102973Y40893D01*
X103808Y41534D01*
X104450Y42370D01*
X104853Y43343D01*
X104893Y43646D01*
X105397D01*
X105420Y43473D01*
X105772Y42622D01*
X106333Y41891D01*
X107065Y41330D01*
X107916Y40977D01*
X108830Y40857D01*
X109743Y40977D01*
X110595Y41330D01*
X111326Y41891D01*
X111887Y42622D01*
X112240Y43473D01*
X112360Y44387D01*
X112240Y45300D01*
X111887Y46152D01*
X111326Y46883D01*
X110595Y47444D01*
X109743Y47797D01*
X108830Y47917D01*
X107916Y47797D01*
X107065Y47444D01*
X106333Y46883D01*
X105772Y46152D01*
X105420Y45300D01*
X105397Y45127D01*
X104893D01*
X104853Y45431D01*
X104450Y46404D01*
X103808Y47240D01*
X102973Y47881D01*
X102000Y48284D01*
X101456Y48355D01*
D02*
G37*
G36*
X100456Y43887D02*
X96987D01*
X97059Y43343D01*
X97462Y42370D01*
X98103Y41534D01*
X98938Y40893D01*
X99911Y40490D01*
X100456Y40418D01*
Y43887D01*
D02*
G37*
G36*
X249046Y40146D02*
X247421D01*
Y38521D01*
X247772Y38591D01*
X248494Y39073D01*
X248976Y39795D01*
X249046Y40146D01*
D02*
G37*
G36*
X246421D02*
X244797D01*
X244867Y39795D01*
X245349Y39073D01*
X246070Y38591D01*
X246421Y38521D01*
Y40146D01*
D02*
G37*
G36*
X229361D02*
X227736D01*
Y38521D01*
X228087Y38591D01*
X228809Y39073D01*
X229291Y39795D01*
X229361Y40146D01*
D02*
G37*
G36*
X226736D02*
X225112D01*
X225182Y39795D01*
X225664Y39073D01*
X226385Y38591D01*
X226736Y38521D01*
Y40146D01*
D02*
G37*
G36*
X-26545D02*
X-28169D01*
Y38521D01*
X-27818Y38591D01*
X-27097Y39073D01*
X-26615Y39795D01*
X-26545Y40146D01*
D02*
G37*
G36*
X-29169D02*
X-30794D01*
X-30724Y39795D01*
X-30242Y39073D01*
X-29520Y38591D01*
X-29169Y38521D01*
Y40146D01*
D02*
G37*
G36*
X-65915D02*
X-67539D01*
Y38521D01*
X-67188Y38591D01*
X-66467Y39073D01*
X-65985Y39795D01*
X-65915Y40146D01*
D02*
G37*
G36*
X-68539D02*
X-70164D01*
X-70094Y39795D01*
X-69612Y39073D01*
X-68890Y38591D01*
X-68539Y38521D01*
Y40146D01*
D02*
G37*
G36*
X-85600D02*
X-87224D01*
Y38521D01*
X-86873Y38591D01*
X-86152Y39073D01*
X-85670Y39795D01*
X-85600Y40146D01*
D02*
G37*
G36*
X-88224D02*
X-89849D01*
X-89779Y39795D01*
X-89297Y39073D01*
X-88575Y38591D01*
X-88224Y38521D01*
Y40146D01*
D02*
G37*
G36*
X-105285D02*
X-106909D01*
Y38521D01*
X-106558Y38591D01*
X-105837Y39073D01*
X-105355Y39795D01*
X-105285Y40146D01*
D02*
G37*
G36*
X-107909D02*
X-109534D01*
X-109464Y39795D01*
X-108982Y39073D01*
X-108261Y38591D01*
X-107909Y38521D01*
Y40146D01*
D02*
G37*
G36*
X-124970D02*
X-126594D01*
Y38521D01*
X-126243Y38591D01*
X-125522Y39073D01*
X-125040Y39795D01*
X-124970Y40146D01*
D02*
G37*
G36*
X-127594D02*
X-129219D01*
X-129149Y39795D01*
X-128667Y39073D01*
X-127945Y38591D01*
X-127594Y38521D01*
Y40146D01*
D02*
G37*
G36*
X-144655D02*
X-146280D01*
Y38521D01*
X-145929Y38591D01*
X-145207Y39073D01*
X-144725Y39795D01*
X-144655Y40146D01*
D02*
G37*
G36*
X-147280D02*
X-148904D01*
X-148834Y39795D01*
X-148352Y39073D01*
X-147631Y38591D01*
X-147280Y38521D01*
Y40146D01*
D02*
G37*
G36*
X-164340D02*
X-165965D01*
Y38521D01*
X-165613Y38591D01*
X-164892Y39073D01*
X-164410Y39795D01*
X-164340Y40146D01*
D02*
G37*
G36*
X-166965D02*
X-168589D01*
X-168519Y39795D01*
X-168037Y39073D01*
X-167316Y38591D01*
X-166965Y38521D01*
Y40146D01*
D02*
G37*
G36*
X-203710D02*
X-205335D01*
Y38521D01*
X-204984Y38591D01*
X-204262Y39073D01*
X-203780Y39795D01*
X-203710Y40146D01*
D02*
G37*
G36*
X-206335D02*
X-207959D01*
X-207889Y39795D01*
X-207407Y39073D01*
X-206686Y38591D01*
X-206335Y38521D01*
Y40146D01*
D02*
G37*
G36*
X130935D02*
X126687D01*
X126757Y39795D01*
X127239Y39073D01*
X127887Y38640D01*
X127870Y38331D01*
X127803Y38140D01*
X90449D01*
X90382Y38331D01*
X90365Y38640D01*
X91013Y39073D01*
X91496Y39795D01*
X91565Y40146D01*
X87317D01*
X87386Y39795D01*
X87868Y39073D01*
X88516Y38640D01*
X88500Y38331D01*
X88433Y38140D01*
X70763D01*
X70697Y38331D01*
X70680Y38640D01*
X71328Y39073D01*
X71811Y39795D01*
X71880Y40146D01*
X67632D01*
X67701Y39795D01*
X68183Y39073D01*
X68831Y38640D01*
X68814Y38331D01*
X68748Y38140D01*
X24242D01*
X23852Y38063D01*
X23521Y37842D01*
X21848Y36169D01*
X21621Y36214D01*
X20965Y36084D01*
X20409Y35712D01*
X20038Y35156D01*
X19907Y34500D01*
X20038Y33844D01*
X20409Y33288D01*
X20965Y32916D01*
X21621Y32786D01*
X22277Y32916D01*
X22833Y33288D01*
X23205Y33844D01*
X23335Y34500D01*
X23290Y34727D01*
X24664Y36101D01*
X137659D01*
X137788Y35909D01*
X138344Y35537D01*
X139000Y35407D01*
X139656Y35537D01*
X140212Y35909D01*
X140584Y36465D01*
X140714Y37121D01*
X140584Y37776D01*
X140212Y38333D01*
X139656Y38704D01*
X139000Y38835D01*
X138344Y38704D01*
X137788Y38333D01*
X137659Y38140D01*
X129819D01*
X129752Y38331D01*
X129736Y38640D01*
X130384Y39073D01*
X130866Y39795D01*
X130935Y40146D01*
D02*
G37*
G36*
X124779Y32590D02*
X124124Y32459D01*
X123567Y32087D01*
X123196Y31531D01*
X123065Y30876D01*
X123196Y30220D01*
X123567Y29664D01*
X124124Y29292D01*
X124779Y29161D01*
X125435Y29292D01*
X125991Y29664D01*
X126120Y29856D01*
X191147D01*
X196831Y24172D01*
X196786Y23945D01*
X196916Y23289D01*
X197288Y22733D01*
X197844Y22361D01*
X198500Y22231D01*
X199156Y22361D01*
X199712Y22733D01*
X200084Y23289D01*
X200214Y23945D01*
X200084Y24601D01*
X199712Y25157D01*
X199156Y25528D01*
X198500Y25659D01*
X198273Y25614D01*
X192290Y31596D01*
X191960Y31817D01*
X191569Y31895D01*
X126120D01*
X125991Y32087D01*
X125435Y32459D01*
X124779Y32590D01*
D02*
G37*
G36*
X256264Y23085D02*
X255913Y23015D01*
X255191Y22533D01*
X254709Y21812D01*
X254639Y21461D01*
X256264D01*
Y23085D01*
D02*
G37*
G36*
X237579D02*
Y21461D01*
X239203D01*
X239133Y21812D01*
X238651Y22533D01*
X237930Y23015D01*
X237579Y23085D01*
D02*
G37*
G36*
X236579D02*
X236228Y23015D01*
X235506Y22533D01*
X235024Y21812D01*
X234954Y21461D01*
X236579D01*
Y23085D01*
D02*
G37*
G36*
X217894D02*
Y21461D01*
X219518D01*
X219448Y21812D01*
X218966Y22533D01*
X218245Y23015D01*
X217894Y23085D01*
D02*
G37*
G36*
X216894D02*
X216543Y23015D01*
X215821Y22533D01*
X215339Y21812D01*
X215269Y21461D01*
X216894D01*
Y23085D01*
D02*
G37*
G36*
X178524D02*
Y21461D01*
X180148D01*
X180078Y21812D01*
X179596Y22533D01*
X178875Y23015D01*
X178524Y23085D01*
D02*
G37*
G36*
X177524D02*
X177173Y23015D01*
X176451Y22533D01*
X175969Y21812D01*
X175899Y21461D01*
X177524D01*
Y23085D01*
D02*
G37*
G36*
X80098D02*
Y21461D01*
X81723D01*
X81653Y21812D01*
X81171Y22533D01*
X80449Y23015D01*
X80098Y23085D01*
D02*
G37*
G36*
X79098D02*
X78747Y23015D01*
X78026Y22533D01*
X77544Y21812D01*
X77474Y21461D01*
X79098D01*
Y23085D01*
D02*
G37*
G36*
X60413D02*
Y21461D01*
X62038D01*
X61968Y21812D01*
X61486Y22533D01*
X60764Y23015D01*
X60413Y23085D01*
D02*
G37*
G36*
X59413D02*
X59062Y23015D01*
X58341Y22533D01*
X57859Y21812D01*
X57789Y21461D01*
X59413D01*
Y23085D01*
D02*
G37*
G36*
X-57697D02*
Y21461D01*
X-56072D01*
X-56142Y21812D01*
X-56624Y22533D01*
X-57346Y23015D01*
X-57697Y23085D01*
D02*
G37*
G36*
X-58697D02*
X-59048Y23015D01*
X-59769Y22533D01*
X-60251Y21812D01*
X-60321Y21461D01*
X-58697D01*
Y23085D01*
D02*
G37*
G36*
X-77382D02*
Y21461D01*
X-75757D01*
X-75827Y21812D01*
X-76309Y22533D01*
X-77031Y23015D01*
X-77382Y23085D01*
D02*
G37*
G36*
X-78382D02*
X-78733Y23015D01*
X-79454Y22533D01*
X-79936Y21812D01*
X-80006Y21461D01*
X-78382D01*
Y23085D01*
D02*
G37*
G36*
X-116752D02*
Y21461D01*
X-115128D01*
X-115197Y21812D01*
X-115680Y22533D01*
X-116401Y23015D01*
X-116752Y23085D01*
D02*
G37*
G36*
X-117752D02*
X-118103Y23015D01*
X-118825Y22533D01*
X-119307Y21812D01*
X-119376Y21461D01*
X-117752D01*
Y23085D01*
D02*
G37*
G36*
X-136437D02*
Y21461D01*
X-134813D01*
X-134882Y21812D01*
X-135364Y22533D01*
X-136086Y23015D01*
X-136437Y23085D01*
D02*
G37*
G36*
X-137437D02*
X-137788Y23015D01*
X-138510Y22533D01*
X-138992Y21812D01*
X-139061Y21461D01*
X-137437D01*
Y23085D01*
D02*
G37*
G36*
X-156122D02*
Y21461D01*
X-154498D01*
X-154568Y21812D01*
X-155050Y22533D01*
X-155771Y23015D01*
X-156122Y23085D01*
D02*
G37*
G36*
X-157122D02*
X-157473Y23015D01*
X-158194Y22533D01*
X-158677Y21812D01*
X-158746Y21461D01*
X-157122D01*
Y23085D01*
D02*
G37*
G36*
X-175807D02*
Y21461D01*
X-174183D01*
X-174252Y21812D01*
X-174735Y22533D01*
X-175456Y23015D01*
X-175807Y23085D01*
D02*
G37*
G36*
X-176807D02*
X-177158Y23015D01*
X-177880Y22533D01*
X-178362Y21812D01*
X-178431Y21461D01*
X-176807D01*
Y23085D01*
D02*
G37*
G36*
X-215177D02*
Y21461D01*
X-213553D01*
X-213623Y21812D01*
X-214105Y22533D01*
X-214826Y23015D01*
X-215177Y23085D01*
D02*
G37*
G36*
X-216177D02*
X-216528Y23015D01*
X-217250Y22533D01*
X-217732Y21812D01*
X-217801Y21461D01*
X-216177D01*
Y23085D01*
D02*
G37*
G36*
X256264Y20461D02*
X254639D01*
X254709Y20110D01*
X255191Y19388D01*
X255913Y18906D01*
X256264Y18836D01*
Y20461D01*
D02*
G37*
G36*
X239203D02*
X237579D01*
Y18836D01*
X237930Y18906D01*
X238651Y19388D01*
X239133Y20110D01*
X239203Y20461D01*
D02*
G37*
G36*
X236579D02*
X234954D01*
X235024Y20110D01*
X235506Y19388D01*
X236228Y18906D01*
X236579Y18836D01*
Y20461D01*
D02*
G37*
G36*
X219518D02*
X217894D01*
Y18836D01*
X218245Y18906D01*
X218966Y19388D01*
X219448Y20110D01*
X219518Y20461D01*
D02*
G37*
G36*
X216894D02*
X215269D01*
X215339Y20110D01*
X215821Y19388D01*
X216543Y18906D01*
X216894Y18836D01*
Y20461D01*
D02*
G37*
G36*
X180148D02*
X178524D01*
Y18836D01*
X178875Y18906D01*
X179596Y19388D01*
X180078Y20110D01*
X180148Y20461D01*
D02*
G37*
G36*
X177524D02*
X175899D01*
X175969Y20110D01*
X176451Y19388D01*
X177173Y18906D01*
X177524Y18836D01*
Y20461D01*
D02*
G37*
G36*
X81723D02*
X80098D01*
Y18836D01*
X80449Y18906D01*
X81171Y19388D01*
X81653Y20110D01*
X81723Y20461D01*
D02*
G37*
G36*
X79098D02*
X77474D01*
X77544Y20110D01*
X78026Y19388D01*
X78747Y18906D01*
X79098Y18836D01*
Y20461D01*
D02*
G37*
G36*
X62038D02*
X60413D01*
Y18836D01*
X60764Y18906D01*
X61486Y19388D01*
X61968Y20110D01*
X62038Y20461D01*
D02*
G37*
G36*
X59413D02*
X57789D01*
X57859Y20110D01*
X58341Y19388D01*
X59062Y18906D01*
X59413Y18836D01*
Y20461D01*
D02*
G37*
G36*
X-56072D02*
X-57697D01*
Y18836D01*
X-57346Y18906D01*
X-56624Y19388D01*
X-56142Y20110D01*
X-56072Y20461D01*
D02*
G37*
G36*
X-58697D02*
X-60321D01*
X-60251Y20110D01*
X-59769Y19388D01*
X-59048Y18906D01*
X-58697Y18836D01*
Y20461D01*
D02*
G37*
G36*
X-75757D02*
X-77382D01*
Y18836D01*
X-77031Y18906D01*
X-76309Y19388D01*
X-75827Y20110D01*
X-75757Y20461D01*
D02*
G37*
G36*
X-78382D02*
X-80006D01*
X-79936Y20110D01*
X-79454Y19388D01*
X-78733Y18906D01*
X-78382Y18836D01*
Y20461D01*
D02*
G37*
G36*
X-115128D02*
X-116752D01*
Y18836D01*
X-116401Y18906D01*
X-115680Y19388D01*
X-115197Y20110D01*
X-115128Y20461D01*
D02*
G37*
G36*
X-117752D02*
X-119376D01*
X-119307Y20110D01*
X-118825Y19388D01*
X-118103Y18906D01*
X-117752Y18836D01*
Y20461D01*
D02*
G37*
G36*
X-134813D02*
X-136437D01*
Y18836D01*
X-136086Y18906D01*
X-135364Y19388D01*
X-134882Y20110D01*
X-134813Y20461D01*
D02*
G37*
G36*
X-137437D02*
X-139061D01*
X-138992Y20110D01*
X-138510Y19388D01*
X-137788Y18906D01*
X-137437Y18836D01*
Y20461D01*
D02*
G37*
G36*
X-154498D02*
X-156122D01*
Y18836D01*
X-155771Y18906D01*
X-155050Y19388D01*
X-154568Y20110D01*
X-154498Y20461D01*
D02*
G37*
G36*
X-157122D02*
X-158746D01*
X-158677Y20110D01*
X-158194Y19388D01*
X-157473Y18906D01*
X-157122Y18836D01*
Y20461D01*
D02*
G37*
G36*
X-174183D02*
X-175807D01*
Y18836D01*
X-175456Y18906D01*
X-174735Y19388D01*
X-174252Y20110D01*
X-174183Y20461D01*
D02*
G37*
G36*
X-176807D02*
X-178431D01*
X-178362Y20110D01*
X-177880Y19388D01*
X-177158Y18906D01*
X-176807Y18836D01*
Y20461D01*
D02*
G37*
G36*
X-213553D02*
X-215177D01*
Y18836D01*
X-214826Y18906D01*
X-214105Y19388D01*
X-213623Y20110D01*
X-213553Y20461D01*
D02*
G37*
G36*
X-216177D02*
X-217801D01*
X-217732Y20110D01*
X-217250Y19388D01*
X-216528Y18906D01*
X-216177Y18836D01*
Y20461D01*
D02*
G37*
G36*
X247421Y3400D02*
Y1776D01*
X249046D01*
X248976Y2127D01*
X248494Y2848D01*
X247772Y3330D01*
X247421Y3400D01*
D02*
G37*
G36*
X246421D02*
X246070Y3330D01*
X245349Y2848D01*
X244867Y2127D01*
X244797Y1776D01*
X246421D01*
Y3400D01*
D02*
G37*
G36*
X227736D02*
Y1776D01*
X229361D01*
X229291Y2127D01*
X228809Y2848D01*
X228087Y3330D01*
X227736Y3400D01*
D02*
G37*
G36*
X226736D02*
X226385Y3330D01*
X225664Y2848D01*
X225182Y2127D01*
X225112Y1776D01*
X226736D01*
Y3400D01*
D02*
G37*
G36*
X-205335D02*
Y1776D01*
X-203710D01*
X-203780Y2127D01*
X-204262Y2848D01*
X-204984Y3330D01*
X-205335Y3400D01*
D02*
G37*
G36*
X-206335D02*
X-206686Y3330D01*
X-207407Y2848D01*
X-207889Y2127D01*
X-207959Y1776D01*
X-206335D01*
Y3400D01*
D02*
G37*
G36*
X-198611Y2624D02*
X-198962Y2555D01*
X-199683Y2073D01*
X-200166Y1351D01*
X-200235Y1000D01*
X-198611D01*
Y2624D01*
D02*
G37*
G36*
X249046Y776D02*
X247421D01*
Y-849D01*
X247772Y-779D01*
X248494Y-297D01*
X248976Y425D01*
X249046Y776D01*
D02*
G37*
G36*
X246421D02*
X244797D01*
X244867Y425D01*
X245349Y-297D01*
X246070Y-779D01*
X246421Y-849D01*
Y776D01*
D02*
G37*
G36*
X229361D02*
X227736D01*
Y-849D01*
X228087Y-779D01*
X228809Y-297D01*
X229291Y425D01*
X229361Y776D01*
D02*
G37*
G36*
X226736D02*
X225112D01*
X225182Y425D01*
X225664Y-297D01*
X226385Y-779D01*
X226736Y-849D01*
Y776D01*
D02*
G37*
G36*
X-203710D02*
X-205335D01*
Y-849D01*
X-204984Y-779D01*
X-204262Y-297D01*
X-203780Y425D01*
X-203710Y776D01*
D02*
G37*
G36*
X-206335D02*
X-207959D01*
X-207889Y425D01*
X-207407Y-297D01*
X-206686Y-779D01*
X-206335Y-849D01*
Y776D01*
D02*
G37*
G36*
X-198611Y0D02*
X-200235D01*
X-200166Y-351D01*
X-199683Y-1072D01*
X-198962Y-1555D01*
X-198611Y-1624D01*
Y0D01*
D02*
G37*
G36*
X256264Y-16285D02*
X255913Y-16355D01*
X255191Y-16837D01*
X254709Y-17558D01*
X254639Y-17909D01*
X256264D01*
Y-16285D01*
D02*
G37*
G36*
X237579D02*
Y-17909D01*
X239203D01*
X239133Y-17558D01*
X238651Y-16837D01*
X237930Y-16355D01*
X237579Y-16285D01*
D02*
G37*
G36*
X236579D02*
X236228Y-16355D01*
X235506Y-16837D01*
X235024Y-17558D01*
X234954Y-17909D01*
X236579D01*
Y-16285D01*
D02*
G37*
G36*
X197209D02*
X196858Y-16355D01*
X196136Y-16837D01*
X195654Y-17558D01*
X195584Y-17909D01*
X197209D01*
Y-16285D01*
D02*
G37*
G36*
X-195492D02*
Y-17909D01*
X-193868D01*
X-193938Y-17558D01*
X-194420Y-16837D01*
X-195141Y-16355D01*
X-195492Y-16285D01*
D02*
G37*
G36*
X-196492D02*
X-196843Y-16355D01*
X-197565Y-16837D01*
X-198047Y-17558D01*
X-198117Y-17909D01*
X-196492D01*
Y-16285D01*
D02*
G37*
G36*
X256264Y-18909D02*
X254639D01*
X254709Y-19261D01*
X255191Y-19982D01*
X255913Y-20464D01*
X256264Y-20534D01*
Y-18909D01*
D02*
G37*
G36*
X239203D02*
X237579D01*
Y-20534D01*
X237930Y-20464D01*
X238651Y-19982D01*
X239133Y-19261D01*
X239203Y-18909D01*
D02*
G37*
G36*
X236579D02*
X234954D01*
X235024Y-19261D01*
X235506Y-19982D01*
X236228Y-20464D01*
X236579Y-20534D01*
Y-18909D01*
D02*
G37*
G36*
X-193868D02*
X-195492D01*
Y-20534D01*
X-195141Y-20464D01*
X-194420Y-19982D01*
X-193938Y-19261D01*
X-193868Y-18909D01*
D02*
G37*
G36*
X-196492D02*
X-198117D01*
X-198047Y-19261D01*
X-197565Y-19982D01*
X-196843Y-20464D01*
X-196492Y-20534D01*
Y-18909D01*
D02*
G37*
G36*
X129311Y3400D02*
Y1776D01*
X130935D01*
X130866Y2127D01*
X130384Y2848D01*
X129662Y3330D01*
X129311Y3400D01*
D02*
G37*
G36*
X128311D02*
X127960Y3330D01*
X127239Y2848D01*
X126757Y2127D01*
X126687Y1776D01*
X128311D01*
Y3400D01*
D02*
G37*
G36*
X192940Y2624D02*
Y1000D01*
X194564D01*
X194495Y1351D01*
X194013Y2073D01*
X193291Y2555D01*
X192940Y2624D01*
D02*
G37*
G36*
X191940D02*
X191589Y2555D01*
X190868Y2073D01*
X190386Y1351D01*
X190316Y1000D01*
X191940D01*
Y2624D01*
D02*
G37*
G36*
X170306Y776D02*
X168681D01*
Y-849D01*
X169032Y-779D01*
X169754Y-297D01*
X170236Y425D01*
X170306Y776D01*
D02*
G37*
G36*
X167681D02*
X166057D01*
X166127Y425D01*
X166609Y-297D01*
X167330Y-779D01*
X167681Y-849D01*
Y776D01*
D02*
G37*
G36*
X150620D02*
X148996D01*
Y-849D01*
X149347Y-779D01*
X150069Y-297D01*
X150551Y425D01*
X150620Y776D01*
D02*
G37*
G36*
X147996D02*
X146372D01*
X146441Y425D01*
X146924Y-297D01*
X147645Y-779D01*
X147996Y-849D01*
Y776D01*
D02*
G37*
G36*
X130935D02*
X129311D01*
Y-849D01*
X129662Y-779D01*
X130384Y-297D01*
X130866Y425D01*
X130935Y776D01*
D02*
G37*
G36*
X128311D02*
X126687D01*
X126757Y425D01*
X127239Y-297D01*
X127960Y-779D01*
X128311Y-849D01*
Y776D01*
D02*
G37*
G36*
X139154Y-16285D02*
Y-17909D01*
X140778D01*
X140708Y-17558D01*
X140226Y-16837D01*
X139505Y-16355D01*
X139154Y-16285D01*
D02*
G37*
G36*
X99783D02*
Y-17909D01*
X101408D01*
X101338Y-17558D01*
X100856Y-16837D01*
X100135Y-16355D01*
X99783Y-16285D01*
D02*
G37*
G36*
X98783D02*
X98432Y-16355D01*
X97711Y-16837D01*
X97229Y-17558D01*
X97159Y-17909D01*
X98783D01*
Y-16285D01*
D02*
G37*
G36*
X1358D02*
Y-17909D01*
X2983D01*
X2913Y-17558D01*
X2431Y-16837D01*
X1709Y-16355D01*
X1358Y-16285D01*
D02*
G37*
G36*
X358D02*
X7Y-16355D01*
X-714Y-16837D01*
X-1196Y-17558D01*
X-1266Y-17909D01*
X358D01*
Y-16285D01*
D02*
G37*
G36*
X-38012D02*
Y-17909D01*
X-36387D01*
X-36457Y-17558D01*
X-36939Y-16837D01*
X-37661Y-16355D01*
X-38012Y-16285D01*
D02*
G37*
G36*
X-39012D02*
X-39363Y-16355D01*
X-40084Y-16837D01*
X-40566Y-17558D01*
X-40636Y-17909D01*
X-39012D01*
Y-16285D01*
D02*
G37*
G36*
X-136437D02*
Y-17909D01*
X-134813D01*
X-134882Y-17558D01*
X-135364Y-16837D01*
X-136086Y-16355D01*
X-136437Y-16285D01*
D02*
G37*
G36*
X-137437D02*
X-137788Y-16355D01*
X-138510Y-16837D01*
X-138992Y-17558D01*
X-139061Y-17909D01*
X-137437D01*
Y-16285D01*
D02*
G37*
G36*
X-156122D02*
Y-17909D01*
X-154498D01*
X-154568Y-17558D01*
X-155050Y-16837D01*
X-155771Y-16355D01*
X-156122Y-16285D01*
D02*
G37*
G36*
X-157122D02*
X-157473Y-16355D01*
X-158194Y-16837D01*
X-158677Y-17558D01*
X-158746Y-17909D01*
X-157122D01*
Y-16285D01*
D02*
G37*
G36*
X140778Y-18909D02*
X139154D01*
Y-20534D01*
X139505Y-20464D01*
X140226Y-19982D01*
X140708Y-19261D01*
X140778Y-18909D01*
D02*
G37*
G36*
X101408D02*
X99783D01*
Y-20534D01*
X100135Y-20464D01*
X100856Y-19982D01*
X101338Y-19261D01*
X101408Y-18909D01*
D02*
G37*
G36*
X98783D02*
X97159D01*
X97229Y-19261D01*
X97711Y-19982D01*
X98432Y-20464D01*
X98783Y-20534D01*
Y-18909D01*
D02*
G37*
G36*
X2983D02*
X1358D01*
Y-20534D01*
X1709Y-20464D01*
X2431Y-19982D01*
X2913Y-19261D01*
X2983Y-18909D01*
D02*
G37*
G36*
X358D02*
X-1266D01*
X-1196Y-19261D01*
X-714Y-19982D01*
X7Y-20464D01*
X358Y-20534D01*
Y-18909D01*
D02*
G37*
G36*
X-36387D02*
X-38012D01*
Y-20534D01*
X-37661Y-20464D01*
X-36939Y-19982D01*
X-36457Y-19261D01*
X-36387Y-18909D01*
D02*
G37*
G36*
X-39012D02*
X-40636D01*
X-40566Y-19261D01*
X-40084Y-19982D01*
X-39363Y-20464D01*
X-39012Y-20534D01*
Y-18909D01*
D02*
G37*
G36*
X-134813D02*
X-136437D01*
Y-20534D01*
X-136086Y-20464D01*
X-135364Y-19982D01*
X-134882Y-19261D01*
X-134813Y-18909D01*
D02*
G37*
G36*
X-137437D02*
X-139061D01*
X-138992Y-19261D01*
X-138510Y-19982D01*
X-137788Y-20464D01*
X-137437Y-20534D01*
Y-18909D01*
D02*
G37*
G36*
X-154498D02*
X-156122D01*
Y-20534D01*
X-155771Y-20464D01*
X-155050Y-19982D01*
X-154568Y-19261D01*
X-154498Y-18909D01*
D02*
G37*
G36*
X-157122D02*
X-158746D01*
X-158677Y-19261D01*
X-158194Y-19982D01*
X-157473Y-20464D01*
X-157122Y-20534D01*
Y-18909D01*
D02*
G37*
G36*
X148996Y-35970D02*
Y-37595D01*
X150620D01*
X150551Y-37244D01*
X150069Y-36522D01*
X149347Y-36040D01*
X148996Y-35970D01*
D02*
G37*
G36*
X147996D02*
X147645Y-36040D01*
X146924Y-36522D01*
X146441Y-37244D01*
X146372Y-37595D01*
X147996D01*
Y-35970D01*
D02*
G37*
G36*
X-146280D02*
Y-37595D01*
X-144655D01*
X-144725Y-37244D01*
X-145207Y-36522D01*
X-145929Y-36040D01*
X-146280Y-35970D01*
D02*
G37*
G36*
X-147280D02*
X-147631Y-36040D01*
X-148352Y-36522D01*
X-148834Y-37244D01*
X-148904Y-37595D01*
X-147280D01*
Y-35970D01*
D02*
G37*
G36*
X150620Y-38594D02*
X148996D01*
Y-40219D01*
X149347Y-40149D01*
X150069Y-39667D01*
X150551Y-38945D01*
X150620Y-38594D01*
D02*
G37*
G36*
X147996D02*
X146372D01*
X146441Y-38945D01*
X146924Y-39667D01*
X147645Y-40149D01*
X147996Y-40219D01*
Y-38594D01*
D02*
G37*
G36*
X-144655D02*
X-146280D01*
Y-40219D01*
X-145929Y-40149D01*
X-145207Y-39667D01*
X-144725Y-38945D01*
X-144655Y-38594D01*
D02*
G37*
G36*
X-147280D02*
X-148904D01*
X-148834Y-38945D01*
X-148352Y-39667D01*
X-147631Y-40149D01*
X-147280Y-40219D01*
Y-38594D01*
D02*
G37*
G36*
X139154Y-55655D02*
Y-57279D01*
X140778D01*
X140708Y-56928D01*
X140226Y-56207D01*
X139505Y-55725D01*
X139154Y-55655D01*
D02*
G37*
G36*
X138154D02*
X137803Y-55725D01*
X137081Y-56207D01*
X136599Y-56928D01*
X136529Y-57279D01*
X138154D01*
Y-55655D01*
D02*
G37*
G36*
X-137437D02*
X-137788Y-55725D01*
X-138510Y-56207D01*
X-138992Y-56928D01*
X-139061Y-57279D01*
X-137437D01*
Y-55655D01*
D02*
G37*
G36*
X140778Y-58280D02*
X139154D01*
Y-59904D01*
X139505Y-59834D01*
X140226Y-59352D01*
X140708Y-58631D01*
X140778Y-58280D01*
D02*
G37*
G36*
X138154D02*
X136529D01*
X136599Y-58631D01*
X137081Y-59352D01*
X137803Y-59834D01*
X138154Y-59904D01*
Y-58280D01*
D02*
G37*
G36*
X-137437D02*
X-139061D01*
X-138992Y-58631D01*
X-138510Y-59352D01*
X-137788Y-59834D01*
X-137437Y-59904D01*
Y-58280D01*
D02*
G37*
G36*
X148996Y-75340D02*
Y-76965D01*
X150620D01*
X150551Y-76613D01*
X150069Y-75892D01*
X149347Y-75410D01*
X148996Y-75340D01*
D02*
G37*
G36*
X147996D02*
X147645Y-75410D01*
X146924Y-75892D01*
X146441Y-76613D01*
X146372Y-76965D01*
X147996D01*
Y-75340D01*
D02*
G37*
G36*
X-146280D02*
Y-76965D01*
X-144655D01*
X-144725Y-76613D01*
X-145207Y-75892D01*
X-145929Y-75410D01*
X-146280Y-75340D01*
D02*
G37*
G36*
X-147280D02*
X-147631Y-75410D01*
X-148352Y-75892D01*
X-148834Y-76613D01*
X-148904Y-76965D01*
X-147280D01*
Y-75340D01*
D02*
G37*
G36*
X150620Y-77965D02*
X148996D01*
Y-79589D01*
X149347Y-79519D01*
X150069Y-79037D01*
X150551Y-78316D01*
X150620Y-77965D01*
D02*
G37*
G36*
X147996D02*
X146372D01*
X146441Y-78316D01*
X146924Y-79037D01*
X147645Y-79519D01*
X147996Y-79589D01*
Y-77965D01*
D02*
G37*
G36*
X-144655D02*
X-146280D01*
Y-79589D01*
X-145929Y-79519D01*
X-145207Y-79037D01*
X-144725Y-78316D01*
X-144655Y-77965D01*
D02*
G37*
G36*
X-147280D02*
X-148904D01*
X-148834Y-78316D01*
X-148352Y-79037D01*
X-147631Y-79519D01*
X-147280Y-79589D01*
Y-77965D01*
D02*
G37*
G36*
X139154Y-95025D02*
Y-96650D01*
X140778D01*
X140708Y-96299D01*
X140226Y-95577D01*
X139505Y-95095D01*
X139154Y-95025D01*
D02*
G37*
G36*
X138154D02*
X137803Y-95095D01*
X137081Y-95577D01*
X136599Y-96299D01*
X136529Y-96650D01*
X138154D01*
Y-95025D01*
D02*
G37*
G36*
X-137437D02*
X-137788Y-95095D01*
X-138510Y-95577D01*
X-138992Y-96299D01*
X-139061Y-96650D01*
X-137437D01*
Y-95025D01*
D02*
G37*
G36*
X140778Y-97650D02*
X139154D01*
Y-99274D01*
X139505Y-99204D01*
X140226Y-98722D01*
X140708Y-98001D01*
X140778Y-97650D01*
D02*
G37*
G36*
X138154D02*
X136529D01*
X136599Y-98001D01*
X137081Y-98722D01*
X137803Y-99204D01*
X138154Y-99274D01*
Y-97650D01*
D02*
G37*
G36*
X89941Y3400D02*
Y1776D01*
X91565D01*
X91496Y2127D01*
X91013Y2848D01*
X90292Y3330D01*
X89941Y3400D01*
D02*
G37*
G36*
X88941D02*
X88590Y3330D01*
X87868Y2848D01*
X87386Y2127D01*
X87317Y1776D01*
X88941D01*
Y3400D01*
D02*
G37*
G36*
X70256D02*
Y1776D01*
X71880D01*
X71811Y2127D01*
X71328Y2848D01*
X70607Y3330D01*
X70256Y3400D01*
D02*
G37*
G36*
X69256D02*
X68905Y3330D01*
X68183Y2848D01*
X67701Y2127D01*
X67632Y1776D01*
X69256D01*
Y3400D01*
D02*
G37*
G36*
X50571D02*
Y1776D01*
X52195D01*
X52125Y2127D01*
X51643Y2848D01*
X50922Y3330D01*
X50571Y3400D01*
D02*
G37*
G36*
X49571D02*
X49220Y3330D01*
X48498Y2848D01*
X48016Y2127D01*
X47947Y1776D01*
X49571D01*
Y3400D01*
D02*
G37*
G36*
X76000Y2870D02*
Y1245D01*
X77624D01*
X77555Y1596D01*
X77073Y2318D01*
X76351Y2800D01*
X76000Y2870D01*
D02*
G37*
G36*
X75000D02*
X74649Y2800D01*
X73927Y2318D01*
X73445Y1596D01*
X73376Y1245D01*
X75000D01*
Y2870D01*
D02*
G37*
G36*
X103964Y2624D02*
Y1000D01*
X105588D01*
X105518Y1351D01*
X105036Y2073D01*
X104315Y2555D01*
X103964Y2624D01*
D02*
G37*
G36*
X102964D02*
X102613Y2555D01*
X101891Y2073D01*
X101409Y1351D01*
X101339Y1000D01*
X102964D01*
Y2624D01*
D02*
G37*
G36*
X91565Y776D02*
X89941D01*
Y-849D01*
X90292Y-779D01*
X91013Y-297D01*
X91496Y425D01*
X91565Y776D01*
D02*
G37*
G36*
X88941D02*
X87317D01*
X87386Y425D01*
X87868Y-297D01*
X88590Y-779D01*
X88941Y-849D01*
Y776D01*
D02*
G37*
G36*
X71880D02*
X70256D01*
Y-849D01*
X70607Y-779D01*
X71328Y-297D01*
X71811Y425D01*
X71880Y776D01*
D02*
G37*
G36*
X69256D02*
X67632D01*
X67701Y425D01*
X68183Y-297D01*
X68905Y-779D01*
X69256Y-849D01*
Y776D01*
D02*
G37*
G36*
X52195D02*
X50571D01*
Y-849D01*
X50922Y-779D01*
X51643Y-297D01*
X52125Y425D01*
X52195Y776D01*
D02*
G37*
G36*
X49571D02*
X47947D01*
X48016Y425D01*
X48498Y-297D01*
X49220Y-779D01*
X49571Y-849D01*
Y776D01*
D02*
G37*
G36*
X-8484Y3400D02*
Y1776D01*
X-6860D01*
X-6930Y2127D01*
X-7412Y2848D01*
X-8133Y3330D01*
X-8484Y3400D01*
D02*
G37*
G36*
X-9484D02*
X-9835Y3330D01*
X-10557Y2848D01*
X-11039Y2127D01*
X-11109Y1776D01*
X-9484D01*
Y3400D01*
D02*
G37*
G36*
X11701Y2870D02*
Y1245D01*
X13325D01*
X13255Y1596D01*
X12773Y2318D01*
X12052Y2800D01*
X11701Y2870D01*
D02*
G37*
G36*
X10701D02*
X10350Y2800D01*
X9628Y2318D01*
X9146Y1596D01*
X9076Y1245D01*
X10701D01*
Y2870D01*
D02*
G37*
G36*
X33098Y2624D02*
Y1000D01*
X34722D01*
X34652Y1351D01*
X34170Y2073D01*
X33449Y2555D01*
X33098Y2624D01*
D02*
G37*
G36*
X32098D02*
X31747Y2555D01*
X31025Y2073D01*
X30543Y1351D01*
X30473Y1000D01*
X32098D01*
Y2624D01*
D02*
G37*
G36*
X-6860Y776D02*
X-8484D01*
Y-849D01*
X-8133Y-779D01*
X-7412Y-297D01*
X-6930Y425D01*
X-6860Y776D01*
D02*
G37*
G36*
X-9484D02*
X-11109D01*
X-11039Y425D01*
X-10557Y-297D01*
X-9835Y-779D01*
X-9484Y-849D01*
Y776D01*
D02*
G37*
G36*
X-47854Y3400D02*
Y1776D01*
X-46230D01*
X-46300Y2127D01*
X-46782Y2848D01*
X-47503Y3330D01*
X-47854Y3400D01*
D02*
G37*
G36*
X-48854D02*
X-49205Y3330D01*
X-49927Y2848D01*
X-50409Y2127D01*
X-50479Y1776D01*
X-48854D01*
Y3400D01*
D02*
G37*
G36*
X-68539D02*
X-68890Y3330D01*
X-69612Y2848D01*
X-70094Y2127D01*
X-70164Y1776D01*
X-68539D01*
Y3400D01*
D02*
G37*
G36*
X-87224D02*
Y1776D01*
X-85600D01*
X-85670Y2127D01*
X-86152Y2848D01*
X-86873Y3330D01*
X-87224Y3400D01*
D02*
G37*
G36*
X-88224D02*
X-88575Y3330D01*
X-89297Y2848D01*
X-89779Y2127D01*
X-89849Y1776D01*
X-88224D01*
Y3400D01*
D02*
G37*
G36*
X-37769Y2624D02*
Y1000D01*
X-36144D01*
X-36214Y1351D01*
X-36696Y2073D01*
X-37418Y2555D01*
X-37769Y2624D01*
D02*
G37*
G36*
X-38769D02*
X-39119Y2555D01*
X-39841Y2073D01*
X-40323Y1351D01*
X-40393Y1000D01*
X-38769D01*
Y2624D01*
D02*
G37*
G36*
X-64000D02*
Y1000D01*
X-62376D01*
X-62445Y1351D01*
X-62928Y2073D01*
X-63649Y2555D01*
X-64000Y2624D01*
D02*
G37*
G36*
X-46230Y776D02*
X-47854D01*
Y-849D01*
X-47503Y-779D01*
X-46782Y-297D01*
X-46300Y425D01*
X-46230Y776D01*
D02*
G37*
G36*
X-48854D02*
X-50479D01*
X-50409Y425D01*
X-49927Y-297D01*
X-49205Y-779D01*
X-48854Y-849D01*
Y776D01*
D02*
G37*
G36*
X-68539D02*
X-70164D01*
X-70094Y425D01*
X-69612Y-297D01*
X-68890Y-779D01*
X-68539Y-849D01*
Y776D01*
D02*
G37*
G36*
X-85600D02*
X-87224D01*
Y-849D01*
X-86873Y-779D01*
X-86152Y-297D01*
X-85670Y425D01*
X-85600Y776D01*
D02*
G37*
G36*
X-88224D02*
X-89849D01*
X-89779Y425D01*
X-89297Y-297D01*
X-88575Y-779D01*
X-88224Y-849D01*
Y776D01*
D02*
G37*
G36*
X-126594Y3400D02*
Y1776D01*
X-124970D01*
X-125040Y2127D01*
X-125522Y2848D01*
X-126243Y3330D01*
X-126594Y3400D01*
D02*
G37*
G36*
X-127594D02*
X-127945Y3330D01*
X-128667Y2848D01*
X-129149Y2127D01*
X-129219Y1776D01*
X-127594D01*
Y3400D01*
D02*
G37*
G36*
X-146280D02*
Y1776D01*
X-144655D01*
X-144725Y2127D01*
X-145207Y2848D01*
X-145929Y3330D01*
X-146280Y3400D01*
D02*
G37*
G36*
X-147280D02*
X-147631Y3330D01*
X-148352Y2848D01*
X-148834Y2127D01*
X-148904Y1776D01*
X-147280D01*
Y3400D01*
D02*
G37*
G36*
X-165965D02*
Y1776D01*
X-164340D01*
X-164410Y2127D01*
X-164892Y2848D01*
X-165613Y3330D01*
X-165965Y3400D01*
D02*
G37*
G36*
X-166965D02*
X-167316Y3330D01*
X-168037Y2848D01*
X-168519Y2127D01*
X-168589Y1776D01*
X-166965D01*
Y3400D01*
D02*
G37*
G36*
X-108635Y2624D02*
Y1000D01*
X-107010D01*
X-107080Y1351D01*
X-107562Y2073D01*
X-108284Y2555D01*
X-108635Y2624D01*
D02*
G37*
G36*
X-109635D02*
X-109986Y2555D01*
X-110707Y2073D01*
X-111189Y1351D01*
X-111259Y1000D01*
X-109635D01*
Y2624D01*
D02*
G37*
G36*
X-124970Y776D02*
X-126594D01*
Y-849D01*
X-126243Y-779D01*
X-125522Y-297D01*
X-125040Y425D01*
X-124970Y776D01*
D02*
G37*
G36*
X-127594D02*
X-129219D01*
X-129149Y425D01*
X-128667Y-297D01*
X-127945Y-779D01*
X-127594Y-849D01*
Y776D01*
D02*
G37*
G36*
X-144655D02*
X-146280D01*
Y-849D01*
X-145929Y-779D01*
X-145207Y-297D01*
X-144725Y425D01*
X-144655Y776D01*
D02*
G37*
G36*
X-147280D02*
X-148904D01*
X-148834Y425D01*
X-148352Y-297D01*
X-147631Y-779D01*
X-147280Y-849D01*
Y776D01*
D02*
G37*
G36*
X-164340D02*
X-165965D01*
Y-849D01*
X-165613Y-779D01*
X-164892Y-297D01*
X-164410Y425D01*
X-164340Y776D01*
D02*
G37*
G36*
X-166965D02*
X-168589D01*
X-168519Y425D01*
X-168037Y-297D01*
X-167316Y-779D01*
X-166965Y-849D01*
Y776D01*
D02*
G37*
G36*
X213756Y-7517D02*
Y-9142D01*
X215380D01*
X215310Y-8791D01*
X214828Y-8069D01*
X214107Y-7587D01*
X213756Y-7517D01*
D02*
G37*
G36*
X212756D02*
X212405Y-7587D01*
X211683Y-8069D01*
X211201Y-8791D01*
X211132Y-9142D01*
X212756D01*
Y-7517D01*
D02*
G37*
G36*
X215380Y-10142D02*
X213756D01*
Y-11766D01*
X214107Y-11696D01*
X214828Y-11214D01*
X215310Y-10493D01*
X215380Y-10142D01*
D02*
G37*
G36*
X212756D02*
X211132D01*
X211201Y-10493D01*
X211683Y-11214D01*
X212405Y-11696D01*
X212756Y-11766D01*
Y-10142D01*
D02*
G37*
G36*
X213756Y-14079D02*
Y-15703D01*
X215380D01*
X215310Y-15352D01*
X214828Y-14631D01*
X214107Y-14149D01*
X213756Y-14079D01*
D02*
G37*
G36*
X212756D02*
X212405Y-14149D01*
X211683Y-14631D01*
X211201Y-15352D01*
X211132Y-15703D01*
X212756D01*
Y-14079D01*
D02*
G37*
G36*
X215380Y-16703D02*
X213756D01*
Y-18328D01*
X214107Y-18258D01*
X214828Y-17776D01*
X215310Y-17054D01*
X215380Y-16703D01*
D02*
G37*
G36*
X212756D02*
X211132D01*
X211201Y-17054D01*
X211683Y-17776D01*
X212405Y-18258D01*
X212756Y-18328D01*
Y-16703D01*
D02*
G37*
G36*
X213756Y-20641D02*
Y-22265D01*
X215380D01*
X215310Y-21914D01*
X214828Y-21193D01*
X214107Y-20711D01*
X213756Y-20641D01*
D02*
G37*
G36*
X212756D02*
X212405Y-20711D01*
X211683Y-21193D01*
X211201Y-21914D01*
X211132Y-22265D01*
X212756D01*
Y-20641D01*
D02*
G37*
G36*
X215380Y-23265D02*
X213756D01*
Y-24890D01*
X214107Y-24820D01*
X214828Y-24338D01*
X215310Y-23616D01*
X215380Y-23265D01*
D02*
G37*
G36*
X212756D02*
X211132D01*
X211201Y-23616D01*
X211683Y-24338D01*
X212405Y-24820D01*
X212756Y-24890D01*
Y-23265D01*
D02*
G37*
G36*
X213756Y-27202D02*
Y-28827D01*
X215380D01*
X215310Y-28476D01*
X214828Y-27754D01*
X214107Y-27272D01*
X213756Y-27202D01*
D02*
G37*
G36*
X212756D02*
X212405Y-27272D01*
X211683Y-27754D01*
X211201Y-28476D01*
X211132Y-28827D01*
X212756D01*
Y-27202D01*
D02*
G37*
G36*
X215380Y-29827D02*
X213756D01*
Y-31451D01*
X214107Y-31381D01*
X214828Y-30899D01*
X215310Y-30178D01*
X215380Y-29827D01*
D02*
G37*
G36*
X212756D02*
X211132D01*
X211201Y-30178D01*
X211683Y-30899D01*
X212405Y-31381D01*
X212756Y-31451D01*
Y-29827D01*
D02*
G37*
G36*
X189276Y-45826D02*
X185776D01*
Y-49326D01*
X189276D01*
Y-45826D01*
D02*
G37*
G36*
X184776D02*
X181276D01*
Y-49326D01*
X184776D01*
Y-45826D01*
D02*
G37*
G36*
X205276Y-46296D02*
X204362Y-46416D01*
X203510Y-46769D01*
X202779Y-47330D01*
X202218Y-48061D01*
X201866Y-48912D01*
X201745Y-49826D01*
X201866Y-50740D01*
X202218Y-51591D01*
X202779Y-52322D01*
X203510Y-52883D01*
X204362Y-53236D01*
X205276Y-53356D01*
X206189Y-53236D01*
X207041Y-52883D01*
X207772Y-52322D01*
X208333Y-51591D01*
X208685Y-50740D01*
X208806Y-49826D01*
X208685Y-48912D01*
X208333Y-48061D01*
X207772Y-47330D01*
X207041Y-46769D01*
X206189Y-46416D01*
X205276Y-46296D01*
D02*
G37*
G36*
X195276D02*
X194362Y-46416D01*
X193510Y-46769D01*
X192779Y-47330D01*
X192218Y-48061D01*
X191866Y-48912D01*
X191745Y-49826D01*
X191866Y-50740D01*
X192218Y-51591D01*
X192779Y-52322D01*
X193510Y-52883D01*
X194362Y-53236D01*
X195276Y-53356D01*
X196189Y-53236D01*
X197041Y-52883D01*
X197772Y-52322D01*
X198333Y-51591D01*
X198686Y-50740D01*
X198806Y-49826D01*
X198686Y-48912D01*
X198333Y-48061D01*
X197772Y-47330D01*
X197041Y-46769D01*
X196189Y-46416D01*
X195276Y-46296D01*
D02*
G37*
G36*
X189276Y-50326D02*
X185776D01*
Y-53826D01*
X189276D01*
Y-50326D01*
D02*
G37*
G36*
X184776D02*
X181276D01*
Y-53826D01*
X184776D01*
Y-50326D01*
D02*
G37*
G36*
X124904Y-7517D02*
Y-9142D01*
X126529D01*
X126459Y-8791D01*
X125977Y-8069D01*
X125255Y-7587D01*
X124904Y-7517D01*
D02*
G37*
G36*
X123904D02*
X123553Y-7587D01*
X122832Y-8069D01*
X122350Y-8791D01*
X122280Y-9142D01*
X123904D01*
Y-7517D01*
D02*
G37*
G36*
X126529Y-10142D02*
X124904D01*
Y-11766D01*
X125255Y-11696D01*
X125977Y-11214D01*
X126459Y-10493D01*
X126529Y-10142D01*
D02*
G37*
G36*
X123904D02*
X122280D01*
X122350Y-10493D01*
X122832Y-11214D01*
X123553Y-11696D01*
X123904Y-11766D01*
Y-10142D01*
D02*
G37*
G36*
X124904Y-14079D02*
Y-15703D01*
X126529D01*
X126459Y-15352D01*
X125977Y-14631D01*
X125255Y-14149D01*
X124904Y-14079D01*
D02*
G37*
G36*
X123904D02*
X123553Y-14149D01*
X122832Y-14631D01*
X122350Y-15352D01*
X122280Y-15703D01*
X123904D01*
Y-14079D01*
D02*
G37*
G36*
X126529Y-16703D02*
X124904D01*
Y-18328D01*
X125255Y-18258D01*
X125977Y-17776D01*
X126459Y-17054D01*
X126529Y-16703D01*
D02*
G37*
G36*
X123904D02*
X122280D01*
X122350Y-17054D01*
X122832Y-17776D01*
X123553Y-18258D01*
X123904Y-18328D01*
Y-16703D01*
D02*
G37*
G36*
X124904Y-20641D02*
Y-22265D01*
X126529D01*
X126459Y-21914D01*
X125977Y-21193D01*
X125255Y-20711D01*
X124904Y-20641D01*
D02*
G37*
G36*
X123904D02*
X123553Y-20711D01*
X122832Y-21193D01*
X122350Y-21914D01*
X122280Y-22265D01*
X123904D01*
Y-20641D01*
D02*
G37*
G36*
X126529Y-23265D02*
X124904D01*
Y-24890D01*
X125255Y-24820D01*
X125977Y-24338D01*
X126459Y-23616D01*
X126529Y-23265D01*
D02*
G37*
G36*
X123904D02*
X122280D01*
X122350Y-23616D01*
X122832Y-24338D01*
X123553Y-24820D01*
X123904Y-24890D01*
Y-23265D01*
D02*
G37*
G36*
X124904Y-27202D02*
Y-28827D01*
X126529D01*
X126459Y-28476D01*
X125977Y-27754D01*
X125255Y-27272D01*
X124904Y-27202D01*
D02*
G37*
G36*
X123904D02*
X123553Y-27272D01*
X122832Y-27754D01*
X122350Y-28476D01*
X122280Y-28827D01*
X123904D01*
Y-27202D01*
D02*
G37*
G36*
X126529Y-29827D02*
X124904D01*
Y-31451D01*
X125255Y-31381D01*
X125977Y-30899D01*
X126459Y-30178D01*
X126529Y-29827D01*
D02*
G37*
G36*
X123904D02*
X122280D01*
X122350Y-30178D01*
X122832Y-30899D01*
X123553Y-31381D01*
X123904Y-31451D01*
Y-29827D01*
D02*
G37*
G36*
X100424Y-45826D02*
X96924D01*
Y-49326D01*
X100424D01*
Y-45826D01*
D02*
G37*
G36*
X95924D02*
X92424D01*
Y-49326D01*
X95924D01*
Y-45826D01*
D02*
G37*
G36*
X116424Y-46296D02*
X115510Y-46416D01*
X114659Y-46769D01*
X113928Y-47330D01*
X113367Y-48061D01*
X113014Y-48912D01*
X112894Y-49826D01*
X113014Y-50740D01*
X113367Y-51591D01*
X113928Y-52322D01*
X114659Y-52883D01*
X115510Y-53236D01*
X116424Y-53356D01*
X117338Y-53236D01*
X118189Y-52883D01*
X118920Y-52322D01*
X119481Y-51591D01*
X119834Y-50740D01*
X119954Y-49826D01*
X119834Y-48912D01*
X119481Y-48061D01*
X118920Y-47330D01*
X118189Y-46769D01*
X117338Y-46416D01*
X116424Y-46296D01*
D02*
G37*
G36*
X106424D02*
X105510Y-46416D01*
X104659Y-46769D01*
X103928Y-47330D01*
X103367Y-48061D01*
X103014Y-48912D01*
X102894Y-49826D01*
X103014Y-50740D01*
X103367Y-51591D01*
X103928Y-52322D01*
X104659Y-52883D01*
X105510Y-53236D01*
X106424Y-53356D01*
X107338Y-53236D01*
X108189Y-52883D01*
X108920Y-52322D01*
X109481Y-51591D01*
X109834Y-50740D01*
X109954Y-49826D01*
X109834Y-48912D01*
X109481Y-48061D01*
X108920Y-47330D01*
X108189Y-46769D01*
X107338Y-46416D01*
X106424Y-46296D01*
D02*
G37*
G36*
X100424Y-50326D02*
X96924D01*
Y-53826D01*
X100424D01*
Y-50326D01*
D02*
G37*
G36*
X95924D02*
X92424D01*
Y-53826D01*
X95924D01*
Y-50326D01*
D02*
G37*
G36*
X53976Y-7517D02*
Y-9142D01*
X55600D01*
X55530Y-8791D01*
X55048Y-8069D01*
X54327Y-7587D01*
X53976Y-7517D01*
D02*
G37*
G36*
X52976D02*
X52625Y-7587D01*
X51903Y-8069D01*
X51421Y-8791D01*
X51351Y-9142D01*
X52976D01*
Y-7517D01*
D02*
G37*
G36*
X55600Y-10142D02*
X53976D01*
Y-11766D01*
X54327Y-11696D01*
X55048Y-11214D01*
X55530Y-10493D01*
X55600Y-10142D01*
D02*
G37*
G36*
X52976D02*
X51351D01*
X51421Y-10493D01*
X51903Y-11214D01*
X52625Y-11696D01*
X52976Y-11766D01*
Y-10142D01*
D02*
G37*
G36*
X53976Y-14079D02*
Y-15703D01*
X55600D01*
X55530Y-15352D01*
X55048Y-14631D01*
X54327Y-14149D01*
X53976Y-14079D01*
D02*
G37*
G36*
X52976D02*
X52625Y-14149D01*
X51903Y-14631D01*
X51421Y-15352D01*
X51351Y-15703D01*
X52976D01*
Y-14079D01*
D02*
G37*
G36*
X55600Y-16703D02*
X53976D01*
Y-18328D01*
X54327Y-18258D01*
X55048Y-17776D01*
X55530Y-17054D01*
X55600Y-16703D01*
D02*
G37*
G36*
X52976D02*
X51351D01*
X51421Y-17054D01*
X51903Y-17776D01*
X52625Y-18258D01*
X52976Y-18328D01*
Y-16703D01*
D02*
G37*
G36*
X53976Y-20641D02*
Y-22265D01*
X55600D01*
X55530Y-21914D01*
X55048Y-21193D01*
X54327Y-20711D01*
X53976Y-20641D01*
D02*
G37*
G36*
X52976D02*
X52625Y-20711D01*
X51903Y-21193D01*
X51421Y-21914D01*
X51351Y-22265D01*
X52976D01*
Y-20641D01*
D02*
G37*
G36*
X55600Y-23265D02*
X53976D01*
Y-24890D01*
X54327Y-24820D01*
X55048Y-24338D01*
X55530Y-23616D01*
X55600Y-23265D01*
D02*
G37*
G36*
X52976D02*
X51351D01*
X51421Y-23616D01*
X51903Y-24338D01*
X52625Y-24820D01*
X52976Y-24890D01*
Y-23265D01*
D02*
G37*
G36*
X53976Y-27202D02*
Y-28827D01*
X55600D01*
X55530Y-28476D01*
X55048Y-27754D01*
X54327Y-27272D01*
X53976Y-27202D01*
D02*
G37*
G36*
X52976D02*
X52625Y-27272D01*
X51903Y-27754D01*
X51421Y-28476D01*
X51351Y-28827D01*
X52976D01*
Y-27202D01*
D02*
G37*
G36*
X55600Y-29827D02*
X53976D01*
Y-31451D01*
X54327Y-31381D01*
X55048Y-30899D01*
X55530Y-30178D01*
X55600Y-29827D01*
D02*
G37*
G36*
X52976D02*
X51351D01*
X51421Y-30178D01*
X51903Y-30899D01*
X52625Y-31381D01*
X52976Y-31451D01*
Y-29827D01*
D02*
G37*
G36*
X29495Y-45826D02*
X25995D01*
Y-49326D01*
X29495D01*
Y-45826D01*
D02*
G37*
G36*
X24995D02*
X21496D01*
Y-49326D01*
X24995D01*
Y-45826D01*
D02*
G37*
G36*
X45496Y-46296D02*
X44582Y-46416D01*
X43730Y-46769D01*
X42999Y-47330D01*
X42438Y-48061D01*
X42086Y-48912D01*
X41965Y-49826D01*
X42086Y-50740D01*
X42438Y-51591D01*
X42999Y-52322D01*
X43730Y-52883D01*
X44582Y-53236D01*
X45496Y-53356D01*
X46409Y-53236D01*
X47261Y-52883D01*
X47992Y-52322D01*
X48553Y-51591D01*
X48905Y-50740D01*
X49026Y-49826D01*
X48905Y-48912D01*
X48553Y-48061D01*
X47992Y-47330D01*
X47261Y-46769D01*
X46409Y-46416D01*
X45496Y-46296D01*
D02*
G37*
G36*
X35495D02*
X34582Y-46416D01*
X33730Y-46769D01*
X32999Y-47330D01*
X32438Y-48061D01*
X32086Y-48912D01*
X31965Y-49826D01*
X32086Y-50740D01*
X32438Y-51591D01*
X32999Y-52322D01*
X33730Y-52883D01*
X34582Y-53236D01*
X35495Y-53356D01*
X36409Y-53236D01*
X37261Y-52883D01*
X37992Y-52322D01*
X38553Y-51591D01*
X38905Y-50740D01*
X39026Y-49826D01*
X38905Y-48912D01*
X38553Y-48061D01*
X37992Y-47330D01*
X37261Y-46769D01*
X36409Y-46416D01*
X35495Y-46296D01*
D02*
G37*
G36*
X29495Y-50326D02*
X25995D01*
Y-53826D01*
X29495D01*
Y-50326D01*
D02*
G37*
G36*
X24995D02*
X21496D01*
Y-53826D01*
X24995D01*
Y-50326D01*
D02*
G37*
G36*
X-16890Y-7517D02*
Y-9142D01*
X-15266D01*
X-15336Y-8791D01*
X-15818Y-8069D01*
X-16539Y-7587D01*
X-16890Y-7517D01*
D02*
G37*
G36*
X-17890D02*
X-18241Y-7587D01*
X-18963Y-8069D01*
X-19445Y-8791D01*
X-19515Y-9142D01*
X-17890D01*
Y-7517D01*
D02*
G37*
G36*
X-15266Y-10142D02*
X-16890D01*
Y-11766D01*
X-16539Y-11696D01*
X-15818Y-11214D01*
X-15336Y-10493D01*
X-15266Y-10142D01*
D02*
G37*
G36*
X-17890D02*
X-19515D01*
X-19445Y-10493D01*
X-18963Y-11214D01*
X-18241Y-11696D01*
X-17890Y-11766D01*
Y-10142D01*
D02*
G37*
G36*
X-16890Y-14079D02*
Y-15703D01*
X-15266D01*
X-15336Y-15352D01*
X-15818Y-14631D01*
X-16539Y-14149D01*
X-16890Y-14079D01*
D02*
G37*
G36*
X-17890D02*
X-18241Y-14149D01*
X-18963Y-14631D01*
X-19445Y-15352D01*
X-19515Y-15703D01*
X-17890D01*
Y-14079D01*
D02*
G37*
G36*
X-15266Y-16703D02*
X-16890D01*
Y-18328D01*
X-16539Y-18258D01*
X-15818Y-17776D01*
X-15336Y-17054D01*
X-15266Y-16703D01*
D02*
G37*
G36*
X-17890D02*
X-19515D01*
X-19445Y-17054D01*
X-18963Y-17776D01*
X-18241Y-18258D01*
X-17890Y-18328D01*
Y-16703D01*
D02*
G37*
G36*
X-16890Y-20641D02*
Y-22265D01*
X-15266D01*
X-15336Y-21914D01*
X-15818Y-21193D01*
X-16539Y-20711D01*
X-16890Y-20641D01*
D02*
G37*
G36*
X-17890D02*
X-18241Y-20711D01*
X-18963Y-21193D01*
X-19445Y-21914D01*
X-19515Y-22265D01*
X-17890D01*
Y-20641D01*
D02*
G37*
G36*
X-15266Y-23265D02*
X-16890D01*
Y-24890D01*
X-16539Y-24820D01*
X-15818Y-24338D01*
X-15336Y-23616D01*
X-15266Y-23265D01*
D02*
G37*
G36*
X-17890D02*
X-19515D01*
X-19445Y-23616D01*
X-18963Y-24338D01*
X-18241Y-24820D01*
X-17890Y-24890D01*
Y-23265D01*
D02*
G37*
G36*
X-16890Y-27202D02*
Y-28827D01*
X-15266D01*
X-15336Y-28476D01*
X-15818Y-27754D01*
X-16539Y-27272D01*
X-16890Y-27202D01*
D02*
G37*
G36*
X-17890D02*
X-18241Y-27272D01*
X-18963Y-27754D01*
X-19445Y-28476D01*
X-19515Y-28827D01*
X-17890D01*
Y-27202D01*
D02*
G37*
G36*
X-15266Y-29827D02*
X-16890D01*
Y-31451D01*
X-16539Y-31381D01*
X-15818Y-30899D01*
X-15336Y-30178D01*
X-15266Y-29827D01*
D02*
G37*
G36*
X-17890D02*
X-19515D01*
X-19445Y-30178D01*
X-18963Y-30899D01*
X-18241Y-31381D01*
X-17890Y-31451D01*
Y-29827D01*
D02*
G37*
G36*
X-41371Y-45826D02*
X-44871D01*
Y-49326D01*
X-41371D01*
Y-45826D01*
D02*
G37*
G36*
X-45871D02*
X-49371D01*
Y-49326D01*
X-45871D01*
Y-45826D01*
D02*
G37*
G36*
X-25371Y-46296D02*
X-26284Y-46416D01*
X-27136Y-46769D01*
X-27867Y-47330D01*
X-28428Y-48061D01*
X-28781Y-48912D01*
X-28901Y-49826D01*
X-28781Y-50740D01*
X-28428Y-51591D01*
X-27867Y-52322D01*
X-27136Y-52883D01*
X-26284Y-53236D01*
X-25371Y-53356D01*
X-24457Y-53236D01*
X-23606Y-52883D01*
X-22874Y-52322D01*
X-22313Y-51591D01*
X-21961Y-50740D01*
X-21840Y-49826D01*
X-21961Y-48912D01*
X-22313Y-48061D01*
X-22874Y-47330D01*
X-23606Y-46769D01*
X-24457Y-46416D01*
X-25371Y-46296D01*
D02*
G37*
G36*
X-35371D02*
X-36284Y-46416D01*
X-37136Y-46769D01*
X-37867Y-47330D01*
X-38428Y-48061D01*
X-38781Y-48912D01*
X-38901Y-49826D01*
X-38781Y-50740D01*
X-38428Y-51591D01*
X-37867Y-52322D01*
X-37136Y-52883D01*
X-36284Y-53236D01*
X-35371Y-53356D01*
X-34457Y-53236D01*
X-33606Y-52883D01*
X-32875Y-52322D01*
X-32313Y-51591D01*
X-31961Y-50740D01*
X-31841Y-49826D01*
X-31961Y-48912D01*
X-32313Y-48061D01*
X-32875Y-47330D01*
X-33606Y-46769D01*
X-34457Y-46416D01*
X-35371Y-46296D01*
D02*
G37*
G36*
X-41371Y-50326D02*
X-44871D01*
Y-53826D01*
X-41371D01*
Y-50326D01*
D02*
G37*
G36*
X-45871D02*
X-49371D01*
Y-53826D01*
X-45871D01*
Y-50326D01*
D02*
G37*
G36*
X-87694Y-7517D02*
Y-9142D01*
X-86070D01*
X-86140Y-8791D01*
X-86622Y-8069D01*
X-87343Y-7587D01*
X-87694Y-7517D01*
D02*
G37*
G36*
X-88694D02*
X-89045Y-7587D01*
X-89767Y-8069D01*
X-90249Y-8791D01*
X-90319Y-9142D01*
X-88694D01*
Y-7517D01*
D02*
G37*
G36*
X-86070Y-10142D02*
X-87694D01*
Y-11766D01*
X-87343Y-11696D01*
X-86622Y-11214D01*
X-86140Y-10493D01*
X-86070Y-10142D01*
D02*
G37*
G36*
X-88694D02*
X-90319D01*
X-90249Y-10493D01*
X-89767Y-11214D01*
X-89045Y-11696D01*
X-88694Y-11766D01*
Y-10142D01*
D02*
G37*
G36*
X-87694Y-14079D02*
Y-15703D01*
X-86070D01*
X-86140Y-15352D01*
X-86622Y-14631D01*
X-87343Y-14149D01*
X-87694Y-14079D01*
D02*
G37*
G36*
X-88694D02*
X-89045Y-14149D01*
X-89767Y-14631D01*
X-90249Y-15352D01*
X-90319Y-15703D01*
X-88694D01*
Y-14079D01*
D02*
G37*
G36*
X-86070Y-16703D02*
X-87694D01*
Y-18328D01*
X-87343Y-18258D01*
X-86622Y-17776D01*
X-86140Y-17054D01*
X-86070Y-16703D01*
D02*
G37*
G36*
X-88694D02*
X-90319D01*
X-90249Y-17054D01*
X-89767Y-17776D01*
X-89045Y-18258D01*
X-88694Y-18328D01*
Y-16703D01*
D02*
G37*
G36*
X-87694Y-20641D02*
Y-22265D01*
X-86070D01*
X-86140Y-21914D01*
X-86622Y-21193D01*
X-87343Y-20711D01*
X-87694Y-20641D01*
D02*
G37*
G36*
X-88694D02*
X-89045Y-20711D01*
X-89767Y-21193D01*
X-90249Y-21914D01*
X-90319Y-22265D01*
X-88694D01*
Y-20641D01*
D02*
G37*
G36*
X-86070Y-23265D02*
X-87694D01*
Y-24890D01*
X-87343Y-24820D01*
X-86622Y-24338D01*
X-86140Y-23616D01*
X-86070Y-23265D01*
D02*
G37*
G36*
X-88694D02*
X-90319D01*
X-90249Y-23616D01*
X-89767Y-24338D01*
X-89045Y-24820D01*
X-88694Y-24890D01*
Y-23265D01*
D02*
G37*
G36*
X-87694Y-27202D02*
Y-28827D01*
X-86070D01*
X-86140Y-28476D01*
X-86622Y-27754D01*
X-87343Y-27272D01*
X-87694Y-27202D01*
D02*
G37*
G36*
X-88694D02*
X-89045Y-27272D01*
X-89767Y-27754D01*
X-90249Y-28476D01*
X-90319Y-28827D01*
X-88694D01*
Y-27202D01*
D02*
G37*
G36*
X-86070Y-29827D02*
X-87694D01*
Y-31451D01*
X-87343Y-31381D01*
X-86622Y-30899D01*
X-86140Y-30178D01*
X-86070Y-29827D01*
D02*
G37*
G36*
X-88694D02*
X-90319D01*
X-90249Y-30178D01*
X-89767Y-30899D01*
X-89045Y-31381D01*
X-88694Y-31451D01*
Y-29827D01*
D02*
G37*
G36*
X-112174Y-45826D02*
X-115674D01*
Y-49326D01*
X-112174D01*
Y-45826D01*
D02*
G37*
G36*
X-116674D02*
X-120174D01*
Y-49326D01*
X-116674D01*
Y-45826D01*
D02*
G37*
G36*
X-96174Y-46296D02*
X-97088Y-46416D01*
X-97939Y-46769D01*
X-98671Y-47330D01*
X-99232Y-48061D01*
X-99584Y-48912D01*
X-99705Y-49826D01*
X-99584Y-50740D01*
X-99232Y-51591D01*
X-98671Y-52322D01*
X-97939Y-52883D01*
X-97088Y-53236D01*
X-96174Y-53356D01*
X-95261Y-53236D01*
X-94409Y-52883D01*
X-93678Y-52322D01*
X-93117Y-51591D01*
X-92765Y-50740D01*
X-92644Y-49826D01*
X-92765Y-48912D01*
X-93117Y-48061D01*
X-93678Y-47330D01*
X-94409Y-46769D01*
X-95261Y-46416D01*
X-96174Y-46296D01*
D02*
G37*
G36*
X-106174D02*
X-107088Y-46416D01*
X-107940Y-46769D01*
X-108671Y-47330D01*
X-109232Y-48061D01*
X-109584Y-48912D01*
X-109705Y-49826D01*
X-109584Y-50740D01*
X-109232Y-51591D01*
X-108671Y-52322D01*
X-107940Y-52883D01*
X-107088Y-53236D01*
X-106174Y-53356D01*
X-105261Y-53236D01*
X-104409Y-52883D01*
X-103678Y-52322D01*
X-103117Y-51591D01*
X-102764Y-50740D01*
X-102644Y-49826D01*
X-102764Y-48912D01*
X-103117Y-48061D01*
X-103678Y-47330D01*
X-104409Y-46769D01*
X-105261Y-46416D01*
X-106174Y-46296D01*
D02*
G37*
G36*
X-112174Y-50326D02*
X-115674D01*
Y-53826D01*
X-112174D01*
Y-50326D01*
D02*
G37*
G36*
X-116674D02*
X-120174D01*
Y-53826D01*
X-116674D01*
Y-50326D01*
D02*
G37*
G36*
X-177795Y-10142D02*
X-179420D01*
X-179350Y-10493D01*
X-178868Y-11214D01*
X-178146Y-11696D01*
X-177795Y-11766D01*
Y-10142D01*
D02*
G37*
G36*
X-176795Y-14079D02*
Y-15703D01*
X-175171D01*
X-175241Y-15352D01*
X-175723Y-14631D01*
X-176444Y-14149D01*
X-176795Y-14079D01*
D02*
G37*
G36*
X-177795D02*
X-178146Y-14149D01*
X-178868Y-14631D01*
X-179350Y-15352D01*
X-179420Y-15703D01*
X-177795D01*
Y-14079D01*
D02*
G37*
G36*
X-175171Y-16703D02*
X-176795D01*
Y-18328D01*
X-176444Y-18258D01*
X-175723Y-17776D01*
X-175241Y-17054D01*
X-175171Y-16703D01*
D02*
G37*
G36*
X-177795D02*
X-179420D01*
X-179350Y-17054D01*
X-178868Y-17776D01*
X-178146Y-18258D01*
X-177795Y-18328D01*
Y-16703D01*
D02*
G37*
G36*
X-176795Y-20641D02*
Y-22265D01*
X-175171D01*
X-175241Y-21914D01*
X-175723Y-21193D01*
X-176444Y-20711D01*
X-176795Y-20641D01*
D02*
G37*
G36*
X-177795D02*
X-178146Y-20711D01*
X-178868Y-21193D01*
X-179350Y-21914D01*
X-179420Y-22265D01*
X-177795D01*
Y-20641D01*
D02*
G37*
G36*
X-175171Y-23265D02*
X-176795D01*
Y-24890D01*
X-176444Y-24820D01*
X-175723Y-24338D01*
X-175241Y-23616D01*
X-175171Y-23265D01*
D02*
G37*
G36*
X-177795D02*
X-179420D01*
X-179350Y-23616D01*
X-178868Y-24338D01*
X-178146Y-24820D01*
X-177795Y-24890D01*
Y-23265D01*
D02*
G37*
G36*
X-176795Y-27202D02*
Y-28827D01*
X-175171D01*
X-175241Y-28476D01*
X-175723Y-27754D01*
X-176444Y-27272D01*
X-176795Y-27202D01*
D02*
G37*
G36*
X-177795D02*
X-178146Y-27272D01*
X-178868Y-27754D01*
X-179350Y-28476D01*
X-179420Y-28827D01*
X-177795D01*
Y-27202D01*
D02*
G37*
G36*
X-175171Y-29827D02*
X-176795D01*
Y-31451D01*
X-176444Y-31381D01*
X-175723Y-30899D01*
X-175241Y-30178D01*
X-175171Y-29827D01*
D02*
G37*
G36*
X-177795D02*
X-179420D01*
X-179350Y-30178D01*
X-178868Y-30899D01*
X-178146Y-31381D01*
X-177795Y-31451D01*
Y-29827D01*
D02*
G37*
G36*
X-201276Y-45826D02*
X-204776D01*
Y-49326D01*
X-201276D01*
Y-45826D01*
D02*
G37*
G36*
X-205776D02*
X-209276D01*
Y-49326D01*
X-205776D01*
Y-45826D01*
D02*
G37*
G36*
X-185276Y-46296D02*
X-186189Y-46416D01*
X-187041Y-46769D01*
X-187772Y-47330D01*
X-188333Y-48061D01*
X-188686Y-48912D01*
X-188806Y-49826D01*
X-188686Y-50740D01*
X-188333Y-51591D01*
X-187772Y-52322D01*
X-187041Y-52883D01*
X-186189Y-53236D01*
X-185276Y-53356D01*
X-184362Y-53236D01*
X-183510Y-52883D01*
X-182779Y-52322D01*
X-182218Y-51591D01*
X-181866Y-50740D01*
X-181745Y-49826D01*
X-181866Y-48912D01*
X-182218Y-48061D01*
X-182779Y-47330D01*
X-183510Y-46769D01*
X-184362Y-46416D01*
X-185276Y-46296D01*
D02*
G37*
G36*
X-195276D02*
X-196189Y-46416D01*
X-197041Y-46769D01*
X-197772Y-47330D01*
X-198333Y-48061D01*
X-198686Y-48912D01*
X-198806Y-49826D01*
X-198686Y-50740D01*
X-198333Y-51591D01*
X-197772Y-52322D01*
X-197041Y-52883D01*
X-196189Y-53236D01*
X-195276Y-53356D01*
X-194362Y-53236D01*
X-193510Y-52883D01*
X-192779Y-52322D01*
X-192218Y-51591D01*
X-191866Y-50740D01*
X-191745Y-49826D01*
X-191866Y-48912D01*
X-192218Y-48061D01*
X-192779Y-47330D01*
X-193510Y-46769D01*
X-194362Y-46416D01*
X-195276Y-46296D01*
D02*
G37*
G36*
X-201276Y-50326D02*
X-204776D01*
Y-53826D01*
X-201276D01*
Y-50326D01*
D02*
G37*
G36*
X-205776D02*
X-209276D01*
Y-53826D01*
X-205776D01*
Y-50326D01*
D02*
G37*
G36*
X-137437Y-134395D02*
X-137788Y-134465D01*
X-138510Y-134947D01*
X-138992Y-135669D01*
X-139061Y-136020D01*
X-137437D01*
Y-134395D01*
D02*
G37*
G36*
Y-137020D02*
X-139061D01*
X-138992Y-137371D01*
X-138510Y-138092D01*
X-137788Y-138574D01*
X-137437Y-138644D01*
Y-137020D01*
D02*
G37*
G36*
X-140350Y-141155D02*
Y-144874D01*
X-136632D01*
X-136712Y-144265D01*
X-137140Y-143232D01*
X-137821Y-142344D01*
X-138708Y-141663D01*
X-139741Y-141235D01*
X-140350Y-141155D01*
D02*
G37*
G36*
X-141350D02*
X-141959Y-141235D01*
X-142993Y-141663D01*
X-143880Y-142344D01*
X-144561Y-143232D01*
X-144989Y-144265D01*
X-145069Y-144874D01*
X-141350D01*
Y-141155D01*
D02*
G37*
G36*
X-136632Y-145874D02*
X-140350D01*
Y-149593D01*
X-139741Y-149513D01*
X-138708Y-149085D01*
X-137821Y-148404D01*
X-137140Y-147516D01*
X-136712Y-146483D01*
X-136632Y-145874D01*
D02*
G37*
G36*
X-141350D02*
X-145069D01*
X-144989Y-146483D01*
X-144561Y-147516D01*
X-143880Y-148404D01*
X-142993Y-149085D01*
X-141959Y-149513D01*
X-141350Y-149593D01*
Y-145874D01*
D02*
G37*
G36*
X-146280Y-154080D02*
Y-155705D01*
X-144655D01*
X-144725Y-155354D01*
X-145207Y-154632D01*
X-145929Y-154150D01*
X-146280Y-154080D01*
D02*
G37*
G36*
X-147280D02*
X-147631Y-154150D01*
X-148352Y-154632D01*
X-148834Y-155354D01*
X-148904Y-155705D01*
X-147280D01*
Y-154080D01*
D02*
G37*
G36*
X-144655Y-156705D02*
X-146280D01*
Y-158329D01*
X-145929Y-158259D01*
X-145207Y-157777D01*
X-144725Y-157056D01*
X-144655Y-156705D01*
D02*
G37*
G36*
X-147280D02*
X-148904D01*
X-148834Y-157056D01*
X-148352Y-157777D01*
X-147631Y-158259D01*
X-147280Y-158329D01*
Y-156705D01*
D02*
G37*
G36*
X161350Y-141155D02*
Y-144874D01*
X165069D01*
X164989Y-144265D01*
X164561Y-143232D01*
X163880Y-142344D01*
X162993Y-141663D01*
X161959Y-141235D01*
X161350Y-141155D01*
D02*
G37*
G36*
X160350D02*
X159741Y-141235D01*
X158708Y-141663D01*
X157821Y-142344D01*
X157140Y-143232D01*
X156712Y-144265D01*
X156632Y-144874D01*
X160350D01*
Y-141155D01*
D02*
G37*
G36*
X165069Y-145874D02*
X161350D01*
Y-149593D01*
X161959Y-149513D01*
X162993Y-149085D01*
X163880Y-148404D01*
X164561Y-147516D01*
X164989Y-146483D01*
X165069Y-145874D01*
D02*
G37*
G36*
X160350D02*
X156632D01*
X156712Y-146483D01*
X157140Y-147516D01*
X157821Y-148404D01*
X158708Y-149085D01*
X159741Y-149513D01*
X160350Y-149593D01*
Y-145874D01*
D02*
G37*
G36*
X148996Y-154080D02*
Y-155705D01*
X150620D01*
X150551Y-155354D01*
X150069Y-154632D01*
X149347Y-154150D01*
X148996Y-154080D01*
D02*
G37*
G36*
X147996D02*
X147645Y-154150D01*
X146924Y-154632D01*
X146441Y-155354D01*
X146372Y-155705D01*
X147996D01*
Y-154080D01*
D02*
G37*
G36*
X150620Y-156705D02*
X148996D01*
Y-158329D01*
X149347Y-158259D01*
X150069Y-157777D01*
X150551Y-157056D01*
X150620Y-156705D01*
D02*
G37*
G36*
X147996D02*
X146372D01*
X146441Y-157056D01*
X146924Y-157777D01*
X147645Y-158259D01*
X147996Y-158329D01*
Y-156705D01*
D02*
G37*
G36*
X205776Y-114755D02*
Y-118224D01*
X209244D01*
X209173Y-117679D01*
X208770Y-116706D01*
X208128Y-115871D01*
X207293Y-115229D01*
X206320Y-114827D01*
X205776Y-114755D01*
D02*
G37*
G36*
X204776D02*
X204231Y-114827D01*
X203258Y-115229D01*
X202423Y-115871D01*
X201782Y-116706D01*
X201378Y-117679D01*
X201307Y-118224D01*
X204776D01*
Y-114755D01*
D02*
G37*
G36*
X185276Y-115193D02*
X184362Y-115314D01*
X183510Y-115666D01*
X182779Y-116227D01*
X182218Y-116958D01*
X181866Y-117810D01*
X181745Y-118723D01*
X181866Y-119637D01*
X182218Y-120489D01*
X182779Y-121220D01*
X183510Y-121781D01*
X184362Y-122133D01*
X185276Y-122254D01*
X186189Y-122133D01*
X187041Y-121781D01*
X187772Y-121220D01*
X188333Y-120489D01*
X188686Y-119637D01*
X188806Y-118723D01*
X188686Y-117810D01*
X188333Y-116958D01*
X187772Y-116227D01*
X187041Y-115666D01*
X186189Y-115314D01*
X185276Y-115193D01*
D02*
G37*
G36*
X209244Y-119223D02*
X205776D01*
Y-122692D01*
X206320Y-122621D01*
X207293Y-122218D01*
X208128Y-121576D01*
X208770Y-120741D01*
X209173Y-119768D01*
X209244Y-119223D01*
D02*
G37*
G36*
X204776D02*
X201307D01*
X201378Y-119768D01*
X201782Y-120741D01*
X202423Y-121576D01*
X203258Y-122218D01*
X204231Y-122621D01*
X204776Y-122692D01*
Y-119223D01*
D02*
G37*
G36*
X205913Y-128643D02*
Y-134736D01*
X212006D01*
X211928Y-133940D01*
X211550Y-132694D01*
X210936Y-131546D01*
X210110Y-130540D01*
X209104Y-129713D01*
X207955Y-129100D01*
X206709Y-128722D01*
X205913Y-128643D01*
D02*
G37*
G36*
X185638D02*
Y-134736D01*
X191731D01*
X191652Y-133940D01*
X191274Y-132694D01*
X190661Y-131546D01*
X189834Y-130540D01*
X188828Y-129713D01*
X187680Y-129100D01*
X186434Y-128722D01*
X185638Y-128643D01*
D02*
G37*
G36*
X204913D02*
X204118Y-128722D01*
X202871Y-129100D01*
X201723Y-129713D01*
X200717Y-130540D01*
X199891Y-131546D01*
X199277Y-132694D01*
X198899Y-133940D01*
X198820Y-134736D01*
X204913D01*
Y-128643D01*
D02*
G37*
G36*
X184638D02*
X183842Y-128722D01*
X182596Y-129100D01*
X181448Y-129713D01*
X180441Y-130540D01*
X179615Y-131546D01*
X179001Y-132694D01*
X178623Y-133940D01*
X178545Y-134736D01*
X184638D01*
Y-128643D01*
D02*
G37*
G36*
X212006Y-135736D02*
X205913D01*
Y-141829D01*
X206709Y-141751D01*
X207955Y-141373D01*
X209104Y-140759D01*
X210110Y-139933D01*
X210936Y-138926D01*
X211550Y-137778D01*
X211928Y-136532D01*
X212006Y-135736D01*
D02*
G37*
G36*
X191731D02*
X185638D01*
Y-141829D01*
X186434Y-141751D01*
X187680Y-141373D01*
X188828Y-140759D01*
X189834Y-139933D01*
X190661Y-138926D01*
X191274Y-137778D01*
X191652Y-136532D01*
X191731Y-135736D01*
D02*
G37*
G36*
X204913D02*
X198820D01*
X198899Y-136532D01*
X199277Y-137778D01*
X199891Y-138926D01*
X200717Y-139933D01*
X201723Y-140759D01*
X202871Y-141373D01*
X204118Y-141751D01*
X204913Y-141829D01*
Y-135736D01*
D02*
G37*
G36*
X184638D02*
X178545D01*
X178623Y-136532D01*
X179001Y-137778D01*
X179615Y-138926D01*
X180441Y-139933D01*
X181448Y-140759D01*
X182596Y-141373D01*
X183842Y-141751D01*
X184638Y-141829D01*
Y-135736D01*
D02*
G37*
G36*
X195276Y-115193D02*
X194362Y-115314D01*
X193510Y-115666D01*
X192779Y-116227D01*
X192218Y-116958D01*
X191866Y-117810D01*
X191745Y-118723D01*
X191866Y-119637D01*
X192218Y-120489D01*
X192779Y-121220D01*
X193236Y-121571D01*
Y-140564D01*
X192641Y-140811D01*
X191550Y-141648D01*
X190712Y-142739D01*
X190186Y-144010D01*
X190006Y-145374D01*
X190186Y-146738D01*
X190712Y-148009D01*
X191550Y-149100D01*
X192641Y-149937D01*
X193912Y-150464D01*
X195276Y-150644D01*
X196639Y-150464D01*
X197910Y-149937D01*
X199002Y-149100D01*
X199839Y-148009D01*
X200365Y-146738D01*
X200545Y-145374D01*
X200365Y-144010D01*
X199839Y-142739D01*
X199002Y-141648D01*
X197910Y-140811D01*
X197315Y-140564D01*
Y-121571D01*
X197772Y-121220D01*
X198333Y-120489D01*
X198686Y-119637D01*
X198806Y-118723D01*
X198686Y-117810D01*
X198333Y-116958D01*
X197772Y-116227D01*
X197041Y-115666D01*
X196189Y-115314D01*
X195276Y-115193D01*
D02*
G37*
G36*
X205913Y-148919D02*
Y-155012D01*
X212006D01*
X211928Y-154216D01*
X211550Y-152970D01*
X210936Y-151822D01*
X210110Y-150815D01*
X209104Y-149989D01*
X207955Y-149375D01*
X206709Y-148997D01*
X205913Y-148919D01*
D02*
G37*
G36*
X185638D02*
Y-155012D01*
X191731D01*
X191652Y-154216D01*
X191274Y-152970D01*
X190661Y-151822D01*
X189834Y-150815D01*
X188828Y-149989D01*
X187680Y-149375D01*
X186434Y-148997D01*
X185638Y-148919D01*
D02*
G37*
G36*
X204913D02*
X204118Y-148997D01*
X202871Y-149375D01*
X201723Y-149989D01*
X200717Y-150815D01*
X199891Y-151822D01*
X199277Y-152970D01*
X198899Y-154216D01*
X198820Y-155012D01*
X204913D01*
Y-148919D01*
D02*
G37*
G36*
X184638D02*
X183842Y-148997D01*
X182596Y-149375D01*
X181448Y-149989D01*
X180441Y-150815D01*
X179615Y-151822D01*
X179001Y-152970D01*
X178623Y-154216D01*
X178545Y-155012D01*
X184638D01*
Y-148919D01*
D02*
G37*
G36*
X212006Y-156012D02*
X205913D01*
Y-162105D01*
X206709Y-162026D01*
X207955Y-161648D01*
X209104Y-161035D01*
X210110Y-160209D01*
X210936Y-159202D01*
X211550Y-158054D01*
X211928Y-156808D01*
X212006Y-156012D01*
D02*
G37*
G36*
X191731D02*
X185638D01*
Y-162105D01*
X186434Y-162026D01*
X187680Y-161648D01*
X188828Y-161035D01*
X189834Y-160209D01*
X190661Y-159202D01*
X191274Y-158054D01*
X191652Y-156808D01*
X191731Y-156012D01*
D02*
G37*
G36*
X204913D02*
X198820D01*
X198899Y-156808D01*
X199277Y-158054D01*
X199891Y-159202D01*
X200717Y-160209D01*
X201723Y-161035D01*
X202871Y-161648D01*
X204118Y-162026D01*
X204913Y-162105D01*
Y-156012D01*
D02*
G37*
G36*
X184638D02*
X178545D01*
X178623Y-156808D01*
X179001Y-158054D01*
X179615Y-159202D01*
X180441Y-160209D01*
X181448Y-161035D01*
X182596Y-161648D01*
X183842Y-162026D01*
X184638Y-162105D01*
Y-156012D01*
D02*
G37*
G36*
X116924Y-114755D02*
Y-118224D01*
X120393D01*
X120321Y-117679D01*
X119918Y-116706D01*
X119277Y-115871D01*
X118441Y-115229D01*
X117468Y-114827D01*
X116924Y-114755D01*
D02*
G37*
G36*
X115924D02*
X115380Y-114827D01*
X114407Y-115229D01*
X113571Y-115871D01*
X112930Y-116706D01*
X112527Y-117679D01*
X112455Y-118224D01*
X115924D01*
Y-114755D01*
D02*
G37*
G36*
X96424Y-115193D02*
X95510Y-115314D01*
X94659Y-115666D01*
X93928Y-116227D01*
X93367Y-116958D01*
X93014Y-117810D01*
X92894Y-118723D01*
X93014Y-119637D01*
X93367Y-120489D01*
X93928Y-121220D01*
X94659Y-121781D01*
X95510Y-122133D01*
X96424Y-122254D01*
X97338Y-122133D01*
X98189Y-121781D01*
X98920Y-121220D01*
X99481Y-120489D01*
X99834Y-119637D01*
X99954Y-118723D01*
X99834Y-117810D01*
X99481Y-116958D01*
X98920Y-116227D01*
X98189Y-115666D01*
X97338Y-115314D01*
X96424Y-115193D01*
D02*
G37*
G36*
X120393Y-119223D02*
X116924D01*
Y-122692D01*
X117468Y-122621D01*
X118441Y-122218D01*
X119277Y-121576D01*
X119918Y-120741D01*
X120321Y-119768D01*
X120393Y-119223D01*
D02*
G37*
G36*
X115924D02*
X112455D01*
X112527Y-119768D01*
X112930Y-120741D01*
X113571Y-121576D01*
X114407Y-122218D01*
X115380Y-122621D01*
X115924Y-122692D01*
Y-119223D01*
D02*
G37*
G36*
X116937Y-128643D02*
Y-134736D01*
X123030D01*
X122952Y-133940D01*
X122574Y-132694D01*
X121960Y-131546D01*
X121134Y-130540D01*
X120127Y-129713D01*
X118979Y-129100D01*
X117733Y-128722D01*
X116937Y-128643D01*
D02*
G37*
G36*
X96662D02*
Y-134736D01*
X102754D01*
X102676Y-133940D01*
X102298Y-132694D01*
X101684Y-131546D01*
X100858Y-130540D01*
X99852Y-129713D01*
X98703Y-129100D01*
X97457Y-128722D01*
X96662Y-128643D01*
D02*
G37*
G36*
X115937Y-128643D02*
X115141Y-128722D01*
X113895Y-129100D01*
X112747Y-129713D01*
X111740Y-130540D01*
X110914Y-131546D01*
X110300Y-132694D01*
X109922Y-133940D01*
X109844Y-134736D01*
X115937D01*
Y-128643D01*
D02*
G37*
G36*
X95661D02*
X94866Y-128722D01*
X93620Y-129100D01*
X92471Y-129713D01*
X91465Y-130540D01*
X90639Y-131546D01*
X90025Y-132694D01*
X89647Y-133940D01*
X89569Y-134736D01*
X95661D01*
Y-128643D01*
D02*
G37*
G36*
X123030Y-135736D02*
X116937D01*
Y-141829D01*
X117733Y-141751D01*
X118979Y-141373D01*
X120127Y-140759D01*
X121134Y-139933D01*
X121960Y-138926D01*
X122574Y-137778D01*
X122952Y-136532D01*
X123030Y-135736D01*
D02*
G37*
G36*
X102754D02*
X96662D01*
Y-141829D01*
X97457Y-141751D01*
X98703Y-141373D01*
X99852Y-140759D01*
X100858Y-139933D01*
X101684Y-138926D01*
X102298Y-137778D01*
X102676Y-136532D01*
X102754Y-135736D01*
D02*
G37*
G36*
X115937D02*
X109844D01*
X109922Y-136532D01*
X110300Y-137778D01*
X110914Y-138926D01*
X111740Y-139933D01*
X112747Y-140759D01*
X113895Y-141373D01*
X115141Y-141751D01*
X115937Y-141829D01*
Y-135736D01*
D02*
G37*
G36*
X95661D02*
X89569D01*
X89647Y-136532D01*
X90025Y-137778D01*
X90639Y-138926D01*
X91465Y-139933D01*
X92471Y-140759D01*
X93620Y-141373D01*
X94866Y-141751D01*
X95661Y-141829D01*
Y-135736D01*
D02*
G37*
G36*
X106424Y-115193D02*
X105510Y-115314D01*
X104659Y-115666D01*
X103928Y-116227D01*
X103367Y-116958D01*
X103014Y-117810D01*
X102894Y-118723D01*
X103014Y-119637D01*
X103367Y-120489D01*
X103928Y-121220D01*
X104322Y-121523D01*
Y-140538D01*
X103665Y-140811D01*
X102573Y-141648D01*
X101736Y-142739D01*
X101209Y-144010D01*
X101030Y-145374D01*
X101209Y-146738D01*
X101736Y-148009D01*
X102573Y-149100D01*
X103665Y-149937D01*
X104935Y-150464D01*
X106299Y-150644D01*
X107663Y-150464D01*
X108934Y-149937D01*
X110025Y-149100D01*
X110863Y-148009D01*
X111389Y-146738D01*
X111569Y-145374D01*
X111389Y-144010D01*
X110863Y-142739D01*
X110025Y-141648D01*
X108934Y-140811D01*
X108401Y-140590D01*
Y-121618D01*
X108920Y-121220D01*
X109481Y-120489D01*
X109834Y-119637D01*
X109954Y-118723D01*
X109834Y-117810D01*
X109481Y-116958D01*
X108920Y-116227D01*
X108189Y-115666D01*
X107338Y-115314D01*
X106424Y-115193D01*
D02*
G37*
G36*
X116937Y-148919D02*
Y-155012D01*
X123030D01*
X122952Y-154216D01*
X122574Y-152970D01*
X121960Y-151822D01*
X121134Y-150815D01*
X120127Y-149989D01*
X118979Y-149375D01*
X117733Y-148997D01*
X116937Y-148919D01*
D02*
G37*
G36*
X96662D02*
Y-155012D01*
X102754D01*
X102676Y-154216D01*
X102298Y-152970D01*
X101684Y-151822D01*
X100858Y-150815D01*
X99852Y-149989D01*
X98703Y-149375D01*
X97457Y-148997D01*
X96662Y-148919D01*
D02*
G37*
G36*
X115937Y-148919D02*
X115141Y-148997D01*
X113895Y-149375D01*
X112747Y-149989D01*
X111740Y-150815D01*
X110914Y-151822D01*
X110300Y-152970D01*
X109922Y-154216D01*
X109844Y-155012D01*
X115937D01*
Y-148919D01*
D02*
G37*
G36*
X95661D02*
X94866Y-148997D01*
X93620Y-149375D01*
X92471Y-149989D01*
X91465Y-150815D01*
X90639Y-151822D01*
X90025Y-152970D01*
X89647Y-154216D01*
X89569Y-155012D01*
X95661D01*
Y-148919D01*
D02*
G37*
G36*
X123030Y-156012D02*
X116937D01*
Y-162105D01*
X117733Y-162026D01*
X118979Y-161648D01*
X120127Y-161035D01*
X121134Y-160209D01*
X121960Y-159202D01*
X122574Y-158054D01*
X122952Y-156808D01*
X123030Y-156012D01*
D02*
G37*
G36*
X102754D02*
X96662D01*
Y-162105D01*
X97457Y-162026D01*
X98703Y-161648D01*
X99852Y-161035D01*
X100858Y-160209D01*
X101684Y-159202D01*
X102298Y-158054D01*
X102676Y-156808D01*
X102754Y-156012D01*
D02*
G37*
G36*
X115937D02*
X109844D01*
X109922Y-156808D01*
X110300Y-158054D01*
X110914Y-159202D01*
X111740Y-160209D01*
X112747Y-161035D01*
X113895Y-161648D01*
X115141Y-162026D01*
X115937Y-162105D01*
Y-156012D01*
D02*
G37*
G36*
X95661D02*
X89569D01*
X89647Y-156808D01*
X90025Y-158054D01*
X90639Y-159202D01*
X91465Y-160209D01*
X92471Y-161035D01*
X93620Y-161648D01*
X94866Y-162026D01*
X95661Y-162105D01*
Y-156012D01*
D02*
G37*
G36*
X45996Y-114755D02*
Y-118224D01*
X49464D01*
X49393Y-117679D01*
X48989Y-116706D01*
X48348Y-115871D01*
X47513Y-115229D01*
X46540Y-114827D01*
X45996Y-114755D01*
D02*
G37*
G36*
X44995D02*
X44451Y-114827D01*
X43478Y-115229D01*
X42643Y-115871D01*
X42002Y-116706D01*
X41598Y-117679D01*
X41527Y-118224D01*
X44995D01*
Y-114755D01*
D02*
G37*
G36*
X25495Y-115193D02*
X24582Y-115314D01*
X23730Y-115666D01*
X22999Y-116227D01*
X22438Y-116958D01*
X22086Y-117810D01*
X21965Y-118723D01*
X22086Y-119637D01*
X22438Y-120489D01*
X22999Y-121220D01*
X23730Y-121781D01*
X24582Y-122133D01*
X25495Y-122254D01*
X26409Y-122133D01*
X27261Y-121781D01*
X27992Y-121220D01*
X28553Y-120489D01*
X28905Y-119637D01*
X29026Y-118723D01*
X28905Y-117810D01*
X28553Y-116958D01*
X27992Y-116227D01*
X27261Y-115666D01*
X26409Y-115314D01*
X25495Y-115193D01*
D02*
G37*
G36*
X49464Y-119223D02*
X45996D01*
Y-122692D01*
X46540Y-122621D01*
X47513Y-122218D01*
X48348Y-121576D01*
X48989Y-120741D01*
X49393Y-119768D01*
X49464Y-119223D01*
D02*
G37*
G36*
X44995D02*
X41527D01*
X41598Y-119768D01*
X42002Y-120741D01*
X42643Y-121576D01*
X43478Y-122218D01*
X44451Y-122621D01*
X44995Y-122692D01*
Y-119223D01*
D02*
G37*
G36*
X46071Y-128643D02*
Y-134736D01*
X52164D01*
X52086Y-133940D01*
X51708Y-132694D01*
X51094Y-131546D01*
X50268Y-130540D01*
X49261Y-129713D01*
X48113Y-129100D01*
X46867Y-128722D01*
X46071Y-128643D01*
D02*
G37*
G36*
X25795D02*
Y-134736D01*
X31888D01*
X31810Y-133940D01*
X31432Y-132694D01*
X30818Y-131546D01*
X29992Y-130540D01*
X28986Y-129713D01*
X27837Y-129100D01*
X26591Y-128722D01*
X25795Y-128643D01*
D02*
G37*
G36*
X45071D02*
X44275Y-128722D01*
X43029Y-129100D01*
X41881Y-129713D01*
X40874Y-130540D01*
X40048Y-131546D01*
X39434Y-132694D01*
X39056Y-133940D01*
X38978Y-134736D01*
X45071D01*
Y-128643D01*
D02*
G37*
G36*
X24795D02*
X23999Y-128722D01*
X22753Y-129100D01*
X21605Y-129713D01*
X20598Y-130540D01*
X19772Y-131546D01*
X19159Y-132694D01*
X18781Y-133940D01*
X18702Y-134736D01*
X24795D01*
Y-128643D01*
D02*
G37*
G36*
X52164Y-135736D02*
X46071D01*
Y-141829D01*
X46867Y-141751D01*
X48113Y-141373D01*
X49261Y-140759D01*
X50268Y-139933D01*
X51094Y-138926D01*
X51708Y-137778D01*
X52086Y-136532D01*
X52164Y-135736D01*
D02*
G37*
G36*
X31888D02*
X25795D01*
Y-141829D01*
X26591Y-141751D01*
X27837Y-141373D01*
X28986Y-140759D01*
X29992Y-139933D01*
X30818Y-138926D01*
X31432Y-137778D01*
X31810Y-136532D01*
X31888Y-135736D01*
D02*
G37*
G36*
X45071D02*
X38978D01*
X39056Y-136532D01*
X39434Y-137778D01*
X40048Y-138926D01*
X40874Y-139933D01*
X41881Y-140759D01*
X43029Y-141373D01*
X44275Y-141751D01*
X45071Y-141829D01*
Y-135736D01*
D02*
G37*
G36*
X24795D02*
X18702D01*
X18781Y-136532D01*
X19159Y-137778D01*
X19772Y-138926D01*
X20598Y-139933D01*
X21605Y-140759D01*
X22753Y-141373D01*
X23999Y-141751D01*
X24795Y-141829D01*
Y-135736D01*
D02*
G37*
G36*
X35495Y-115193D02*
X34582Y-115314D01*
X33730Y-115666D01*
X32999Y-116227D01*
X32438Y-116958D01*
X32086Y-117810D01*
X31965Y-118723D01*
X32086Y-119637D01*
X32438Y-120489D01*
X32999Y-121220D01*
X33394Y-121523D01*
Y-140564D01*
X32798Y-140811D01*
X31707Y-141648D01*
X30870Y-142739D01*
X30343Y-144010D01*
X30164Y-145374D01*
X30343Y-146738D01*
X30870Y-148009D01*
X31707Y-149100D01*
X32798Y-149937D01*
X34069Y-150464D01*
X35433Y-150644D01*
X36797Y-150464D01*
X38068Y-149937D01*
X39159Y-149100D01*
X39997Y-148009D01*
X40523Y-146738D01*
X40703Y-145374D01*
X40523Y-144010D01*
X39997Y-142739D01*
X39159Y-141648D01*
X38068Y-140811D01*
X37472Y-140564D01*
Y-121618D01*
X37992Y-121220D01*
X38553Y-120489D01*
X38905Y-119637D01*
X39026Y-118723D01*
X38905Y-117810D01*
X38553Y-116958D01*
X37992Y-116227D01*
X37261Y-115666D01*
X36409Y-115314D01*
X35495Y-115193D01*
D02*
G37*
G36*
X46071Y-148919D02*
Y-155012D01*
X52164D01*
X52086Y-154216D01*
X51708Y-152970D01*
X51094Y-151822D01*
X50268Y-150815D01*
X49261Y-149989D01*
X48113Y-149375D01*
X46867Y-148997D01*
X46071Y-148919D01*
D02*
G37*
G36*
X25795D02*
Y-155012D01*
X31888D01*
X31810Y-154216D01*
X31432Y-152970D01*
X30818Y-151822D01*
X29992Y-150815D01*
X28986Y-149989D01*
X27837Y-149375D01*
X26591Y-148997D01*
X25795Y-148919D01*
D02*
G37*
G36*
X45071D02*
X44275Y-148997D01*
X43029Y-149375D01*
X41881Y-149989D01*
X40874Y-150815D01*
X40048Y-151822D01*
X39434Y-152970D01*
X39056Y-154216D01*
X38978Y-155012D01*
X45071D01*
Y-148919D01*
D02*
G37*
G36*
X24795D02*
X23999Y-148997D01*
X22753Y-149375D01*
X21605Y-149989D01*
X20598Y-150815D01*
X19772Y-151822D01*
X19159Y-152970D01*
X18781Y-154216D01*
X18702Y-155012D01*
X24795D01*
Y-148919D01*
D02*
G37*
G36*
X52164Y-156012D02*
X46071D01*
Y-162105D01*
X46867Y-162026D01*
X48113Y-161648D01*
X49261Y-161035D01*
X50268Y-160209D01*
X51094Y-159202D01*
X51708Y-158054D01*
X52086Y-156808D01*
X52164Y-156012D01*
D02*
G37*
G36*
X31888D02*
X25795D01*
Y-162105D01*
X26591Y-162026D01*
X27837Y-161648D01*
X28986Y-161035D01*
X29992Y-160209D01*
X30818Y-159202D01*
X31432Y-158054D01*
X31810Y-156808D01*
X31888Y-156012D01*
D02*
G37*
G36*
X45071D02*
X38978D01*
X39056Y-156808D01*
X39434Y-158054D01*
X40048Y-159202D01*
X40874Y-160209D01*
X41881Y-161035D01*
X43029Y-161648D01*
X44275Y-162026D01*
X45071Y-162105D01*
Y-156012D01*
D02*
G37*
G36*
X24795D02*
X18702D01*
X18781Y-156808D01*
X19159Y-158054D01*
X19772Y-159202D01*
X20598Y-160209D01*
X21605Y-161035D01*
X22753Y-161648D01*
X23999Y-162026D01*
X24795Y-162105D01*
Y-156012D01*
D02*
G37*
G36*
X-24871Y-114755D02*
Y-118224D01*
X-21402D01*
X-21474Y-117679D01*
X-21877Y-116706D01*
X-22518Y-115871D01*
X-23353Y-115229D01*
X-24327Y-114827D01*
X-24871Y-114755D01*
D02*
G37*
G36*
X-25871D02*
X-26415Y-114827D01*
X-27388Y-115229D01*
X-28223Y-115871D01*
X-28865Y-116706D01*
X-29268Y-117679D01*
X-29339Y-118224D01*
X-25871D01*
Y-114755D01*
D02*
G37*
G36*
X-45371Y-115193D02*
X-46284Y-115314D01*
X-47136Y-115666D01*
X-47867Y-116227D01*
X-48428Y-116958D01*
X-48781Y-117810D01*
X-48901Y-118723D01*
X-48781Y-119637D01*
X-48428Y-120489D01*
X-47867Y-121220D01*
X-47136Y-121781D01*
X-46284Y-122133D01*
X-45371Y-122254D01*
X-44457Y-122133D01*
X-43606Y-121781D01*
X-42875Y-121220D01*
X-42313Y-120489D01*
X-41961Y-119637D01*
X-41840Y-118723D01*
X-41961Y-117810D01*
X-42313Y-116958D01*
X-42875Y-116227D01*
X-43606Y-115666D01*
X-44457Y-115314D01*
X-45371Y-115193D01*
D02*
G37*
G36*
X-21402Y-119223D02*
X-24871D01*
Y-122692D01*
X-24327Y-122621D01*
X-23353Y-122218D01*
X-22518Y-121576D01*
X-21877Y-120741D01*
X-21474Y-119768D01*
X-21402Y-119223D01*
D02*
G37*
G36*
X-25871D02*
X-29339D01*
X-29268Y-119768D01*
X-28865Y-120741D01*
X-28223Y-121576D01*
X-27388Y-122218D01*
X-26415Y-122621D01*
X-25871Y-122692D01*
Y-119223D01*
D02*
G37*
G36*
X-24795Y-128643D02*
Y-134736D01*
X-18702D01*
X-18781Y-133940D01*
X-19159Y-132694D01*
X-19772Y-131546D01*
X-20598Y-130540D01*
X-21605Y-129713D01*
X-22753Y-129100D01*
X-23999Y-128722D01*
X-24795Y-128643D01*
D02*
G37*
G36*
X-45071D02*
Y-134736D01*
X-38978D01*
X-39056Y-133940D01*
X-39434Y-132694D01*
X-40048Y-131546D01*
X-40874Y-130540D01*
X-41881Y-129713D01*
X-43029Y-129100D01*
X-44275Y-128722D01*
X-45071Y-128643D01*
D02*
G37*
G36*
X-25795D02*
X-26591Y-128722D01*
X-27837Y-129100D01*
X-28986Y-129713D01*
X-29992Y-130540D01*
X-30818Y-131546D01*
X-31432Y-132694D01*
X-31810Y-133940D01*
X-31888Y-134736D01*
X-25795D01*
Y-128643D01*
D02*
G37*
G36*
X-46071D02*
X-46867Y-128722D01*
X-48113Y-129100D01*
X-49261Y-129713D01*
X-50268Y-130540D01*
X-51094Y-131546D01*
X-51708Y-132694D01*
X-52086Y-133940D01*
X-52164Y-134736D01*
X-46071D01*
Y-128643D01*
D02*
G37*
G36*
X-18702Y-135736D02*
X-24795D01*
Y-141829D01*
X-23999Y-141751D01*
X-22753Y-141373D01*
X-21605Y-140759D01*
X-20598Y-139933D01*
X-19772Y-138926D01*
X-19159Y-137778D01*
X-18781Y-136532D01*
X-18702Y-135736D01*
D02*
G37*
G36*
X-38978D02*
X-45071D01*
Y-141829D01*
X-44275Y-141751D01*
X-43029Y-141373D01*
X-41881Y-140759D01*
X-40874Y-139933D01*
X-40048Y-138926D01*
X-39434Y-137778D01*
X-39056Y-136532D01*
X-38978Y-135736D01*
D02*
G37*
G36*
X-25795D02*
X-31888D01*
X-31810Y-136532D01*
X-31432Y-137778D01*
X-30818Y-138926D01*
X-29992Y-139933D01*
X-28986Y-140759D01*
X-27837Y-141373D01*
X-26591Y-141751D01*
X-25795Y-141829D01*
Y-135736D01*
D02*
G37*
G36*
X-46071D02*
X-52164D01*
X-52086Y-136532D01*
X-51708Y-137778D01*
X-51094Y-138926D01*
X-50268Y-139933D01*
X-49261Y-140759D01*
X-48113Y-141373D01*
X-46867Y-141751D01*
X-46071Y-141829D01*
Y-135736D01*
D02*
G37*
G36*
X-35371Y-115193D02*
X-36284Y-115314D01*
X-37136Y-115666D01*
X-37867Y-116227D01*
X-38428Y-116958D01*
X-38781Y-117810D01*
X-38901Y-118723D01*
X-38781Y-119637D01*
X-38428Y-120489D01*
X-37867Y-121220D01*
X-37410Y-121571D01*
Y-140538D01*
X-38068Y-140811D01*
X-39159Y-141648D01*
X-39997Y-142739D01*
X-40523Y-144010D01*
X-40703Y-145374D01*
X-40523Y-146738D01*
X-39997Y-148009D01*
X-39159Y-149100D01*
X-38068Y-149937D01*
X-36797Y-150464D01*
X-35433Y-150644D01*
X-34069Y-150464D01*
X-32798Y-149937D01*
X-31707Y-149100D01*
X-30870Y-148009D01*
X-30343Y-146738D01*
X-30164Y-145374D01*
X-30343Y-144010D01*
X-30870Y-142739D01*
X-31707Y-141648D01*
X-32798Y-140811D01*
X-33332Y-140590D01*
Y-121571D01*
X-32875Y-121220D01*
X-32313Y-120489D01*
X-31961Y-119637D01*
X-31841Y-118723D01*
X-31961Y-117810D01*
X-32313Y-116958D01*
X-32875Y-116227D01*
X-33606Y-115666D01*
X-34457Y-115314D01*
X-35371Y-115193D01*
D02*
G37*
G36*
X-24795Y-148919D02*
Y-155012D01*
X-18702D01*
X-18781Y-154216D01*
X-19159Y-152970D01*
X-19772Y-151822D01*
X-20598Y-150815D01*
X-21605Y-149989D01*
X-22753Y-149375D01*
X-23999Y-148997D01*
X-24795Y-148919D01*
D02*
G37*
G36*
X-45071D02*
Y-155012D01*
X-38978D01*
X-39056Y-154216D01*
X-39434Y-152970D01*
X-40048Y-151822D01*
X-40874Y-150815D01*
X-41881Y-149989D01*
X-43029Y-149375D01*
X-44275Y-148997D01*
X-45071Y-148919D01*
D02*
G37*
G36*
X-25795D02*
X-26591Y-148997D01*
X-27837Y-149375D01*
X-28986Y-149989D01*
X-29992Y-150815D01*
X-30818Y-151822D01*
X-31432Y-152970D01*
X-31810Y-154216D01*
X-31888Y-155012D01*
X-25795D01*
Y-148919D01*
D02*
G37*
G36*
X-46071D02*
X-46867Y-148997D01*
X-48113Y-149375D01*
X-49261Y-149989D01*
X-50268Y-150815D01*
X-51094Y-151822D01*
X-51708Y-152970D01*
X-52086Y-154216D01*
X-52164Y-155012D01*
X-46071D01*
Y-148919D01*
D02*
G37*
G36*
X-18702Y-156012D02*
X-24795D01*
Y-162105D01*
X-23999Y-162026D01*
X-22753Y-161648D01*
X-21605Y-161035D01*
X-20598Y-160209D01*
X-19772Y-159202D01*
X-19159Y-158054D01*
X-18781Y-156808D01*
X-18702Y-156012D01*
D02*
G37*
G36*
X-38978D02*
X-45071D01*
Y-162105D01*
X-44275Y-162026D01*
X-43029Y-161648D01*
X-41881Y-161035D01*
X-40874Y-160209D01*
X-40048Y-159202D01*
X-39434Y-158054D01*
X-39056Y-156808D01*
X-38978Y-156012D01*
D02*
G37*
G36*
X-25795D02*
X-31888D01*
X-31810Y-156808D01*
X-31432Y-158054D01*
X-30818Y-159202D01*
X-29992Y-160209D01*
X-28986Y-161035D01*
X-27837Y-161648D01*
X-26591Y-162026D01*
X-25795Y-162105D01*
Y-156012D01*
D02*
G37*
G36*
X-46071D02*
X-52164D01*
X-52086Y-156808D01*
X-51708Y-158054D01*
X-51094Y-159202D01*
X-50268Y-160209D01*
X-49261Y-161035D01*
X-48113Y-161648D01*
X-46867Y-162026D01*
X-46071Y-162105D01*
Y-156012D01*
D02*
G37*
G36*
X-95674Y-114755D02*
Y-118224D01*
X-92206D01*
X-92277Y-117679D01*
X-92680Y-116706D01*
X-93322Y-115871D01*
X-94157Y-115229D01*
X-95130Y-114827D01*
X-95674Y-114755D01*
D02*
G37*
G36*
X-96674D02*
X-97219Y-114827D01*
X-98192Y-115229D01*
X-99027Y-115871D01*
X-99668Y-116706D01*
X-100072Y-117679D01*
X-100143Y-118224D01*
X-96674D01*
Y-114755D01*
D02*
G37*
G36*
X-116174Y-115193D02*
X-117088Y-115314D01*
X-117939Y-115666D01*
X-118671Y-116227D01*
X-119232Y-116958D01*
X-119584Y-117810D01*
X-119705Y-118723D01*
X-119584Y-119637D01*
X-119232Y-120489D01*
X-118671Y-121220D01*
X-117939Y-121781D01*
X-117088Y-122133D01*
X-116174Y-122254D01*
X-115261Y-122133D01*
X-114409Y-121781D01*
X-113678Y-121220D01*
X-113117Y-120489D01*
X-112765Y-119637D01*
X-112644Y-118723D01*
X-112765Y-117810D01*
X-113117Y-116958D01*
X-113678Y-116227D01*
X-114409Y-115666D01*
X-115261Y-115314D01*
X-116174Y-115193D01*
D02*
G37*
G36*
X-92206Y-119223D02*
X-95674D01*
Y-122692D01*
X-95130Y-122621D01*
X-94157Y-122218D01*
X-93322Y-121576D01*
X-92680Y-120741D01*
X-92277Y-119768D01*
X-92206Y-119223D01*
D02*
G37*
G36*
X-96674D02*
X-100143D01*
X-100072Y-119768D01*
X-99668Y-120741D01*
X-99027Y-121576D01*
X-98192Y-122218D01*
X-97219Y-122621D01*
X-96674Y-122692D01*
Y-119223D01*
D02*
G37*
G36*
X-95661Y-128643D02*
Y-134736D01*
X-89569D01*
X-89647Y-133940D01*
X-90025Y-132694D01*
X-90639Y-131546D01*
X-91465Y-130540D01*
X-92471Y-129713D01*
X-93620Y-129100D01*
X-94866Y-128722D01*
X-95661Y-128643D01*
D02*
G37*
G36*
X-115937D02*
Y-134736D01*
X-109844D01*
X-109922Y-133940D01*
X-110300Y-132694D01*
X-110914Y-131546D01*
X-111740Y-130540D01*
X-112747Y-129713D01*
X-113895Y-129100D01*
X-115141Y-128722D01*
X-115937Y-128643D01*
D02*
G37*
G36*
X-96661D02*
X-97457Y-128722D01*
X-98703Y-129100D01*
X-99852Y-129713D01*
X-100858Y-130540D01*
X-101684Y-131546D01*
X-102298Y-132694D01*
X-102676Y-133940D01*
X-102754Y-134736D01*
X-96661D01*
Y-128643D01*
D02*
G37*
G36*
X-116937D02*
X-117733Y-128722D01*
X-118979Y-129100D01*
X-120127Y-129713D01*
X-121134Y-130540D01*
X-121960Y-131546D01*
X-122574Y-132694D01*
X-122952Y-133940D01*
X-123030Y-134736D01*
X-116937D01*
Y-128643D01*
D02*
G37*
G36*
X-89569Y-135736D02*
X-95661D01*
Y-141829D01*
X-94866Y-141751D01*
X-93620Y-141373D01*
X-92471Y-140759D01*
X-91465Y-139933D01*
X-90639Y-138926D01*
X-90025Y-137778D01*
X-89647Y-136532D01*
X-89569Y-135736D01*
D02*
G37*
G36*
X-109844D02*
X-115937D01*
Y-141829D01*
X-115141Y-141751D01*
X-113895Y-141373D01*
X-112747Y-140759D01*
X-111740Y-139933D01*
X-110914Y-138926D01*
X-110300Y-137778D01*
X-109922Y-136532D01*
X-109844Y-135736D01*
D02*
G37*
G36*
X-96661D02*
X-102754D01*
X-102676Y-136532D01*
X-102298Y-137778D01*
X-101684Y-138926D01*
X-100858Y-139933D01*
X-99852Y-140759D01*
X-98703Y-141373D01*
X-97457Y-141751D01*
X-96661Y-141829D01*
Y-135736D01*
D02*
G37*
G36*
X-116937D02*
X-123030D01*
X-122952Y-136532D01*
X-122574Y-137778D01*
X-121960Y-138926D01*
X-121134Y-139933D01*
X-120127Y-140759D01*
X-118979Y-141373D01*
X-117733Y-141751D01*
X-116937Y-141829D01*
Y-135736D01*
D02*
G37*
G36*
X-106174Y-115193D02*
X-107088Y-115314D01*
X-107940Y-115666D01*
X-108671Y-116227D01*
X-109232Y-116958D01*
X-109584Y-117810D01*
X-109705Y-118723D01*
X-109584Y-119637D01*
X-109232Y-120489D01*
X-108671Y-121220D01*
X-108214Y-121571D01*
Y-140512D01*
X-108934Y-140811D01*
X-110025Y-141648D01*
X-110863Y-142739D01*
X-111389Y-144010D01*
X-111569Y-145374D01*
X-111389Y-146738D01*
X-110863Y-148009D01*
X-110025Y-149100D01*
X-108934Y-149937D01*
X-107663Y-150464D01*
X-106299Y-150644D01*
X-104935Y-150464D01*
X-103665Y-149937D01*
X-102573Y-149100D01*
X-101736Y-148009D01*
X-101209Y-146738D01*
X-101030Y-145374D01*
X-101209Y-144010D01*
X-101736Y-142739D01*
X-102573Y-141648D01*
X-103665Y-140811D01*
X-104135Y-140615D01*
Y-121571D01*
X-103678Y-121220D01*
X-103117Y-120489D01*
X-102764Y-119637D01*
X-102644Y-118723D01*
X-102764Y-117810D01*
X-103117Y-116958D01*
X-103678Y-116227D01*
X-104409Y-115666D01*
X-105261Y-115314D01*
X-106174Y-115193D01*
D02*
G37*
G36*
X-95661Y-148919D02*
Y-155012D01*
X-89569D01*
X-89647Y-154216D01*
X-90025Y-152970D01*
X-90639Y-151822D01*
X-91465Y-150815D01*
X-92471Y-149989D01*
X-93620Y-149375D01*
X-94866Y-148997D01*
X-95661Y-148919D01*
D02*
G37*
G36*
X-115937D02*
Y-155012D01*
X-109844D01*
X-109922Y-154216D01*
X-110300Y-152970D01*
X-110914Y-151822D01*
X-111740Y-150815D01*
X-112747Y-149989D01*
X-113895Y-149375D01*
X-115141Y-148997D01*
X-115937Y-148919D01*
D02*
G37*
G36*
X-96661D02*
X-97457Y-148997D01*
X-98703Y-149375D01*
X-99852Y-149989D01*
X-100858Y-150815D01*
X-101684Y-151822D01*
X-102298Y-152970D01*
X-102676Y-154216D01*
X-102754Y-155012D01*
X-96661D01*
Y-148919D01*
D02*
G37*
G36*
X-116937D02*
X-117733Y-148997D01*
X-118979Y-149375D01*
X-120127Y-149989D01*
X-121134Y-150815D01*
X-121960Y-151822D01*
X-122574Y-152970D01*
X-122952Y-154216D01*
X-123030Y-155012D01*
X-116937D01*
Y-148919D01*
D02*
G37*
G36*
X-89569Y-156012D02*
X-95661D01*
Y-162105D01*
X-94866Y-162026D01*
X-93620Y-161648D01*
X-92471Y-161035D01*
X-91465Y-160209D01*
X-90639Y-159202D01*
X-90025Y-158054D01*
X-89647Y-156808D01*
X-89569Y-156012D01*
D02*
G37*
G36*
X-109844D02*
X-115937D01*
Y-162105D01*
X-115141Y-162026D01*
X-113895Y-161648D01*
X-112747Y-161035D01*
X-111740Y-160209D01*
X-110914Y-159202D01*
X-110300Y-158054D01*
X-109922Y-156808D01*
X-109844Y-156012D01*
D02*
G37*
G36*
X-96661D02*
X-102754D01*
X-102676Y-156808D01*
X-102298Y-158054D01*
X-101684Y-159202D01*
X-100858Y-160209D01*
X-99852Y-161035D01*
X-98703Y-161648D01*
X-97457Y-162026D01*
X-96661Y-162105D01*
Y-156012D01*
D02*
G37*
G36*
X-116937D02*
X-123030D01*
X-122952Y-156808D01*
X-122574Y-158054D01*
X-121960Y-159202D01*
X-121134Y-160209D01*
X-120127Y-161035D01*
X-118979Y-161648D01*
X-117733Y-162026D01*
X-116937Y-162105D01*
Y-156012D01*
D02*
G37*
G36*
X-184776Y-114755D02*
Y-118224D01*
X-181307D01*
X-181378Y-117679D01*
X-181782Y-116706D01*
X-182423Y-115871D01*
X-183258Y-115229D01*
X-184231Y-114827D01*
X-184776Y-114755D01*
D02*
G37*
G36*
X-185776D02*
X-186320Y-114827D01*
X-187293Y-115229D01*
X-188128Y-115871D01*
X-188770Y-116706D01*
X-189173Y-117679D01*
X-189244Y-118224D01*
X-185776D01*
Y-114755D01*
D02*
G37*
G36*
X-205276Y-115193D02*
X-206189Y-115314D01*
X-207041Y-115666D01*
X-207772Y-116227D01*
X-208333Y-116958D01*
X-208685Y-117810D01*
X-208806Y-118723D01*
X-208685Y-119637D01*
X-208333Y-120489D01*
X-207772Y-121220D01*
X-207041Y-121781D01*
X-206189Y-122133D01*
X-205276Y-122254D01*
X-204362Y-122133D01*
X-203510Y-121781D01*
X-202779Y-121220D01*
X-202218Y-120489D01*
X-201866Y-119637D01*
X-201745Y-118723D01*
X-201866Y-117810D01*
X-202218Y-116958D01*
X-202779Y-116227D01*
X-203510Y-115666D01*
X-204362Y-115314D01*
X-205276Y-115193D01*
D02*
G37*
G36*
X-181307Y-119223D02*
X-184776D01*
Y-122692D01*
X-184231Y-122621D01*
X-183258Y-122218D01*
X-182423Y-121576D01*
X-181782Y-120741D01*
X-181378Y-119768D01*
X-181307Y-119223D01*
D02*
G37*
G36*
X-185776D02*
X-189244D01*
X-189173Y-119768D01*
X-188770Y-120741D01*
X-188128Y-121576D01*
X-187293Y-122218D01*
X-186320Y-122621D01*
X-185776Y-122692D01*
Y-119223D01*
D02*
G37*
G36*
X-184638Y-128643D02*
Y-134736D01*
X-178545D01*
X-178623Y-133940D01*
X-179001Y-132694D01*
X-179615Y-131546D01*
X-180441Y-130540D01*
X-181448Y-129713D01*
X-182596Y-129100D01*
X-183842Y-128722D01*
X-184638Y-128643D01*
D02*
G37*
G36*
X-204913D02*
Y-134736D01*
X-198820D01*
X-198899Y-133940D01*
X-199277Y-132694D01*
X-199891Y-131546D01*
X-200717Y-130540D01*
X-201723Y-129713D01*
X-202871Y-129100D01*
X-204118Y-128722D01*
X-204913Y-128643D01*
D02*
G37*
G36*
X-185638D02*
X-186434Y-128722D01*
X-187680Y-129100D01*
X-188828Y-129713D01*
X-189834Y-130540D01*
X-190661Y-131546D01*
X-191274Y-132694D01*
X-191652Y-133940D01*
X-191731Y-134736D01*
X-185638D01*
Y-128643D01*
D02*
G37*
G36*
X-205913D02*
X-206709Y-128722D01*
X-207955Y-129100D01*
X-209104Y-129713D01*
X-210110Y-130540D01*
X-210936Y-131546D01*
X-211550Y-132694D01*
X-211928Y-133940D01*
X-212006Y-134736D01*
X-205913D01*
Y-128643D01*
D02*
G37*
G36*
X-178545Y-135736D02*
X-184638D01*
Y-141829D01*
X-183842Y-141751D01*
X-182596Y-141373D01*
X-181448Y-140759D01*
X-180441Y-139933D01*
X-179615Y-138926D01*
X-179001Y-137778D01*
X-178623Y-136532D01*
X-178545Y-135736D01*
D02*
G37*
G36*
X-198820D02*
X-204913D01*
Y-141829D01*
X-204118Y-141751D01*
X-202871Y-141373D01*
X-201723Y-140759D01*
X-200717Y-139933D01*
X-199891Y-138926D01*
X-199277Y-137778D01*
X-198899Y-136532D01*
X-198820Y-135736D01*
D02*
G37*
G36*
X-185638D02*
X-191731D01*
X-191652Y-136532D01*
X-191274Y-137778D01*
X-190661Y-138926D01*
X-189834Y-139933D01*
X-188828Y-140759D01*
X-187680Y-141373D01*
X-186434Y-141751D01*
X-185638Y-141829D01*
Y-135736D01*
D02*
G37*
G36*
X-205913D02*
X-212006D01*
X-211928Y-136532D01*
X-211550Y-137778D01*
X-210936Y-138926D01*
X-210110Y-139933D01*
X-209104Y-140759D01*
X-207955Y-141373D01*
X-206709Y-141751D01*
X-205913Y-141829D01*
Y-135736D01*
D02*
G37*
G36*
X-195276Y-115193D02*
X-196189Y-115314D01*
X-197041Y-115666D01*
X-197772Y-116227D01*
X-198333Y-116958D01*
X-198686Y-117810D01*
X-198806Y-118723D01*
X-198686Y-119637D01*
X-198333Y-120489D01*
X-197772Y-121220D01*
X-197315Y-121571D01*
Y-140564D01*
X-197910Y-140811D01*
X-199002Y-141648D01*
X-199839Y-142739D01*
X-200365Y-144010D01*
X-200545Y-145374D01*
X-200365Y-146738D01*
X-199839Y-148009D01*
X-199002Y-149100D01*
X-197910Y-149937D01*
X-196639Y-150464D01*
X-195276Y-150644D01*
X-193912Y-150464D01*
X-192641Y-149937D01*
X-191550Y-149100D01*
X-190712Y-148009D01*
X-190186Y-146738D01*
X-190006Y-145374D01*
X-190186Y-144010D01*
X-190712Y-142739D01*
X-191550Y-141648D01*
X-192641Y-140811D01*
X-193236Y-140564D01*
Y-121571D01*
X-192779Y-121220D01*
X-192218Y-120489D01*
X-191866Y-119637D01*
X-191745Y-118723D01*
X-191866Y-117810D01*
X-192218Y-116958D01*
X-192779Y-116227D01*
X-193510Y-115666D01*
X-194362Y-115314D01*
X-195276Y-115193D01*
D02*
G37*
G36*
X-184638Y-148919D02*
Y-155012D01*
X-178545D01*
X-178623Y-154216D01*
X-179001Y-152970D01*
X-179615Y-151822D01*
X-180441Y-150815D01*
X-181448Y-149989D01*
X-182596Y-149375D01*
X-183842Y-148997D01*
X-184638Y-148919D01*
D02*
G37*
G36*
X-204913D02*
Y-155012D01*
X-198820D01*
X-198899Y-154216D01*
X-199277Y-152970D01*
X-199891Y-151822D01*
X-200717Y-150815D01*
X-201723Y-149989D01*
X-202871Y-149375D01*
X-204118Y-148997D01*
X-204913Y-148919D01*
D02*
G37*
G36*
X-185638D02*
X-186434Y-148997D01*
X-187680Y-149375D01*
X-188828Y-149989D01*
X-189834Y-150815D01*
X-190661Y-151822D01*
X-191274Y-152970D01*
X-191652Y-154216D01*
X-191731Y-155012D01*
X-185638D01*
Y-148919D01*
D02*
G37*
G36*
X-205913D02*
X-206709Y-148997D01*
X-207955Y-149375D01*
X-209104Y-149989D01*
X-210110Y-150815D01*
X-210936Y-151822D01*
X-211550Y-152970D01*
X-211928Y-154216D01*
X-212006Y-155012D01*
X-205913D01*
Y-148919D01*
D02*
G37*
G36*
X-178545Y-156012D02*
X-184638D01*
Y-162105D01*
X-183842Y-162026D01*
X-182596Y-161648D01*
X-181448Y-161035D01*
X-180441Y-160209D01*
X-179615Y-159202D01*
X-179001Y-158054D01*
X-178623Y-156808D01*
X-178545Y-156012D01*
D02*
G37*
G36*
X-198820D02*
X-204913D01*
Y-162105D01*
X-204118Y-162026D01*
X-202871Y-161648D01*
X-201723Y-161035D01*
X-200717Y-160209D01*
X-199891Y-159202D01*
X-199277Y-158054D01*
X-198899Y-156808D01*
X-198820Y-156012D01*
D02*
G37*
G36*
X-185638D02*
X-191731D01*
X-191652Y-156808D01*
X-191274Y-158054D01*
X-190661Y-159202D01*
X-189834Y-160209D01*
X-188828Y-161035D01*
X-187680Y-161648D01*
X-186434Y-162026D01*
X-185638Y-162105D01*
Y-156012D01*
D02*
G37*
G36*
X-205913D02*
X-212006D01*
X-211928Y-156808D01*
X-211550Y-158054D01*
X-210936Y-159202D01*
X-210110Y-160209D01*
X-209104Y-161035D01*
X-207955Y-161648D01*
X-206709Y-162026D01*
X-205913Y-162105D01*
Y-156012D01*
D02*
G37*
%LPD*%
D12*
X26666Y75681D02*
X31000Y71347D01*
X-90319Y75681D02*
X26666D01*
X135318Y5000D02*
X198421D01*
X200267Y3153D02*
X200366D01*
X198421Y5000D02*
X200267Y3153D01*
X109209Y5335D02*
X134983D01*
X135318Y5000D01*
X-30607Y-2500D02*
X-25101Y3006D01*
X199773Y-2535D02*
X205461Y3153D01*
X162429Y-2535D02*
X199773D01*
X110865D02*
X162429D01*
X110831Y-2500D02*
X110865Y-2535D01*
X24242Y37121D02*
X139000D01*
X21621Y34500D02*
X24242Y37121D01*
X-33883Y54173D02*
X-32268Y52558D01*
X-33883Y54173D02*
Y73500D01*
X-95000Y71000D02*
X-90319Y75681D01*
X191569Y30876D02*
X198500Y23945D01*
X124779Y30876D02*
X191569D01*
X-101768Y-2500D02*
X-30607D01*
X-179437D02*
X-101768D01*
X-96114Y3153D01*
X-30607Y-2500D02*
X-1568D01*
X-25248Y3153D02*
X-25101Y3006D01*
X110831Y-2500D02*
X116484Y3153D01*
X39965Y-2500D02*
X45618Y3153D01*
X39965Y-2500D02*
X110831D01*
X5377D02*
X39965D01*
X1905Y972D02*
X5377Y-2500D01*
X-1568D02*
X1905Y972D01*
X-185091Y3153D02*
X-179437Y-2500D01*
X44500Y104786D02*
X46620Y106906D01*
Y108120D01*
X49000Y110500D01*
X51181Y109346D02*
Y120319D01*
X46000Y104165D02*
X51181Y109346D01*
X46000Y96000D02*
Y104165D01*
X44500Y95379D02*
Y104786D01*
X46000Y96000D02*
X51000Y91000D01*
X148953Y-137878D02*
X149831Y-137000D01*
X148953Y-138000D02*
Y-137878D01*
X136000Y-148000D02*
Y-107000D01*
X128500Y-99500D02*
X136000Y-107000D01*
Y-148000D02*
X140000Y-152000D01*
X149831Y-144354D02*
X150850Y-145374D01*
X149831Y-144354D02*
Y-138878D01*
X148953Y-138000D02*
X149831Y-138878D01*
X-145500Y-99500D02*
X128500D01*
X147914Y-152000D02*
X149799Y-150115D01*
Y-146426D01*
X150850Y-145374D01*
X140000Y-152000D02*
X147914D01*
X-156000Y-110000D02*
X-145500Y-99500D01*
X-156000Y-134701D02*
Y-110000D01*
Y-134701D02*
X-153094Y-137606D01*
X-188004Y5335D02*
X-99028D01*
X-190185Y3153D02*
X-188004Y5335D01*
X21000Y52500D02*
X49500Y81000D01*
X12588Y52500D02*
X21000D01*
X-1912Y38000D02*
X12588Y52500D01*
X21621Y51000D02*
X51000Y80379D01*
X14809Y51000D02*
X21621D01*
X51000Y80379D02*
Y91000D01*
X49500Y81000D02*
Y90379D01*
X44500Y95379D02*
X49500Y90379D01*
X49000Y122500D02*
X51181Y120319D01*
X1809Y38000D02*
X14809Y51000D01*
X87000Y134500D02*
X87500Y135000D01*
X87000Y118000D02*
Y134500D01*
X97662Y118161D02*
X97823Y118000D01*
Y118161D02*
Y134838D01*
X97500Y135000D02*
X97662Y134838D01*
X-1956Y37956D02*
X-1912Y38000D01*
X-1956Y20044D02*
Y37956D01*
X-2000Y20000D02*
X-1956Y20044D01*
X1905Y20000D02*
Y37905D01*
X1809Y38000D02*
X1905Y37905D01*
X-2000Y5335D02*
X38342D01*
X-28161D02*
X-2000D01*
X-99028D02*
X-28161D01*
X-101209Y3154D02*
X-99028Y5335D01*
X-101209Y3153D02*
Y3154D01*
X-99028Y5335D02*
X-99028Y5335D01*
X-30343Y3153D02*
X-28161Y5335D01*
X109209D02*
X111390Y3153D01*
X38342Y5335D02*
X109209D01*
X38342D02*
X40524Y3153D01*
X-153094Y-138000D02*
Y-137606D01*
X-150850Y-145374D02*
Y-143887D01*
X-153094Y-141643D02*
X-150850Y-143887D01*
X-153094Y-141643D02*
Y-138000D01*
D25*
X143047Y-138000D02*
D03*
X148953D02*
D03*
X-153094Y-138000D02*
D03*
X-159000D02*
D03*
D103*
X-185065Y16120D02*
X-25223D01*
X168220Y48000D02*
X178720Y58500D01*
X155798Y48000D02*
X168220D01*
X124578Y44387D02*
X152185D01*
X155798Y48000D01*
X124578Y44387D02*
Y68500D01*
X209622Y27598D02*
Y146500D01*
Y20256D02*
Y27598D01*
X178720Y58500D02*
X209622Y27598D01*
X208642Y8500D02*
Y11114D01*
Y1836D02*
Y8500D01*
X205486Y16120D02*
X209622Y20256D01*
X156429Y-50377D02*
X208642Y1836D01*
X156429Y-128071D02*
Y-50377D01*
X152000Y-132500D02*
X156429Y-128071D01*
X116484Y16094D02*
X205461D01*
X205486Y16120D01*
X45669Y16094D02*
X116484D01*
X-25223Y21778D02*
X-13588Y33412D01*
X-25223Y16120D02*
Y21778D01*
X-194362Y1851D02*
X-186050Y-6461D01*
X-175978D01*
X-159000Y-23438D01*
Y-138000D02*
Y-23438D01*
X4500Y16120D02*
X45644D01*
X-25223D02*
X4500D01*
X8500Y20120D01*
Y41000D01*
X48094Y128858D02*
X49000Y129764D01*
X-29528Y128858D02*
X48094D01*
X-58071D02*
X-29528D01*
X145000Y-132500D02*
X152000D01*
X143047Y-138000D02*
Y-134453D01*
X145000Y-132500D01*
X143047Y-142231D02*
Y-138000D01*
X205486Y14270D02*
X208642Y11114D01*
X205486Y14270D02*
Y16120D01*
X-190380D02*
X-185065D01*
X-194362Y12138D02*
X-190380Y16120D01*
X-194362Y1851D02*
Y12138D01*
X8500Y41000D02*
X49500D01*
X61764Y53264D01*
Y81000D01*
X49000Y103047D02*
X56547D01*
X50764Y128000D02*
X59500Y119264D01*
X49000Y129764D02*
X50764Y128000D01*
X70366D02*
X77366Y135000D01*
X50764Y128000D02*
X70366D01*
X77366Y135000D02*
X77500D01*
X56547Y103047D02*
X61764Y97831D01*
Y81000D02*
Y97831D01*
X59500Y106000D02*
Y119264D01*
X56547Y103047D02*
X59500Y106000D01*
X-187130Y94744D02*
X-185065Y92679D01*
Y16120D02*
Y92679D01*
X45644Y16120D02*
X45669Y16094D01*
X-195276Y-145374D02*
Y-118723D01*
X-106174Y-145374D02*
Y-118723D01*
X-106299Y-145374D02*
X-106174D01*
X-35433Y-147902D02*
X-35371D01*
Y-118723D01*
X-35433Y-147902D02*
Y-145374D01*
X35433D02*
Y-118723D01*
X35495D01*
X195276Y-145374D02*
Y-118723D01*
X140850Y-144428D02*
X143047Y-142231D01*
X-159000Y-142578D02*
Y-138000D01*
X-160850Y-144428D02*
X-159000Y-142578D01*
X-160850Y-145374D02*
Y-144428D01*
X106299Y-145374D02*
X106362Y-145312D01*
Y-118786D01*
X106424Y-118723D01*
X140850Y-145374D02*
Y-144428D01*
D104*
X33846Y115500D02*
X42988Y106358D01*
X-77933Y115500D02*
X33846D01*
X-93933Y99500D02*
X-77933Y115500D01*
X-135150Y107500D02*
X-134985Y107665D01*
Y109515D01*
X-102000Y142500D01*
X-92000Y113000D02*
X-88500D01*
X-100252Y104748D02*
X-92000Y113000D01*
X-104614Y104748D02*
X-100252D01*
X-113445Y113579D02*
X-104614Y104748D01*
X-113445Y113579D02*
Y117283D01*
D107*
X124578Y95000D02*
D03*
X100956D02*
D03*
X108830D02*
D03*
X116704D02*
D03*
X124578Y68500D02*
D03*
X100956D02*
D03*
X108830D02*
D03*
X116704D02*
D03*
X209488Y146643D02*
D03*
X185866D02*
D03*
X193740D02*
D03*
X201614D02*
D03*
X124578Y44387D02*
D03*
X100956D02*
D03*
X108830D02*
D03*
X116704D02*
D03*
X45496Y-118723D02*
D03*
X35495D02*
D03*
X25495D02*
D03*
X45496Y-49826D02*
D03*
X35495D02*
D03*
X-25371Y-118723D02*
D03*
X-35371D02*
D03*
X-45371D02*
D03*
X-25371Y-49826D02*
D03*
X-35371D02*
D03*
X116424Y-118723D02*
D03*
X106424D02*
D03*
X96424D02*
D03*
X116424Y-49826D02*
D03*
X106424D02*
D03*
X-96174Y-118723D02*
D03*
X-106174D02*
D03*
X-116174D02*
D03*
X-96174Y-49826D02*
D03*
X-106174D02*
D03*
X195276D02*
D03*
X205276D02*
D03*
X185276Y-118723D02*
D03*
X195276D02*
D03*
X205276D02*
D03*
X-195276Y-49826D02*
D03*
X-185276D02*
D03*
X-205276Y-118723D02*
D03*
X-195276D02*
D03*
X-185276D02*
D03*
X57500Y135000D02*
D03*
X67500D02*
D03*
X77500D02*
D03*
X87500D02*
D03*
X97500D02*
D03*
D108*
X-74823Y144331D02*
D03*
X-47224D02*
D03*
D109*
X-69882Y154134D02*
D03*
X-52165D02*
D03*
D110*
X194000Y90780D02*
D03*
X204000Y85780D02*
D03*
X194000Y80779D02*
D03*
X204000Y75779D02*
D03*
X194000Y70780D02*
D03*
X204000Y65780D02*
D03*
X194000Y60780D02*
D03*
X204000Y55779D02*
D03*
D111*
X229000Y95780D02*
D03*
Y50779D02*
D03*
D112*
X-185405Y124016D02*
D03*
X-205090D02*
D03*
D113*
X-140850Y-145374D02*
D03*
X-150850D02*
D03*
X-160850D02*
D03*
X160850D02*
D03*
X150850D02*
D03*
X140850D02*
D03*
D114*
X25295Y-155512D02*
D03*
Y-135236D02*
D03*
X45571D02*
D03*
Y-155512D02*
D03*
X-45571D02*
D03*
Y-135236D02*
D03*
X-25295D02*
D03*
Y-155512D02*
D03*
X96161D02*
D03*
Y-135236D02*
D03*
X116437D02*
D03*
Y-155512D02*
D03*
X-116437D02*
D03*
Y-135236D02*
D03*
X-96161D02*
D03*
Y-155512D02*
D03*
X185138D02*
D03*
Y-135236D02*
D03*
X205413D02*
D03*
Y-155512D02*
D03*
X-205413D02*
D03*
Y-135236D02*
D03*
X-185138D02*
D03*
Y-155512D02*
D03*
D115*
X35433Y-145374D02*
D03*
X-35433D02*
D03*
X106299D02*
D03*
X-106299D02*
D03*
X195276D02*
D03*
X-195276D02*
D03*
D116*
X25495Y-49826D02*
D03*
X-45371D02*
D03*
X96424D02*
D03*
X-116174D02*
D03*
X185276D02*
D03*
X-205276D02*
D03*
X107500Y135000D02*
D03*
D117*
X146555Y-121653D02*
D03*
X-146555D02*
D03*
X146555Y121653D02*
D03*
X-146555D02*
D03*
D118*
X242717Y-145472D02*
D03*
Y145472D02*
D03*
X-242717D02*
D03*
Y-145472D02*
D03*
D119*
X-52165Y154134D02*
D03*
X-69882D02*
D03*
D120*
X-47224Y144331D02*
D03*
X-74823D02*
D03*
D121*
X246921Y119386D02*
D03*
X256764Y99701D02*
D03*
X246921Y80016D02*
D03*
X256764Y60331D02*
D03*
X246921Y40646D02*
D03*
X256764Y20961D02*
D03*
X246921Y1276D02*
D03*
X256764Y-18409D02*
D03*
X227236Y119386D02*
D03*
X237079Y99701D02*
D03*
X227236Y40646D02*
D03*
X237079Y20961D02*
D03*
X227236Y1276D02*
D03*
X237079Y-18409D02*
D03*
X217394Y139071D02*
D03*
Y99701D02*
D03*
Y20961D02*
D03*
X197709Y139071D02*
D03*
X187866Y119386D02*
D03*
X197709Y99701D02*
D03*
Y-18409D02*
D03*
X168181Y119386D02*
D03*
Y80016D02*
D03*
X178024Y20961D02*
D03*
X168181Y1276D02*
D03*
X148496Y80016D02*
D03*
Y1276D02*
D03*
Y-38094D02*
D03*
Y-77465D02*
D03*
Y-156205D02*
D03*
X128811Y119386D02*
D03*
X138654Y99701D02*
D03*
X128811Y80016D02*
D03*
Y40646D02*
D03*
Y1276D02*
D03*
X138654Y-18409D02*
D03*
Y-57780D02*
D03*
Y-97150D02*
D03*
Y-136520D02*
D03*
X109126Y119386D02*
D03*
X118968Y99701D02*
D03*
X99283Y60331D02*
D03*
X89441Y40646D02*
D03*
Y1276D02*
D03*
X99283Y-18409D02*
D03*
X69756Y80016D02*
D03*
X79598Y60331D02*
D03*
X69756Y40646D02*
D03*
X79598Y20961D02*
D03*
X69756Y1276D02*
D03*
X59913Y20961D02*
D03*
X50071Y1276D02*
D03*
X10701Y119386D02*
D03*
Y80016D02*
D03*
X-8984Y119386D02*
D03*
Y80016D02*
D03*
Y1276D02*
D03*
X858Y-18409D02*
D03*
X-18827Y99701D02*
D03*
X-28669Y40646D02*
D03*
X-48354Y119386D02*
D03*
Y80016D02*
D03*
Y1276D02*
D03*
X-38512Y-18409D02*
D03*
X-58197Y139071D02*
D03*
X-68039Y119386D02*
D03*
X-58197Y99701D02*
D03*
X-68039Y40646D02*
D03*
X-58197Y20961D02*
D03*
X-68039Y1276D02*
D03*
X-77882Y139071D02*
D03*
X-87724Y40646D02*
D03*
X-77882Y20961D02*
D03*
X-87724Y1276D02*
D03*
X-107409Y119386D02*
D03*
Y40646D02*
D03*
X-117252Y60331D02*
D03*
X-127094Y40646D02*
D03*
X-117252Y20961D02*
D03*
X-127094Y1276D02*
D03*
X-136937Y139071D02*
D03*
Y99701D02*
D03*
X-146780Y80016D02*
D03*
X-136937Y60331D02*
D03*
X-146780Y40646D02*
D03*
X-136937Y20961D02*
D03*
X-146780Y1276D02*
D03*
X-136937Y-18409D02*
D03*
X-146780Y-38094D02*
D03*
X-136937Y-57780D02*
D03*
X-146780Y-77465D02*
D03*
X-136937Y-97150D02*
D03*
Y-136520D02*
D03*
X-146780Y-156205D02*
D03*
X-156622Y139071D02*
D03*
X-166465Y119386D02*
D03*
X-156622Y99701D02*
D03*
X-166465Y80016D02*
D03*
Y40646D02*
D03*
X-156622Y20961D02*
D03*
X-166465Y1276D02*
D03*
X-156622Y-18409D02*
D03*
X-176307Y139071D02*
D03*
Y20961D02*
D03*
X-195992Y139071D02*
D03*
X-205835Y40646D02*
D03*
Y1276D02*
D03*
X-195992Y-18409D02*
D03*
X-215677Y139071D02*
D03*
X-225520Y119386D02*
D03*
X-215677Y60331D02*
D03*
Y20961D02*
D03*
X-245205Y119386D02*
D03*
X-235362Y60331D02*
D03*
X31000Y71347D02*
D03*
X162429Y-2535D02*
D03*
X161461Y5000D02*
D03*
X155798Y48000D02*
D03*
X178720Y58500D02*
D03*
X139000Y37121D02*
D03*
X-33883Y73500D02*
D03*
X-32268Y52558D02*
D03*
X21621Y34500D02*
D03*
X124779Y30876D02*
D03*
X198500Y23945D02*
D03*
X-13588Y33412D02*
D03*
X75500Y746D02*
D03*
X11201D02*
D03*
X-64500Y500D02*
D03*
X192440D02*
D03*
X103464D02*
D03*
X32598D02*
D03*
X-38269D02*
D03*
X-109135D02*
D03*
X-198111D02*
D03*
X-7224Y97106D02*
D03*
X0D02*
D03*
X7224D02*
D03*
Y111555D02*
D03*
X0D02*
D03*
X-7224D02*
D03*
Y104331D02*
D03*
X7224D02*
D03*
X0D02*
D03*
X-102000Y142500D02*
D03*
X-135150Y107500D02*
D03*
X42988Y106358D02*
D03*
X49000Y122500D02*
D03*
Y110500D02*
D03*
X-93933Y99500D02*
D03*
X-95000Y71000D02*
D03*
X87000Y118000D02*
D03*
X97823D02*
D03*
X-88500Y113000D02*
D03*
X-104614Y104748D02*
D03*
X-113445Y117283D02*
D03*
X-58071Y128858D02*
D03*
X-29528D02*
D03*
X49000Y129764D02*
D03*
X49000Y103047D02*
D03*
X61764Y81000D02*
D03*
X-187130Y94744D02*
D03*
X-1912Y38000D02*
D03*
X8500Y41000D02*
D03*
X-2000Y20000D02*
D03*
Y5335D02*
D03*
X1905Y20000D02*
D03*
X205486Y16120D02*
D03*
X116484Y16094D02*
D03*
X45644Y16120D02*
D03*
X-25223D02*
D03*
X-96114Y16094D02*
D03*
X-185065Y16120D02*
D03*
X1905Y972D02*
D03*
X-101209Y3153D02*
D03*
X1809Y38000D02*
D03*
X205461Y3153D02*
D03*
X200366D02*
D03*
X116484Y3153D02*
D03*
X111390D02*
D03*
X45618D02*
D03*
X40524D02*
D03*
X-25248D02*
D03*
X-30343D02*
D03*
X-96114D02*
D03*
X-185091Y3153D02*
D03*
X-190185D02*
D03*
X-177295Y-29327D02*
D03*
Y-22765D02*
D03*
Y-16203D02*
D03*
Y-9642D02*
D03*
X-88194Y-29327D02*
D03*
Y-22765D02*
D03*
Y-16203D02*
D03*
Y-9642D02*
D03*
X-17390Y-29327D02*
D03*
Y-22765D02*
D03*
Y-16203D02*
D03*
Y-9642D02*
D03*
X53476Y-29327D02*
D03*
Y-22765D02*
D03*
Y-16203D02*
D03*
Y-9642D02*
D03*
X124404Y-29327D02*
D03*
Y-22765D02*
D03*
Y-16203D02*
D03*
Y-9642D02*
D03*
X213256D02*
D03*
Y-16203D02*
D03*
Y-22765D02*
D03*
Y-29327D02*
D03*
M02*
