G04*
G04 #@! TF.GenerationSoftware,Altium Limited,Altium Designer,19.0.10 (269)*
G04*
G04 Layer_Color=16711935*
%FSLAX25Y25*%
%MOIN*%
G70*
G01*
G75*
%ADD60R,0.03556X0.04343*%
%ADD90C,0.06800*%
%ADD91C,0.08674*%
%ADD92C,0.06902*%
%ADD93C,0.05930*%
%ADD94C,0.07198*%
%ADD95C,0.11430*%
%ADD96C,0.07296*%
%ADD97C,0.12020*%
%ADD98C,0.10249*%
%ADD99R,0.06800X0.06800*%
%ADD100C,0.16548*%
%ADD101C,0.32296*%
%ADD102C,0.03162*%
D60*
X143047Y-138000D02*
D03*
X148953D02*
D03*
X-153094Y-138000D02*
D03*
X-159000D02*
D03*
D90*
X124578Y95000D02*
D03*
X100956D02*
D03*
X108830D02*
D03*
X116704D02*
D03*
X124578Y68500D02*
D03*
X100956D02*
D03*
X108830D02*
D03*
X116704D02*
D03*
X209488Y146643D02*
D03*
X185866D02*
D03*
X193740D02*
D03*
X201614D02*
D03*
X124578Y44387D02*
D03*
X100956D02*
D03*
X108830D02*
D03*
X116704D02*
D03*
X45496Y-118723D02*
D03*
X35495D02*
D03*
X25495D02*
D03*
X45496Y-49826D02*
D03*
X35495D02*
D03*
X-25371Y-118723D02*
D03*
X-35371D02*
D03*
X-45371D02*
D03*
X-25371Y-49826D02*
D03*
X-35371D02*
D03*
X116424Y-118723D02*
D03*
X106424D02*
D03*
X96424D02*
D03*
X116424Y-49826D02*
D03*
X106424D02*
D03*
X-96174Y-118723D02*
D03*
X-106174D02*
D03*
X-116174D02*
D03*
X-96174Y-49826D02*
D03*
X-106174D02*
D03*
X195276D02*
D03*
X205276D02*
D03*
X185276Y-118723D02*
D03*
X195276D02*
D03*
X205276D02*
D03*
X-195276Y-49826D02*
D03*
X-185276D02*
D03*
X-205276Y-118723D02*
D03*
X-195276D02*
D03*
X-185276D02*
D03*
X57500Y135000D02*
D03*
X67500D02*
D03*
X77500D02*
D03*
X87500D02*
D03*
X97500D02*
D03*
D91*
X-74823Y144331D02*
D03*
X-47224D02*
D03*
D92*
X-69882Y154134D02*
D03*
X-52165D02*
D03*
D93*
X194000Y90780D02*
D03*
X204000Y85780D02*
D03*
X194000Y80779D02*
D03*
X204000Y75779D02*
D03*
X194000Y70780D02*
D03*
X204000Y65780D02*
D03*
X194000Y60780D02*
D03*
X204000Y55779D02*
D03*
D94*
X229000Y95780D02*
D03*
Y50779D02*
D03*
D95*
X-185405Y124016D02*
D03*
X-205090D02*
D03*
D96*
X-140850Y-145374D02*
D03*
X-150850D02*
D03*
X-160850D02*
D03*
X160850D02*
D03*
X150850D02*
D03*
X140850D02*
D03*
D97*
X25295Y-155512D02*
D03*
Y-135236D02*
D03*
X45571D02*
D03*
Y-155512D02*
D03*
X-45571D02*
D03*
Y-135236D02*
D03*
X-25295D02*
D03*
Y-155512D02*
D03*
X96161D02*
D03*
Y-135236D02*
D03*
X116437D02*
D03*
Y-155512D02*
D03*
X-116437D02*
D03*
Y-135236D02*
D03*
X-96161D02*
D03*
Y-155512D02*
D03*
X185138D02*
D03*
Y-135236D02*
D03*
X205413D02*
D03*
Y-155512D02*
D03*
X-205413D02*
D03*
Y-135236D02*
D03*
X-185138D02*
D03*
Y-155512D02*
D03*
D98*
X35433Y-145374D02*
D03*
X-35433D02*
D03*
X106299D02*
D03*
X-106299D02*
D03*
X195276D02*
D03*
X-195276D02*
D03*
D99*
X25495Y-49826D02*
D03*
X-45371D02*
D03*
X96424D02*
D03*
X-116174D02*
D03*
X185276D02*
D03*
X-205276D02*
D03*
X107500Y135000D02*
D03*
D100*
X146555Y-121653D02*
D03*
X-146555D02*
D03*
X146555Y121653D02*
D03*
X-146555D02*
D03*
D101*
X242717Y-145472D02*
D03*
Y145472D02*
D03*
X-242717D02*
D03*
Y-145472D02*
D03*
D102*
X-177295Y-29327D02*
D03*
Y-16203D02*
D03*
Y-9642D02*
D03*
X-88194Y-29327D02*
D03*
Y-16203D02*
D03*
Y-9642D02*
D03*
X-17390Y-29327D02*
D03*
Y-16203D02*
D03*
Y-9642D02*
D03*
X53476Y-29327D02*
D03*
Y-16203D02*
D03*
Y-9642D02*
D03*
X124404Y-29327D02*
D03*
Y-16203D02*
D03*
Y-9642D02*
D03*
X213256D02*
D03*
Y-16203D02*
D03*
Y-29327D02*
D03*
M02*
