G04*
G04 #@! TF.GenerationSoftware,Altium Limited,Altium Designer,19.0.10 (269)*
G04*
G04 Layer_Color=32896*
%FSLAX25Y25*%
%MOIN*%
G70*
G01*
G75*
%ADD11C,0.00787*%
%ADD19C,0.00800*%
D11*
X145213Y-139378D02*
X146787D01*
X145213Y-136622D02*
X146787D01*
X-156835Y-136622D02*
X-155260D01*
X-156835Y-139378D02*
X-155260D01*
D19*
X-152047Y-134705D02*
Y-131706D01*
X-153547D01*
X-154047Y-132205D01*
Y-133205D01*
X-153547Y-133705D01*
X-152047D01*
X-153047D02*
X-154047Y-134705D01*
X-155046Y-131706D02*
X-157046D01*
Y-132205D01*
X-155046Y-134205D01*
Y-134705D01*
X-158045Y-132205D02*
X-158545Y-131706D01*
X-159545D01*
X-160045Y-132205D01*
Y-132705D01*
X-159545Y-133205D01*
X-159045D01*
X-159545D01*
X-160045Y-133705D01*
Y-134205D01*
X-159545Y-134705D01*
X-158545D01*
X-158045Y-134205D01*
X159500Y-139500D02*
Y-136501D01*
X158001D01*
X157501Y-137001D01*
Y-138001D01*
X158001Y-138500D01*
X159500D01*
X158500D02*
X157501Y-139500D01*
X156501Y-136501D02*
X154502D01*
Y-137001D01*
X156501Y-139000D01*
Y-139500D01*
X151503D02*
X153502D01*
X151503Y-137501D01*
Y-137001D01*
X152002Y-136501D01*
X153002D01*
X153502Y-137001D01*
M02*
